{
.appVersion = "1141";
copyright = "Copyright (c) 2008 Andreas Kalpakidis (hello@inderesting.com), with Reserved Font Name \"Advent Pro\"";
customParameters = (
{
name = glyphOrder;
value = (
.notdef,
NULL,
CR,
space,
exclam,
quotedbl,
numbersign,
dollar,
percent,
ampersand,
quotesingle,
parenleft,
parenright,
asterisk,
plus,
comma,
hyphen,
period,
slash,
zero,
one,
two,
three,
four,
five,
six,
seven,
eight,
nine,
colon,
semicolon,
less,
equal,
greater,
question,
at,
A,
B,
C,
D,
E,
F,
G,
H,
I,
J,
K,
L,
M,
N,
O,
P,
Q,
R,
S,
T,
U,
V,
W,
X,
Y,
Z,
bracketleft,
backslash,
bracketright,
asciicircum,
underscore,
grave,
a,
b,
c,
d,
e,
f,
g,
h,
i,
j,
k,
l,
m,
n,
o,
p,
q,
r,
s,
t,
u,
v,
w,
x,
y,
z,
braceleft,
bar,
braceright,
asciitilde,
exclamdown,
cent,
sterling,
currency,
yen,
section,
dieresis,
copyright,
ordfeminine,
guillemotleft,
uni00AD,
registered,
overscore,
degree,
plusminus,
acute,
mu,
paragraph,
cedilla,
guillemotright,
questiondown,
Agrave,
Aacute,
Acircumflex,
Atilde,
Adieresis,
Aring,
AE,
Ccedilla,
Egrave,
Eacute,
Ecircumflex,
Edieresis,
Igrave,
Iacute,
Icircumflex,
Idieresis,
Eth,
Ntilde,
Ograve,
Oacute,
Ocircumflex,
Otilde,
Odieresis,
multiply,
Oslash,
Ugrave,
Uacute,
Ucircumflex,
Udieresis,
Yacute,
Thorn,
germandbls,
agrave,
aacute,
acircumflex,
atilde,
adieresis,
aring,
ae,
ccedilla,
egrave,
eacute,
ecircumflex,
edieresis,
igrave,
iacute,
icircumflex,
idieresis,
ntilde,
ograve,
oacute,
ocircumflex,
otilde,
odieresis,
divide,
oslash,
ugrave,
uacute,
ucircumflex,
udieresis,
yacute,
thorn,
ydieresis,
Amacron,
amacron,
Abreve,
abreve,
Aogonek,
aogonek,
Cacute,
cacute,
Ccircumflex,
ccircumflex,
Cdotaccent,
cdotaccent,
Ccaron,
ccaron,
Dcaron,
dcaron,
Dcroat,
dslash,
Emacron,
emacron,
Edotaccent,
edotaccent,
Eogonek,
eogonek,
Ecaron,
ecaron,
Gcircumflex,
gcircumflex,
Gbreve,
gbreve,
Gdotaccent,
gdotaccent,
Gcommaaccent,
gcommaaccent,
Hcircumflex,
hcircumflex,
Hbar,
hbar,
Itilde,
itilde,
Imacron,
imacron,
Iogonek,
iogonek,
Idot,
dotlessi,
Jcircumflex,

glyphs = (
{
glyphname = .notdef;
lastChange = "2018-08-09 15:11:50 +0000";
layers = (
{
layerId = "BADA37E3-C95E-4946-BA48-1F986F6D85A7";
paths = (
{
closed = 1;
nodes = (
"500 0 LINE",
"500 700 LINE",
"0 700 LINE",
"0 0 LINE"
);
},
{
closed = 1;
nodes = (
"50 650 LINE",
"450 650 LINE",
"450 50 LINE",
"50 50 LINE"
);
},
{
closed = 1;
nodes = (
"250 305 LINE",
"386 101 LINE",
"425 133 LINE",
"280 350 LINE",
"425 567 LINE",
"386 599 LINE",
"250 395 LINE",
"113 600 LINE",
"73 571 LINE",
"220 350 LINE",
"73 129 LINE",
"113 100 LINE"
);
}
);
width = 500;
},
{
layerId = "77B00D75-0619-4FB7-8D17-EB9FCD2DF18B";
paths = (
{
closed = 1;
nodes = (
"500 0 LINE",
"500 700 LINE",
"0 700 LINE",
"0 0 LINE"
);
},
{
closed = 1;
nodes = (
"50 650 LINE",
"450 650 LINE",
"450 50 LINE",
"50 50 LINE"
);
},
{
closed = 1;
nodes = (
"250 305 LINE",
"386 101 LINE",
"425 133 LINE",
"280 350 LINE",
"425 567 LINE",
"386 599 LINE",
"250 395 LINE",
"113 600 LINE",
"73 571 LINE",
"220 350 LINE",
"73 129 LINE",
"113 100 LINE"
);
}
);
width = 500;
},
{
layerId = "8A94633D-DA21-409C-A8B7-00A83612E8B2";
paths = (
{
closed = 1;
nodes = (
"500 0 LINE",
"500 700 LINE",
"0 700 LINE",
"0 0 LINE"
);
},
{
closed = 1;
nodes = (
"50 650 LINE",
"450 650 LINE",
"450 50 LINE",
"50 50 LINE"
);
},
{
closed = 1;
nodes = (
"250 305 LINE",
"386 101 LINE",
"425 133 LINE",
"280 350 LINE",
"425 567 LINE",
"386 599 LINE",
"250 395 LINE",
"113 600 LINE",
"73 571 LINE",
"220 350 LINE",
"73 129 LINE",
"113 100 LINE"
);
}
);
width = 500;
}
);
},
{
glyphname = exclam;
lastChange = "2018-08-09 15:11:50 +0000";
layers = (
{
layerId = "BADA37E3-C95E-4946-BA48-1F986F6D85A7";
paths = (
{
closed = 1;
nodes = (
"136 120 LINE",
"145 674 LINE",
"145 710 OFFCURVE",
"79 710 OFFCURVE",
"79 673 QCURVE",
"89 120 LINE"
);
},
{
closed = 1;
nodes = (
"144 20 OFFCURVE",
"144 46 OFFCURVE",
"124 66 OFFCURVE",
"98 66 OFFCURVE",
"78 46 OFFCURVE",
"78 20 OFFCURVE",
"98 0 OFFCURVE",
"124 0 OFFCURVE",
"134 10 QCURVE"
);
}
);
width = 225;
},
{
layerId = "77B00D75-0619-4FB7-8D17-EB9FCD2DF18B";
paths = (
{
closed = 1;
nodes = (
"102 120 LINE",
"110 692 LINE",
"110 710 OFFCURVE",
"95 710 QCURVE",
"89 710 OFFCURVE",
"78 701 OFFCURVE",
"78 692 QCURVE",
"87 120 LINE"
);
},
{
closed = 1;
nodes = (
"109 9 OFFCURVE",
"109 21 OFFCURVE",
"100 30 OFFCURVE",
"88 30 OFFCURVE",
"79 21 OFFCURVE",
"79 9 OFFCURVE",
"88 0 OFFCURVE",
"100 0 OFFCURVE",
"104 4 QCURVE"
);
}
);
width = 190;
},
{
layerId = "8A94633D-DA21-409C-A8B7-00A83612E8B2";
paths = (
{
closed = 1;
nodes = (
"173 120 LINE",
"194 642 LINE",
"194 710 OFFCURVE",
"134 710 QCURVE",
"78 710 OFFCURVE",
"78 641 QCURVE",
"97 120 LINE"
);
},
{
closed = 1;
nodes = (
"157 0 OFFCURVE",
"187 30 OFFCURVE",
"187 50 QCURVE",
"187 71 OFFCURVE",
"157 101 OFFCURVE",
"136 101 QCURVE",
"116 101 OFFCURVE",
"86 71 OFFCURVE",
"86 50 QCURVE",
"86 30 OFFCURVE",
"116 0 OFFCURVE",
"136 0 QCURVE"
);
}
);
width = 274;
}
);
unicode = 0021;
},
{
glyphname = quotedbl;
lastChange = "2018-08-09 15:11:50 +0000";
layers = (
{
layerId = "BADA37E3-C95E-4946-BA48-1F986F6D85A7";
paths = (
{
closed = 1;
nodes = (
"304 512 LINE",
"318 700 LINE",
"318 722 OFFCURVE",
"301 731 QCURVE",
"284 736 LINE",
"276 736 OFFCURVE",
"267 731 QCURVE",
"250 722 OFFCURVE",
"250 700 QCURVE",
"264 512 LINE"
);
},
{
closed = 1;
nodes = (
"159 512 LINE",
"173 700 LINE",
"173 722 OFFCURVE",
"156 731 QCURVE",
"139 736 LINE",
"130 736 OFFCURVE",
"122 731 QCURVE",
"105 722 OFFCURVE",
"105 700 QCURVE",
"119 512 LINE"
);
}
);
width = 426;
},
{
layerId = "77B00D75-0619-4FB7-8D17-EB9FCD2DF18B";
paths = (
{
closed = 1;
nodes = (
"280 512 LINE",
"286 718 LINE",
"286 730 OFFCURVE",
"276 737 OFFCURVE",
"268 737 OFFCURVE",
"257 729 OFFCURVE",
"257 718 QCURVE",
"264 512 LINE"
);
},
{
closed = 1;
nodes = (
"161 512 LINE",
"167 718 LINE",
"167 730 OFFCURVE",
"156 737 OFFCURVE",
"149 737 OFFCURVE",
"138 729 OFFCURVE",
"138 718 QCURVE",
"145 512 LINE"
);
}
);
width = 426;
},
{
layerId = "8A94633D-DA21-409C-A8B7-00A83612E8B2";
paths = (
{
closed = 1;
nodes = (
"324 512 LINE",
"338 695 LINE",
"338 722 OFFCURVE",
"316 732 QCURVE",
"294 738 LINE",
"282 738 OFFCURVE",
"270 732 QCURVE",
"248 720 OFFCURVE",
"248 695 QCURVE",
"262 512 LINE"
);
},
{
closed = 1;
nodes = (
"181 512 LINE",
"195 695 LINE",
"195 722 OFFCURVE",
"172 732 QCURVE",
"151 738 LINE",
"139 738 OFFCURVE",
"128 732 QCURVE",
"105 720 OFFCURVE",
"105 695 QCURVE",
"119 512 LINE"
);
}
);
width = 426;
}
);
unicode = 0022;
},
{
glyphname = numbersign;
lastChange = "2018-08-09 15:11:50 +0000";
layers = (
{
layerId = "BADA37E3-C95E-4946-BA48-1F986F6D85A7";
paths = (
{
closed = 1;
nodes = (
"165 0 LINE",
"209 189 LINE",
"328 189 LINE",
"284 0 LINE",
"339 0 LINE",
"383 189 LINE",
"582 189 LINE",
"582 245 LINE",
"396 245 LINE",
"436 413 LINE",
"582 413 LINE",
"582 469 LINE",
"449 469 LINE",
"503 700 LINE",
"448 700 LINE",
"394 469 LINE",
"275 469 LINE",
"329 700 LINE",
"274 700 LINE",
"220 469 LINE",
"34 469 LINE",
"34 413 LINE",
"207 413 LINE",
"167 245 LINE",
"34 245 LINE",
"34 189 LINE",
"154 189 LINE",
"110 0 LINE"
);
},
{
closed = 1;
nodes = (
"262 413 LINE",
"381 413 LINE",
"341 245 LINE",
"222 245 LINE"
);
}
);
width = 613;
},
{
layerId = "77B00D75-0619-4FB7-8D17-EB9FCD2DF18B";
paths = (
{
closed = 1;
nodes = (
"129 0 LINE",
"182 226 LINE",
"373 226 LINE",
"320 0 LINE",
"339 0 LINE",
"392 226 LINE",
"582 226 LINE",
"582 245 LINE",
"396 245 LINE",
"436 413 LINE",
"582 413 LINE",
"582 432 LINE",
"440 432 LINE",
"503 700 LINE",
"484 700 LINE",
"421 432 LINE",
"231 432 LINE",
"293 700 LINE",
"274 700 LINE",
"212 432 LINE",
"34 432 LINE",
"34 413 LINE",
"207 413 LINE",
"167 245 LINE",
"34 245 LINE",
"34 226 LINE",
"163 226 LINE",
"110 0 LINE"
);
},
{
closed = 1;
nodes = (
"226 413 LINE",
"417 413 LINE",
"377 245 LINE",
"186 245 LINE"
);
}
);
width = 613;
},
{
layerId = "8A94633D-DA21-409C-A8B7-00A83612E8B2";
paths = (
{
closed = 1;
nodes = (
"165 0 LINE",
"203 168 LINE",
"321 168 LINE",
"284 0 LINE",
"396 0 LINE",
"436 168 LINE",
"582 168 LINE",
"582 270 LINE",
"460 270 LINE",
"480 357 LINE",
"582 357 LINE",
"582 469 LINE",
"508 469 LINE",
"562 700 LINE",
"448 700 LINE",
"394 469 LINE",
"275 469 LINE",
"329 700 LINE",
"224 700 LINE",
"171 469 LINE",
"34 469 LINE",
"34 357 LINE",
"144 357 LINE",
"123 270 LINE",
"34 270 LINE",
"34 168 LINE",
"99 168 LINE",
"59 0 LINE"
);
},
{
closed = 1;
nodes = (
"248 357 LINE",
"367 357 LINE",
"346 270 LINE",
"228 270 LINE"
);
}
);
width = 613;
}
);
unicode = 0023;
},
{
glyphname = dollar;
lastChange = "2018-08-09 15:11:50 +0000";
layers = (
{
layerId = "BADA37E3-C95E-4946-BA48-1F986F6D85A7";
paths = (
{
closed = 1;
nodes = (
"299 -114 LINE",
"299 -10 LINE",
"407 -3 OFFCURVE",
"509 105 OFFCURVE",
"509 192 QCURVE",
"509 257 OFFCURVE",
"466 306 QCURVE",
"425 351 OFFCURVE",
"299 394 QCURVE",
"299 655 LINE",
"358 652 OFFCURVE",
"406 627 QCURVE",
"423 678 OFFCURVE",
"423 680 QCURVE",
"367 707 OFFCURVE",
"299 709 QCURVE",
"299 817 LINE",
"243 817 LINE",
"243 708 LINE",
"150 700 OFFCURVE",
"52 601 OFFCURVE",
"52 538 QCURVE",
"52 459 OFFCURVE",
"112 416 QCURVE",
"162 382 OFFCURVE",
"243 354 QCURVE",
"243 44 LINE",
"177 51 OFFCURVE",
"95 130 OFFCURVE",
"91 178 QCURVE",
"34 178 LINE",
"36 109 OFFCURVE",
"146 -2 OFFCURVE",
"243 -10 QCURVE",
"243 -114 LINE"
);
},
{
closed = 1;
nodes = (
"299 334 LINE",
"372 307 OFFCURVE",
"449 243 OFFCURVE",
"449 120 OFFCURVE",
"365 51 OFFCURVE",
"299 44 QCURVE"
);
},
{
closed = 1;
nodes = (
"179 436 OFFCURVE",
"110 490 OFFCURVE",
"110 585 OFFCURVE",
"181 646 OFFCURVE",
"243 654 QCURVE",
"243 413 LINE"
);
}
);
width = 540;
},
{
layerId = "77B00D75-0619-4FB7-8D17-EB9FCD2DF18B";
paths = (
{
closed = 1;
nodes = (
"278 -114 LINE",
"278 -11 LINE",
"396 -9 OFFCURVE",
"509 97 OFFCURVE",
"509 187 QCURVE",
"509 215 OFFCURVE",
"500 238 QCURVE",
"487 277 OFFCURVE",
"436 314 QCURVE",
"400 340 OFFCURVE",
"278 381 QCURVE",
"278 691 LINE",
"279 691 LINE",
"355 691 OFFCURVE",
"415 660 QCURVE",
"423 680 LINE",
"360 710 OFFCURVE",
"278 710 QCURVE",
"278 817 LINE",
"260 817 LINE",
"260 709 LINE",
"159 705 OFFCURVE",
"52 605 OFFCURVE",
"52 484 OFFCURVE",
"94 444 QCURVE",
"130 408 OFFCURVE",
"260 366 QCURVE",
"260 7 LINE",
"162 10 OFFCURVE",
"56 117 OFFCURVE",
"56 178 QCURVE",
"34 178 LINE",
"36 106 OFFCURVE",
"156 -8 OFFCURVE",
"260 -11 QCURVE",
"260 -114 LINE"
);
},
{
closed = 1;
nodes = (
"278 360 LINE",
"318 347 OFFCURVE",
"342 338 QCURVE",
"411 313 OFFCURVE",
"446 282 QCURVE",
"488 243 OFFCURVE",
"488 187 QCURVE",
"488 95 OFFCURVE",
"372 9 OFFCURVE",
"278 7 QCURVE"
);
},
{
closed = 1;
nodes = (
"193 408 OFFCURVE",
"152 429 QCURVE",
"73 469 OFFCURVE",
"73 535 QCURVE",
"73 605 OFFCURVE",
"179 686 OFFCURVE",
"260 690 QCURVE",
"260 386 LINE"
);
}
);
width = 540;
},
{
layerId = "8A94633D-DA21-409C-A8B7-00A83612E8B2";
paths = (
{
closed = 1;
nodes = (
"325 -114 LINE",
"325 -7 LINE",
"418 6 OFFCURVE",
"509 116 OFFCURVE",
"509 194 QCURVE",
"509 240 OFFCURVE",
"478 314 OFFCURVE",
"420 369 OFFCURVE",
"364 405 OFFCURVE",
"325 423 QCURVE",
"325 593 LINE",
"349 588 OFFCURVE",
"388 576 QCURVE",
"393 590 OFFCURVE",
"411 644 OFFCURVE",
"417 662 QCURVE",
"423 680 LINE",
"373 703 OFFCURVE",
"325 708 QCURVE",
"325 817 LINE",
"215 817 LINE",
"215 705 LINE",
"135 690 OFFCURVE",
"51 595 OFFCURVE",
"51 537 QCURVE",
"51 497 OFFCURVE",
"77 436 OFFCURVE",
"130 393 OFFCURVE",
"177 367 OFFCURVE",
"215 351 QCURVE",
"215 107 LINE",
"158 130 OFFCURVE",
"152 195 QCURVE",
"34 178 LINE",
"36 115 OFFCURVE",
"131 8 OFFCURVE",
"215 -6 QCURVE",
"215 -114 LINE"
);
},
{
closed = 1;
nodes = (
"325 297 LINE",
"388 254 OFFCURVE",
"388 184 QCURVE",
"388 162 OFFCURVE",
"357 117 OFFCURVE",
"325 105 QCURVE"
);
},
{
closed = 1;
nodes = (
"173 499 OFFCURVE",
"170 527 QCURVE",
"170 531 OFFCURVE",
"170 535 QCURVE",
"170 572 OFFCURVE",
"215 589 QCURVE",
"215 475 LINE"
);
}
);
width = 540;
}
);
unicode = 0024;
},
{
glyphname = percent;
lastChange = "2018-08-09 15:11:50 +0000";
layers = (
{
layerId = "BADA37E3-C95E-4946-BA48-1F986F6D85A7";
paths = (
{
closed = 1;
nodes = (
"641 699 LINE",
"601 740 LINE",
"34 41 LINE",
"69 1 LINE"
);
},
{
closed = 1;
nodes = (
"639 73 OFFCURVE",
"639 193 OFFCURVE",
"555 277 OFFCURVE",
"435 277 OFFCURVE",
"351 193 OFFCURVE",
"351 73 OFFCURVE",
"435 -11 OFFCURVE",
"555 -11 OFFCURVE",
"597 31 QCURVE"
);
},
{
closed = 1;
nodes = (
"537 39 OFFCURVE",
"453 39 OFFCURVE",
"401 96 OFFCURVE",
"401 170 OFFCURVE",
"453 227 OFFCURVE",
"537 227 OFFCURVE",
"589 170 OFFCURVE",
"589 96 OFFCURVE",
"563 67 QCURVE"
);
},
{
closed = 1;
nodes = (
"328 523 OFFCURVE",
"328 643 OFFCURVE",
"244 727 OFFCURVE",
"124 727 OFFCURVE",
"40 643 OFFCURVE",
"40 523 OFFCURVE",
"124 439 OFFCURVE",
"244 439 OFFCURVE",
"286 481 QCURVE"
);
},
{
closed = 1;
nodes = (
"226 489 OFFCURVE",
"142 489 OFFCURVE",
"90 546 OFFCURVE",
"90 620 OFFCURVE",
"142 677 OFFCURVE",
"226 677 OFFCURVE",
"278 620 OFFCURVE",
"278 546 OFFCURVE",
"252 517 QCURVE"
);
}
);
width = 672;
},
{
layerId = "77B00D75-0619-4FB7-8D17-EB9FCD2DF18B";
paths = (
{
closed = 1;
nodes = (
"610 727 LINE",
"595 740 LINE",
"50 17 LINE",
"63 1 LINE"
);
},
{
closed = 1;
nodes = (
"633 73 OFFCURVE",
"633 193 OFFCURVE",
"549 277 OFFCURVE",
"429 277 OFFCURVE",
"345 193 OFFCURVE",
"345 73 OFFCURVE",
"429 -11 OFFCURVE",
"549 -11 OFFCURVE",
"591 31 QCURVE"
);
},
{
closed = 1;
nodes = (
"433 8 OFFCURVE",
"364 83 OFFCURVE",
"364 182 OFFCURVE",
"433 258 OFFCURVE",
"545 258 OFFCURVE",
"614 182 OFFCURVE",
"614 83 OFFCURVE",
"545 8 OFFCURVE",
"489 8 QCURVE"
);
},
{
closed = 1;
nodes = (
"322 523 OFFCURVE",
"322 643 OFFCURVE",
"238 727 OFFCURVE",
"118 727 OFFCURVE",
"34 643 OFFCURVE",
"34 523 OFFCURVE",
"118 439 OFFCURVE",
"238 439 OFFCURVE",
"280 481 QCURVE"
);
},
{
closed = 1;
nodes = (
"234 459 OFFCURVE",
"122 459 OFFCURVE",
"54 534 OFFCURVE",
"54 632 OFFCURVE",
"122 707 OFFCURVE",
"234 707 OFFCURVE",
"302 632 OFFCURVE",
"302 534 OFFCURVE",
"268 496 QCURVE"
);
}
);
width = 664;
},
{
layerId = "8A94633D-DA21-409C-A8B7-00A83612E8B2";
paths = (
{
closed = 1;
nodes = (
"654 679 LINE",
"565 745 LINE",
"34 69 LINE",
"117 -1 LINE"
);
},
{
closed = 1;
nodes = (
"644 73 OFFCURVE",
"644 193 OFFCURVE",
"560 277 OFFCURVE",
"440 277 OFFCURVE",
"356 193 OFFCURVE",
"356 73 OFFCURVE",
"440 -11 OFFCURVE",
"560 -11 OFFCURVE",
"602 31 QCURVE"
);
},
{
closed = 1;
nodes = (
"516 99 OFFCURVE",
"484 99 OFFCURVE",
"466 119 OFFCURVE",
"466 147 OFFCURVE",
"484 167 OFFCURVE",
"516 167 OFFCURVE",
"534 147 OFFCURVE",
"534 119 OFFCURVE",
"525 109 QCURVE"
);
},
{
closed = 1;
nodes = (
"333 523 OFFCURVE",
"333 643 OFFCURVE",
"249 727 OFFCURVE",
"129 727 OFFCURVE",
"45 643 OFFCURVE",
"45 523 OFFCURVE",
"129 439 OFFCURVE",
"249 439 OFFCURVE",
"291 481 QCURVE"
);
},
{
closed = 1;
nodes = (
"154 596 OFFCURVE",
"174 618 OFFCURVE",
"204 618 OFFCURVE",
"224 596 OFFCURVE",
"224 583 QCURVE",
"224 569 OFFCURVE",
"204 548 OFFCURVE",
"174 548 OFFCURVE",
"154 569 OFFCURVE",
"154 583 QCURVE"
);
}
);
width = 685;
}
);
unicode = 0025;
},
{
glyphname = ampersand;
lastChange = "2018-08-09 15:11:50 +0000";
layers = (
{
layerId = "BADA37E3-C95E-4946-BA48-1F986F6D85A7";
paths = (
{
closed = 1;
nodes = (
"326 -11 OFFCURVE",
"384 87 QCURVE",
"391 51 OFFCURVE",
"444 0 OFFCURVE",
"482 -11 QCURVE",
"498 32 LINE",
"432 54 OFFCURVE",
"432 141 QCURVE",
"432 428 LINE",
"517 447 LINE",
"505 500 LINE",
"432 484 LINE",
"432 609 LINE",
"375 609 LINE",
"375 472 LINE",
"348 467 LINE",
"334 464 OFFCURVE",
"289 464 OFFCURVE",
"260 480 QCURVE",
"210 507 OFFCURVE",
"210 568 QCURVE",
"210 611 OFFCURVE",
"246 640 QCURVE",
"273 660 OFFCURVE",
"327 660 OFFCURVE",
"350 653 QCURVE",
"381 699 LINE",
"345 711 OFFCURVE",
"262 711 OFFCURVE",
"219 684 QCURVE",
"155 642 OFFCURVE",
"155 566 QCURVE",
"155 509 OFFCURVE",
"186 472 QCURVE",
"212 440 OFFCURVE",
"245 435 QCURVE",
"205 418 OFFCURVE",
"150 387 OFFCURVE",
"81 332 OFFCURVE",
"35 242 OFFCURVE",
"35 179 QCURVE",
"35 107 OFFCURVE",
"76 52 QCURVE",
"123 -11 OFFCURVE",
"213 -11 QCURVE"
);
},
{
closed = 1;
nodes = (
"375 150 OFFCURVE",
"288 43 OFFCURVE",
"154 43 OFFCURVE",
"90 123 OFFCURVE",
"90 233 OFFCURVE",
"114 274 QCURVE",
"135 308 OFFCURVE",
"162 330 QCURVE",
"229 383 OFFCURVE",
"375 416 QCURVE",
"375 219 LINE"
);
}
);
width = 548;
},
{
layerId = "77B00D75-0619-4FB7-8D17-EB9FCD2DF18B";
paths = (
{
closed = 1;
nodes = (
"275 -11 OFFCURVE",
"370 45 OFFCURVE",
"413 113 QCURVE",
"413 11 OFFCURVE",
"482 -11 QCURVE",
"488 7 LINE",
"432 26 OFFCURVE",
"432 122 QCURVE",
"432 464 LINE",
"509 481 LINE",
"505 500 LINE",
"432 484 LINE",
"432 609 LINE",
"413 609 LINE",
"413 480 LINE",
"319 458 LINE",
"301 454 OFFCURVE",
"255 454 OFFCURVE",
"228 466 QCURVE",
"187 487 OFFCURVE",
"177 549 QCURVE",
"175 560 OFFCURVE",
"175 570 QCURVE",
"175 628 OFFCURVE",
"228 665 QCURVE",
"267 692 OFFCURVE",
"341 692 OFFCURVE",
"371 682 QCURVE",
"381 699 LINE",
"344 710 OFFCURVE",
"311 710 QCURVE",
"228 710 OFFCURVE",
"185 654 QCURVE",
"155 615 OFFCURVE",
"155 511 OFFCURVE",
"187 474 QCURVE",
"214 443 OFFCURVE",
"252 438 QCURVE",
"211 420 OFFCURVE",
"154 389 OFFCURVE",
"83 333 OFFCURVE",
"35 242 OFFCURVE",
"35 179 QCURVE",
"35 107 OFFCURVE",
"76 52 QCURVE",
"123 -11 OFFCURVE",
"213 -11 QCURVE"
);
},
{
closed = 1;
nodes = (
"413 133 OFFCURVE",
"303 7 OFFCURVE",
"133 7 OFFCURVE",
"54 115 OFFCURVE",
"54 261 OFFCURVE",
"111 326 QCURVE",
"132 350 OFFCURVE",
"201 392 OFFCURVE",
"284 431 OFFCURVE",
"413 460 QCURVE",
"413 204 LINE"
);
}
);
width = 540;
},
{
layerId = "8A94633D-DA21-409C-A8B7-00A83612E8B2";
paths = (
{
closed = 1;
nodes = (
"265 -11 OFFCURVE",
"335 24 OFFCURVE",
"350 42 QCURVE",
"377 12 OFFCURVE",
"414 0 QCURVE",
"449 -11 OFFCURVE",
"477 -11 QCURVE",
"480 -11 OFFCURVE",
"482 -11 QCURVE",
"498 76 LINE",
"432 98 OFFCURVE",
"432 183 QCURVE",
"432 370 LINE",
"529 389 LINE",
"505 500 LINE",
"432 484 LINE",
"432 609 LINE",
"322 595 LINE",
"322 472 LINE",
"311 471 LINE",
"310 471 OFFCURVE",
"309 471 QCURVE",
"290 471 OFFCURVE",
"262 494 QCURVE",
"241 511 OFFCURVE",
"241 540 QCURVE",
"241 550 OFFCURVE",
"244 561 QCURVE",
"250 589 OFFCURVE",
"276 600 QCURVE",
"291 607 OFFCURVE",
"302 607 QCURVE",
"311 607 OFFCURVE",
"318 602 QCURVE",
"381 699 LINE",
"343 712 OFFCURVE",
"308 712 QCURVE",
"257 712 OFFCURVE",
"209 686 QCURVE",
"128 640 OFFCURVE",
"128 550 QCURVE",
"128 504 OFFCURVE",
"169 428 OFFCURVE",
"203 413 QCURVE",
"187 408 OFFCURVE",
"143 382 OFFCURVE",
"85 335 OFFCURVE",
"41 253 OFFCURVE",
"36 204 QCURVE",
"35 191 OFFCURVE",
"35 179 QCURVE",
"35 107 OFFCURVE",
"76 52 QCURVE",
"123 -11 OFFCURVE",
"213 -11 QCURVE"
);
},
{
closed = 1;
nodes = (
"179 101 OFFCURVE",
"157 133 QCURVE",
"141 156 OFFCURVE",
"141 186 QCURVE",
"141 197 OFFCURVE",
"143 209 QCURVE",
"160 305 OFFCURVE",
"322 345 QCURVE",
"322 223 LINE",
"322 176 OFFCURVE",
"272 101 OFFCURVE",
"224 101 QCURVE"
);
}
);
width = 560;
}
);
unicode = 0026;
},
{
glyphname = quotesingle;
lastChange = "2018-08-09 15:11:50 +0000";
layers = (
{
layerId = "BADA37E3-C95E-4946-BA48-1F986F6D85A7";
paths = (
{
closed = 1;
nodes = (
"100 589 LINE",
"114 700 LINE",
"114 722 OFFCURVE",
"97 731 QCURVE",
"80 736 LINE",
"72 736 OFFCURVE",
"63 731 QCURVE",
"46 722 OFFCURVE",
"46 700 QCURVE",
"60 589 LINE"
);
}
);
width = 172;
},
{
layerId = "77B00D75-0619-4FB7-8D17-EB9FCD2DF18B";
paths = (
{
closed = 1;
nodes = (
"68 589 LINE",
"75 713 LINE",
"75 727 OFFCURVE",
"64 735 OFFCURVE",
"56 735 OFFCURVE",
"46 727 OFFCURVE",
"46 713 QCURVE",
"52 589 LINE"
);
}
);
width = 164;
},
{
layerId = "8A94633D-DA21-409C-A8B7-00A83612E8B2";
paths = (
{
closed = 1;
nodes = (
"122 589 LINE",
"136 695 LINE",
"136 722 OFFCURVE",
"114 732 QCURVE",
"92 738 LINE",
"80 738 OFFCURVE",
"68 732 QCURVE",
"46 720 OFFCURVE",
"46 695 QCURVE",
"60 589 LINE"
);
}
);
width = 174;
}
);
unicode = 0027;
},
{
glyphname = parenleft;
lastChange = "2018-08-09 15:11:50 +0000";
layers = (
{
layerId = "BADA37E3-C95E-4946-BA48-1F986F6D85A7";
paths = (
{
closed = 1;
nodes = (
"201 -82 LINE",
"134 -32 OFFCURVE",
"134 62 QCURVE",
"134 636 LINE",
"134 730 OFFCURVE",
"201 780 QCURVE",
"183 817 LINE",
"126 784 OFFCURVE",
"78 705 OFFCURVE",
"78 627 QCURVE",
"78 71 LINE",
"78 -7 OFFCURVE",
"126 -86 OFFCURVE",
"183 -119 QCURVE"
);
}
);
width = 281;
},
{
layerId = "77B00D75-0619-4FB7-8D17-EB9FCD2DF18B";
paths = (
{
closed = 1;
nodes = (
"191 -101 LINE",
"172 -90 OFFCURVE",
"161 -83 OFFCURVE",
"144 -68 QCURVE",
"97 -26 OFFCURVE",
"97 65 QCURVE",
"97 636 LINE",
"97 674 OFFCURVE",
"105 703 QCURVE",
"121 762 OFFCURVE",
"190 800 QCURVE",
"183 817 LINE",
"126 784 OFFCURVE",
"78 705 OFFCURVE",
"78 627 QCURVE",
"78 71 LINE",
"78 -7 OFFCURVE",
"126 -86 OFFCURVE",
"183 -119 QCURVE"
);
}
);
width = 271;
},
{
layerId = "8A94633D-DA21-409C-A8B7-00A83612E8B2";
paths = (
{
closed = 1;
nodes = (
"253 -35 LINE",
"250 -33 OFFCURVE",
"230 -24 OFFCURVE",
"224 -20 OFFCURVE",
"209 -8 OFFCURVE",
"204 1 OFFCURVE",
"194 20 OFFCURVE",
"190 42 OFFCURVE",
"187 74 OFFCURVE",
"187 93 QCURVE",
"187 607 LINE",
"187 664 OFFCURVE",
"218 720 OFFCURVE",
"252 730 QCURVE",
"197 817 LINE",
"136 782 OFFCURVE",
"78 702 OFFCURVE",
"78 627 QCURVE",
"78 71 LINE",
"78 -4 OFFCURVE",
"135 -80 OFFCURVE",
"198 -116 QCURVE"
);
}
);
width = 333;
}
);
unicode = 0028;
},
{
glyphname = parenright;
lastChange = "2018-08-09 15:11:50 +0000";
layers = (
{
layerId = "BADA37E3-C95E-4946-BA48-1F986F6D85A7";
paths = (
{
closed = 1;
nodes = (
"153 -86 OFFCURVE",
"201 -7 OFFCURVE",
"201 71 QCURVE",
"201 627 LINE",
"201 705 OFFCURVE",
"153 784 OFFCURVE",
"96 817 QCURVE",
"78 780 LINE",
"145 730 OFFCURVE",
"145 636 QCURVE",
"145 62 LINE",
"145 -32 OFFCURVE",
"78 -82 QCURVE",
"96 -119 LINE"
);
}
);
width = 281;
},
{
layerId = "77B00D75-0619-4FB7-8D17-EB9FCD2DF18B";
paths = (
{
closed = 1;
nodes = (
"143 -86 OFFCURVE",
"191 -7 OFFCURVE",
"191 71 QCURVE",
"191 627 LINE",
"191 705 OFFCURVE",
"143 784 OFFCURVE",
"86 817 QCURVE",
"79 800 LINE",
"114 781 OFFCURVE",
"140 750 QCURVE",
"172 714 OFFCURVE",
"172 636 QCURVE",
"172 65 LINE",
"172 8 OFFCURVE",
"150 -38 QCURVE",
"143 -52 OFFCURVE",
"108 -83 OFFCURVE",
"97 -90 OFFCURVE",
"78 -101 QCURVE",
"86 -119 LINE"
);
}
);
width = 271;
},
{
layerId = "8A94633D-DA21-409C-A8B7-00A83612E8B2";
paths = (
{
closed = 1;
nodes = (
"196 -80 OFFCURVE",
"253 -4 OFFCURVE",
"253 71 QCURVE",
"253 627 LINE",
"253 702 OFFCURVE",
"195 782 OFFCURVE",
"134 817 QCURVE",
"79 730 LINE",
"113 720 OFFCURVE",
"144 664 OFFCURVE",
"144 607 QCURVE",
"144 93 LINE",
"144 74 OFFCURVE",
"141 42 OFFCURVE",
"137 20 OFFCURVE",
"127 1 OFFCURVE",
"122 -8 OFFCURVE",
"107 -20 OFFCURVE",
"101 -24 OFFCURVE",
"81 -33 OFFCURVE",
"78 -35 QCURVE",
"133 -116 LINE"
);
}
);
width = 333;
}
);
unicode = 0029;
},
{
glyphname = asterisk;
lastChange = "2018-08-09 15:11:50 +0000";
layers = (
{
layerId = "BADA37E3-C95E-4946-BA48-1F986F6D85A7";
paths = (
{
closed = 1;
nodes = (
"175 515 LINE",
"244 419 LINE",
"285 450 LINE",
"219 541 LINE",
"328 579 LINE",
"308 627 LINE",
"201 587 LINE",
"201 700 LINE",
"148 700 LINE",
"148 587 LINE",
"42 627 LINE",
"24 579 LINE",
"130 541 LINE",
"65 450 LINE",
"110 419 LINE"
);
}
);
width = 352;
},
{
layerId = "77B00D75-0619-4FB7-8D17-EB9FCD2DF18B";
paths = (
{
closed = 1;
nodes = (
"175 537 LINE",
"256 428 LINE",
"273 441 LINE",
"190 547 LINE",
"321 594 LINE",
"314 613 LINE",
"184 563 LINE",
"185 700 LINE",
"163 700 LINE",
"164 563 LINE",
"37 613 LINE",
"30 594 LINE",
"158 547 LINE",
"82 439 LINE",
"98 428 LINE"
);
}
);
width = 352;
},
{
layerId = "8A94633D-DA21-409C-A8B7-00A83612E8B2";
paths = (
{
closed = 1;
nodes = (
"175 515 LINE",
"212 396 LINE",
"314 465 LINE",
"219 540 LINE",
"340 550 LINE",
"295 656 LINE",
"201 587 LINE",
"235 700 LINE",
"115 700 LINE",
"148 587 LINE",
"52 654 LINE",
"13 551 LINE",
"130 541 LINE",
"38 467 LINE",
"136 396 LINE"
);
}
);
width = 352;
}
);
unicode = 002A;
},
{
glyphname = plus;
lastChange = "2018-08-09 15:11:50 +0000";
layers = (
{
layerId = "BADA37E3-C95E-4946-BA48-1F986F6D85A7";
paths = (
{
closed = 1;
nodes = (
"222 225 LINE",
"222 358 LINE",
"354 358 LINE",
"354 413 LINE",
"222 413 LINE",
"222 545 LINE",
"167 545 LINE",
"167 413 LINE",
"34 413 LINE",
"34 358 LINE",
"167 358 LINE",
"167 225 LINE"
);
}
);
width = 385;
},
{
layerId = "77B00D75-0619-4FB7-8D17-EB9FCD2DF18B";
paths = (
{
closed = 1;
nodes = (
"204 255 LINE",
"204 395 LINE",
"354 395 LINE",
"354 413 LINE",
"204 413 LINE",
"204 545 LINE",
"185 545 LINE",
"185 413 LINE",
"34 413 LINE",
"34 395 LINE",
"185 395 LINE",
"185 255 LINE"
);
}
);
width = 385;
},
{
layerId = "8A94633D-DA21-409C-A8B7-00A83612E8B2";
paths = (
{
closed = 1;
nodes = (
"250 195 LINE",
"250 308 LINE",
"354 308 LINE",
"354 413 LINE",
"250 413 LINE",
"250 545 LINE",
"138 545 LINE",
"138 413 LINE",
"34 413 LINE",
"34 308 LINE",
"138 308 LINE",
"138 195 LINE"
);
}
);
width = 385;
}
);
unicode = 002B;
},
{
glyphname = comma;
lastChange = "2018-08-09 15:11:50 +0000";
layers = (
{
layerId = "BADA37E3-C95E-4946-BA48-1F986F6D85A7";
paths = (
{
closed = 1;
nodes = (
"115 -31 OFFCURVE",
"115 27 QCURVE",
"115 42 OFFCURVE",
"94 65 OFFCURVE",
"80 66 OFFCURVE",
"66 66 OFFCURVE",
"47 49 OFFCURVE",
"46 13 OFFCURVE",
"64 0 QCURVE",
"74 -3 LINE",
"69 -10 LINE",
"56 -30 OFFCURVE",
"11 -56 QCURVE",
"51 -84 LINE"
);
}
);
width = 159;
},
{
layerId = "77B00D75-0619-4FB7-8D17-EB9FCD2DF18B";
paths = (
{
closed = 1;
nodes = (
"107 -34 OFFCURVE",
"107 14 QCURVE",
"107 29 OFFCURVE",
"77 29 OFFCURVE",
"77 2 OFFCURVE",
"90 -1 QCURVE",
"92 -1 LINE",
"89 -12 LINE",
"86 -23 OFFCURVE",
"55 -59 OFFCURVE",
"30 -73 QCURVE",
"46 -84 LINE"
);
}
);
width = 178;
},
{
layerId = "8A94633D-DA21-409C-A8B7-00A83612E8B2";
paths = (
{
closed = 1;
nodes = (
"106 -50 OFFCURVE",
"137 4 OFFCURVE",
"137 38 QCURVE",
"137 60 OFFCURVE",
"113 100 OFFCURVE",
"87 101 QCURVE",
"86 101 OFFCURVE",
"84 101 QCURVE",
"62 101 OFFCURVE",
"47 86 QCURVE",
"31 71 OFFCURVE",
"31 48 QCURVE",
"31 14 OFFCURVE",
"61 0 QCURVE",
"73 -3 LINE",
"66 -10 LINE",
"58 -17 OFFCURVE",
"22 -43 OFFCURVE",
"1 -55 QCURVE",
"70 -84 LINE"
);
}
);
width = 178;
}
);
unicode = 002C;
},
{
glyphname = hyphen;
lastChange = "2018-08-09 15:11:50 +0000";
layers = (
{
layerId = "BADA37E3-C95E-4946-BA48-1F986F6D85A7";
paths = (
{
closed = 1;
nodes = (
"365 358 LINE",
"365 413 LINE",
"45 413 LINE",
"45 358 LINE"
);
}
);
width = 410;
},
{
layerId = "77B00D75-0619-4FB7-8D17-EB9FCD2DF18B";
paths = (
{
closed = 1;
nodes = (
"365 394 LINE",
"365 413 LINE",
"45 413 LINE",
"45 394 LINE"
);
}
);
width = 410;
},
{
layerId = "8A94633D-DA21-409C-A8B7-00A83612E8B2";
paths = (
{
closed = 1;
nodes = (
"365 308 LINE",
"365 413 LINE",
"45 413 LINE",
"45 308 LINE"
);
}
);
width = 410;
}
);
unicode = 002D;
},
{
glyphname = period;
lastChange = "2018-08-09 15:11:50 +0000";
layers = (
{
layerId = "BADA37E3-C95E-4946-BA48-1F986F6D85A7";
paths = (
{
closed = 1;
nodes = (
"77 20 OFFCURVE",
"77 46 OFFCURVE",
"58 66 OFFCURVE",
"30 66 OFFCURVE",
"11 46 OFFCURVE",
"11 20 OFFCURVE",
"30 0 OFFCURVE",
"58 0 OFFCURVE",
"67 10 QCURVE"
);
}
);
width = 120;
},
{
layerId = "77B00D75-0619-4FB7-8D17-EB9FCD2DF18B";
paths = (
{
closed = 1;
nodes = (
"60 9 OFFCURVE",
"60 21 OFFCURVE",
"51 30 OFFCURVE",
"39 30 OFFCURVE",
"30 21 OFFCURVE",
"30 9 OFFCURVE",
"39 0 OFFCURVE",
"51 0 OFFCURVE",
"55 4 QCURVE"
);
}
);
width = 131;
},
{
layerId = "8A94633D-DA21-409C-A8B7-00A83612E8B2";
paths = (
{
closed = 1;
nodes = (
"72 0 OFFCURVE",
"102 30 OFFCURVE",
"102 50 QCURVE",
"102 71 OFFCURVE",
"72 101 OFFCURVE",
"51 101 QCURVE",
"31 101 OFFCURVE",
"1 71 OFFCURVE",
"1 50 QCURVE",
"1 30 OFFCURVE",
"31 0 OFFCURVE",
"51 0 QCURVE"
);
}
);
width = 143;
}
);
unicode = 002E;
},
{
glyphname = slash;
lastChange = "2018-08-09 15:11:51 +0000";
layers = (
{
layerId = "BADA37E3-C95E-4946-BA48-1F986F6D85A7";
paths = (
{
closed = 1;
nodes = (
"85 -114 LINE",
"405 817 LINE",
"348 817 LINE",
"24 -114 LINE"
);
}
);
width = 429;
},
{
layerId = "77B00D75-0619-4FB7-8D17-EB9FCD2DF18B";
paths = (
{
closed = 1;
nodes = (
"50 -114 LINE",
"374 817 LINE",
"354 817 LINE",
"30 -114 LINE"
);
}
);
width = 405;
},
{
layerId = "8A94633D-DA21-409C-A8B7-00A83612E8B2";
paths = (
{
closed = 1;
nodes = (
"130 -114 LINE",
"457 817 LINE",
"337 817 LINE",
"13 -114 LINE"
);
}
);
width = 469;
}
);
unicode = 002F;
},
{
glyphname = zero;
lastChange = "2018-08-09 15:11:51 +0000";
layers = (
{
layerId = "BADA37E3-C95E-4946-BA48-1F986F6D85A7";
paths = (
{
closed = 1;
nodes = (
"63 84 OFFCURVE",
"188 -11 OFFCURVE",
"360 -11 OFFCURVE",
"483 84 OFFCURVE",
"483 185 QCURVE",
"483 506 LINE",
"483 604 OFFCURVE",
"374 716 OFFCURVE",
"176 716 OFFCURVE",
"63 610 OFFCURVE",
"63 507 QCURVE",
"63 185 LINE"
);
},
{
closed = 1;
nodes = (
"119 516 LINE",
"119 589 OFFCURVE",
"203 663 OFFCURVE",
"343 663 OFFCURVE",
"428 589 OFFCURVE",
"428 516 QCURVE",
"428 187 LINE",
"428 113 OFFCURVE",
"341 42 OFFCURVE",
"206 42 OFFCURVE",
"119 115 OFFCURVE",
"119 186 QCURVE"
);
}
);
width = 549;
},
{
layerId = "77B00D75-0619-4FB7-8D17-EB9FCD2DF18B";
paths = (
{
closed = 1;
nodes = (
"63 84 OFFCURVE",
"188 -11 OFFCURVE",
"360 -11 OFFCURVE",
"483 84 OFFCURVE",
"483 185 QCURVE",
"483 506 LINE",
"483 604 OFFCURVE",
"374 716 OFFCURVE",
"176 716 OFFCURVE",
"63 610 OFFCURVE",
"63 507 QCURVE",
"63 185 LINE"
);
},
{
closed = 1;
nodes = (
"82 508 LINE",
"82 594 OFFCURVE",
"178 695 OFFCURVE",
"368 695 OFFCURVE",
"464 596 OFFCURVE",
"464 510 QCURVE",
"464 184 LINE",
"464 92 OFFCURVE",
"354 8 OFFCURVE",
"194 8 OFFCURVE",
"82 97 OFFCURVE",
"82 184 QCURVE"
);
}
);
width = 549;
},
{
layerId = "8A94633D-DA21-409C-A8B7-00A83612E8B2";
paths = (
{
closed = 1;
nodes = (
"63 84 OFFCURVE",
"188 -11 OFFCURVE",
"360 -11 OFFCURVE",
"483 84 OFFCURVE",
"483 185 QCURVE",
"483 506 LINE",
"483 604 OFFCURVE",
"374 716 OFFCURVE",
"176 716 OFFCURVE",
"63 610 OFFCURVE",
"63 507 QCURVE",
"63 185 LINE"
);
},
{
closed = 1;
nodes = (
"222 101 OFFCURVE",
"173 156 OFFCURVE",
"173 204 QCURVE",
"173 471 LINE",
"173 536 OFFCURVE",
"212 597 OFFCURVE",
"334 597 OFFCURVE",
"373 534 OFFCURVE",
"373 470 QCURVE",
"373 206 LINE",
"373 159 OFFCURVE",
"320 101 OFFCURVE",
"273 101 QCURVE"
);
}
);
width = 549;
}
);
unicode = 0030;
},
{
glyphname = one;
lastChange = "2018-08-09 15:11:51 +0000";
layers = (
{
layerId = "BADA37E3-C95E-4946-BA48-1F986F6D85A7";
paths = (
{
closed = 1;
nodes = (
"185 0 LINE",
"185 700 LINE",
"129 700 LINE",
"109 675 OFFCURVE",
"46 641 OFFCURVE",
"24 641 QCURVE",
"37 588 LINE",
"52 592 LINE",
"67 596 OFFCURVE",
"113 619 OFFCURVE",
"129 634 QCURVE",
"129 0 LINE"
);
}
);
width = 209;
},
{
layerId = "77B00D75-0619-4FB7-8D17-EB9FCD2DF18B";
paths = (
{
closed = 1;
nodes = (
"182 0 LINE",
"182 700 LINE",
"163 700 LINE",
"143 666 OFFCURVE",
"72 619 OFFCURVE",
"40 611 OFFCURVE",
"30 609 QCURVE",
"35 591 LINE",
"55 595 LINE",
"75 599 OFFCURVE",
"139 634 OFFCURVE",
"163 662 QCURVE",
"163 0 LINE"
);
}
);
width = 213;
},
{
layerId = "8A94633D-DA21-409C-A8B7-00A83612E8B2";
paths = (
{
closed = 1;
nodes = (
"237 0 LINE",
"237 700 LINE",
"127 700 LINE",
"105 672 OFFCURVE",
"45 635 OFFCURVE",
"20 629 OFFCURVE",
"13 628 QCURVE",
"45 532 LINE",
"60 534 LINE",
"75 535 OFFCURVE",
"116 542 OFFCURVE",
"127 547 QCURVE",
"126 0 LINE"
);
}
);
width = 249;
}
);
unicode = 0031;
},
{
glyphname = two;
lastChange = "2018-08-09 15:11:51 +0000";
layers = (
{
layerId = "BADA37E3-C95E-4946-BA48-1F986F6D85A7";
paths = (
{
closed = 1;
nodes = (
"375 0 LINE",
"375 52 LINE",
"89 52 LINE",
"329 413 LINE",
"373 487 OFFCURVE",
"373 622 OFFCURVE",
"320 668 QCURVE",
"272 710 OFFCURVE",
"139 710 OFFCURVE",
"56 643 OFFCURVE",
"37 590 QCURVE",
"89 570 LINE",
"103 609 OFFCURVE",
"163 657 OFFCURVE",
"243 657 OFFCURVE",
"314 597 OFFCURVE",
"314 541 QCURVE",
"314 496 OFFCURVE",
"278 438 QCURVE",
"24 53 LINE",
"24 0 LINE"
);
}
);
width = 399;
},
{
layerId = "77B00D75-0619-4FB7-8D17-EB9FCD2DF18B";
paths = (
{
closed = 1;
nodes = (
"381 0 LINE",
"381 20 LINE",
"53 20 LINE",
"335 413 LINE",
"382 484 OFFCURVE",
"382 618 OFFCURVE",
"330 667 QCURVE",
"283 710 OFFCURVE",
"221 710 QCURVE",
"85 710 OFFCURVE",
"43 590 QCURVE",
"61 583 LINE",
"75 629 OFFCURVE",
"151 691 OFFCURVE",
"279 691 OFFCURVE",
"363 607 OFFCURVE",
"363 488 OFFCURVE",
"321 424 QCURVE",
"30 20 LINE",
"30 0 LINE"
);
}
);
width = 413;
},
{
layerId = "8A94633D-DA21-409C-A8B7-00A83612E8B2";
paths = (
{
closed = 1;
nodes = (
"388 0 LINE",
"388 101 LINE",
"141 101 LINE",
"340 402 LINE",
"377 458 OFFCURVE",
"383 514 QCURVE",
"384 528 OFFCURVE",
"384 540 QCURVE",
"384 581 OFFCURVE",
"369 614 QCURVE",
"349 656 OFFCURVE",
"263 710 OFFCURVE",
"207 710 QCURVE",
"144 710 OFFCURVE",
"48 641 OFFCURVE",
"30 590 QCURVE",
"127 538 LINE",
"129 563 OFFCURVE",
"171 602 OFFCURVE",
"198 602 QCURVE",
"254 602 OFFCURVE",
"272 557 QCURVE",
"276 545 OFFCURVE",
"276 530 QCURVE",
"276 492 OFFCURVE",
"243 438 QCURVE",
"13 101 LINE",
"13 0 LINE"
);
}
);
width = 400;
}
);
unicode = 0032;
},
{
glyphname = three;
lastChange = "2018-08-09 15:11:51 +0000";
layers = (
{
layerId = "BADA37E3-C95E-4946-BA48-1F986F6D85A7";
paths = (
{
closed = 1;
nodes = (
"290 -12 OFFCURVE",
"414 112 OFFCURVE",
"414 289 OFFCURVE",
"290 413 OFFCURVE",
"201 413 QCURVE",
"199 413 LINE",
"358 651 LINE",
"358 700 LINE",
"71 700 LINE",
"71 645 LINE",
"290 645 LINE",
"97 358 LINE",
"207 358 LINE",
"270 355 OFFCURVE",
"358 264 OFFCURVE",
"358 136 OFFCURVE",
"266 44 OFFCURVE",
"201 44 QCURVE",
"117 44 OFFCURVE",
"71 113 QCURVE",
"24 83 LINE",
"53 39 OFFCURVE",
"147 -12 OFFCURVE",
"201 -12 QCURVE"
);
}
);
width = 438;
},
{
layerId = "77B00D75-0619-4FB7-8D17-EB9FCD2DF18B";
paths = (
{
closed = 1;
nodes = (
"296 -12 OFFCURVE",
"420 112 OFFCURVE",
"420 289 OFFCURVE",
"296 413 OFFCURVE",
"207 413 QCURVE",
"164 413 LINE",
"364 680 LINE",
"364 700 LINE",
"77 700 LINE",
"77 680 LINE",
"340 680 LINE",
"127 394 LINE",
"213 394 LINE",
"284 391 OFFCURVE",
"401 288 OFFCURVE",
"401 127 OFFCURVE",
"296 7 OFFCURVE",
"107 7 OFFCURVE",
"48 94 QCURVE",
"30 83 LINE",
"59 39 OFFCURVE",
"153 -12 OFFCURVE",
"207 -12 QCURVE"
);
}
);
width = 451;
},
{
layerId = "8A94633D-DA21-409C-A8B7-00A83612E8B2";
paths = (
{
closed = 1;
nodes = (
"278 -12 OFFCURVE",
"403 112 OFFCURVE",
"403 201 QCURVE",
"403 284 OFFCURVE",
"300 398 OFFCURVE",
"232 412 QCURVE",
"227 413 LINE",
"344 590 LINE",
"344 700 LINE",
"56 700 LINE",
"56 590 LINE",
"226 590 LINE",
"38 308 LINE",
"148 308 LINE",
"293 301 OFFCURVE",
"293 201 QCURVE",
"293 157 OFFCURVE",
"238 95 OFFCURVE",
"188 95 QCURVE",
"155 95 OFFCURVE",
"95 132 OFFCURVE",
"81 161 QCURVE",
"13 83 LINE",
"42 39 OFFCURVE",
"136 -12 OFFCURVE",
"190 -12 QCURVE"
);
}
);
width = 415;
}
);
unicode = 0033;
},
{
glyphname = four;
lastChange = "2018-08-09 15:11:51 +0000";
layers = (
{
layerId = "BADA37E3-C95E-4946-BA48-1F986F6D85A7";
paths = (
{
closed = 1;
nodes = (
"396 0 LINE",
"396 358 LINE",
"450 358 LINE",
"469 413 LINE",
"396 413 LINE",
"396 700 LINE",
"340 700 LINE",
"340 413 LINE",
"120 413 LINE",
"276 700 LINE",
"218 700 LINE",
"24 358 LINE",
"340 358 LINE",
"340 0 LINE"
);
}
);
width = 493;
},
{
layerId = "77B00D75-0619-4FB7-8D17-EB9FCD2DF18B";
paths = (
{
closed = 1;
nodes = (
"380 0 LINE",
"380 394 LINE",
"447 394 LINE",
"453 413 LINE",
"380 413 LINE",
"380 700 LINE",
"361 700 LINE",
"361 413 LINE",
"63 413 LINE",
"222 700 LINE",
"202 700 LINE",
"30 394 LINE",
"360 394 LINE",
"361 0 LINE"
);
}
);
width = 484;
},
{
layerId = "8A94633D-DA21-409C-A8B7-00A83612E8B2";
paths = (
{
closed = 1;
nodes = (
"437 0 LINE",
"437 308 LINE",
"487 308 LINE",
"506 413 LINE",
"437 413 LINE",
"437 700 LINE",
"328 700 LINE",
"328 413 LINE",
"191 413 LINE",
"318 700 LINE",
"206 700 LINE",
"13 308 LINE",
"328 308 LINE",
"328 0 LINE"
);
}
);
width = 518;
}
);
unicode = 0034;
},
{
glyphname = five;
lastChange = "2018-08-09 15:11:51 +0000";
layers = (
{
layerId = "BADA37E3-C95E-4946-BA48-1F986F6D85A7";
paths = (
{
closed = 1;
nodes = (
"290 -12 OFFCURVE",
"414 112 OFFCURVE",
"414 289 OFFCURVE",
"290 413 OFFCURVE",
"201 413 QCURVE",
"118 413 LINE",
"142 645 LINE",
"358 645 LINE",
"358 700 LINE",
"93 700 LINE",
"57 358 LINE",
"201 358 LINE",
"266 358 OFFCURVE",
"358 266 OFFCURVE",
"358 136 OFFCURVE",
"266 44 OFFCURVE",
"201 44 QCURVE",
"117 44 OFFCURVE",
"71 113 QCURVE",
"24 83 LINE",
"53 39 OFFCURVE",
"147 -12 OFFCURVE",
"201 -12 QCURVE"
);
}
);
width = 438;
},
{
layerId = "77B00D75-0619-4FB7-8D17-EB9FCD2DF18B";
paths = (
{
closed = 1;
nodes = (
"296 -12 OFFCURVE",
"420 112 OFFCURVE",
"420 289 OFFCURVE",
"296 413 OFFCURVE",
"207 413 QCURVE",
"88 413 LINE",
"117 680 LINE",
"364 680 LINE",
"364 700 LINE",
"99 700 LINE",
"67 394 LINE",
"209 394 LINE",
"294 394 OFFCURVE",
"401 277 OFFCURVE",
"401 124 OFFCURVE",
"292 7 OFFCURVE",
"207 7 QCURVE",
"159 7 OFFCURVE",
"69 54 OFFCURVE",
"46 93 QCURVE",
"30 83 LINE",
"59 39 OFFCURVE",
"153 -12 OFFCURVE",
"207 -12 QCURVE"
);
}
);
width = 451;
},
{
layerId = "8A94633D-DA21-409C-A8B7-00A83612E8B2";
paths = (
{
closed = 1;
nodes = (
"278 -12 OFFCURVE",
"403 112 OFFCURVE",
"403 201 QCURVE",
"403 289 OFFCURVE",
"279 413 OFFCURVE",
"190 413 QCURVE",
"165 413 LINE",
"184 589 LINE",
"347 589 LINE",
"347 700 LINE",
"81 700 LINE",
"38 308 LINE",
"149 308 LINE",
"215 308 OFFCURVE",
"293 251 OFFCURVE",
"293 201 QCURVE",
"293 157 OFFCURVE",
"244 97 OFFCURVE",
"190 97 QCURVE",
"153 97 OFFCURVE",
"106 128 OFFCURVE",
"81 162 QCURVE",
"13 83 LINE",
"42 39 OFFCURVE",
"136 -12 OFFCURVE",
"190 -12 QCURVE"
);
}
);
width = 415;
}
);
unicode = 0035;
},
{
glyphname = six;
lastChange = "2018-08-09 15:11:51 +0000";
layers = (
{
layerId = "BADA37E3-C95E-4946-BA48-1F986F6D85A7";
paths = (
{
closed = 1;
nodes = (
"24 112 OFFCURVE",
"148 -12 OFFCURVE",
"324 -12 OFFCURVE",
"449 112 OFFCURVE",
"449 289 OFFCURVE",
"325 413 OFFCURVE",
"236 413 QCURVE",
"185 413 OFFCURVE",
"100 370 OFFCURVE",
"79 332 QCURVE",
"79 454 LINE",
"79 548 OFFCURVE",
"189 645 OFFCURVE",
"264 645 QCURVE",
"303 645 LINE",
"303 700 LINE",
"268 700 LINE",
"201 700 OFFCURVE",
"101 653 OFFCURVE",
"74 616 QCURVE",
"24 544 OFFCURVE",
"24 461 QCURVE",
"24 201 LINE"
);
},
{
closed = 1;
nodes = (
"79 207 LINE",
"81 271 OFFCURVE",
"172 358 OFFCURVE",
"302 358 OFFCURVE",
"394 267 OFFCURVE",
"394 135 OFFCURVE",
"302 43 OFFCURVE",
"170 43 OFFCURVE",
"79 135 OFFCURVE",
"79 201 QCURVE"
);
}
);
width = 473;
},
{
layerId = "77B00D75-0619-4FB7-8D17-EB9FCD2DF18B";
paths = (
{
closed = 1;
nodes = (
"30 112 OFFCURVE",
"154 -12 OFFCURVE",
"330 -12 OFFCURVE",
"455 112 OFFCURVE",
"455 289 OFFCURVE",
"331 413 OFFCURVE",
"242 413 QCURVE",
"184 413 OFFCURVE",
"79 354 OFFCURVE",
"49 287 QCURVE",
"49 449 LINE",
"49 513 OFFCURVE",
"89 607 OFFCURVE",
"122 632 QCURVE",
"187 680 OFFCURVE",
"270 680 QCURVE",
"309 680 LINE",
"309 700 LINE",
"274 700 LINE",
"207 700 OFFCURVE",
"107 653 OFFCURVE",
"80 616 QCURVE",
"30 544 OFFCURVE",
"30 461 QCURVE",
"30 201 LINE"
);
},
{
closed = 1;
nodes = (
"49 209 LINE",
"52 287 OFFCURVE",
"163 394 OFFCURVE",
"323 394 OFFCURVE",
"436 282 OFFCURVE",
"436 120 OFFCURVE",
"323 7 OFFCURVE",
"161 7 OFFCURVE",
"49 120 OFFCURVE",
"49 201 QCURVE"
);
}
);
width = 486;
},
{
layerId = "8A94633D-DA21-409C-A8B7-00A83612E8B2";
paths = (
{
closed = 1;
nodes = (
"314 -12 OFFCURVE",
"438 112 OFFCURVE",
"438 201 QCURVE",
"438 289 OFFCURVE",
"314 413 OFFCURVE",
"225 413 QCURVE",
"203 413 OFFCURVE",
"141 397 OFFCURVE",
"124 387 QCURVE",
"124 440 LINE",
"124 488 OFFCURVE",
"148 552 OFFCURVE",
"193 580 OFFCURVE",
"236 590 OFFCURVE",
"266 590 QCURVE",
"292 590 LINE",
"292 700 LINE",
"257 700 LINE",
"190 700 OFFCURVE",
"90 653 OFFCURVE",
"37 578 OFFCURVE",
"13 501 OFFCURVE",
"13 461 QCURVE",
"13 201 LINE",
"13 112 OFFCURVE",
"137 -12 OFFCURVE",
"225 -12 QCURVE"
);
},
{
closed = 1;
nodes = (
"122 205 LINE",
"122 246 OFFCURVE",
"183 303 OFFCURVE",
"225 303 QCURVE",
"268 303 OFFCURVE",
"328 244 OFFCURVE",
"328 158 OFFCURVE",
"268 97 OFFCURVE",
"182 97 OFFCURVE",
"122 158 OFFCURVE",
"122 201 QCURVE"
);
}
);
width = 450;
}
);
unicode = 0036;
},
{
glyphname = seven;
lastChange = "2018-08-09 15:11:51 +0000";
layers = (
{
layerId = "BADA37E3-C95E-4946-BA48-1F986F6D85A7";
paths = (
{
closed = 1;
nodes = (
"99 0 LINE",
"418 645 LINE",
"418 700 LINE",
"24 700 LINE",
"24 645 LINE",
"354 645 LINE",
"37 0 LINE"
);
}
);
width = 442;
},
{
layerId = "77B00D75-0619-4FB7-8D17-EB9FCD2DF18B";
paths = (
{
closed = 1;
nodes = (
"64 0 LINE",
"424 680 LINE",
"424 700 LINE",
"30 700 LINE",
"30 680 LINE",
"401 680 LINE",
"43 0 LINE"
);
}
);
width = 455;
},
{
layerId = "8A94633D-DA21-409C-A8B7-00A83612E8B2";
paths = (
{
closed = 1;
nodes = (
"134 0 LINE",
"426 590 LINE",
"426 700 LINE",
"32 700 LINE",
"32 590 LINE",
"303 590 LINE",
"13 0 LINE"
);
}
);
width = 438;
}
);
unicode = 0037;
},
{
glyphname = eight;
lastChange = "2018-08-09 15:11:51 +0000";
layers = (
{
layerId = "BADA37E3-C95E-4946-BA48-1F986F6D85A7";
paths = (
{
closed = 1;
nodes = (
"24 112 OFFCURVE",
"148 -12 OFFCURVE",
"326 -12 OFFCURVE",
"450 112 OFFCURVE",
"450 201 QCURVE",
"450 261 OFFCURVE",
"388 360 OFFCURVE",
"337 388 QCURVE",
"414 439 OFFCURVE",
"414 533 QCURVE",
"414 606 OFFCURVE",
"312 709 OFFCURVE",
"165 709 OFFCURVE",
"63 606 OFFCURVE",
"63 533 QCURVE",
"63 440 OFFCURVE",
"138 389 QCURVE",
"86 362 OFFCURVE",
"24 262 OFFCURVE",
"24 201 QCURVE"
);
},
{
closed = 1;
nodes = (
"302 355 OFFCURVE",
"394 265 OFFCURVE",
"394 136 OFFCURVE",
"302 44 OFFCURVE",
"172 44 OFFCURVE",
"80 136 OFFCURVE",
"80 265 OFFCURVE",
"167 355 OFFCURVE",
"230 358 QCURVE"
);
},
{
closed = 1;
nodes = (
"183 415 OFFCURVE",
"115 484 OFFCURVE",
"115 584 OFFCURVE",
"187 656 OFFCURVE",
"288 656 OFFCURVE",
"360 584 OFFCURVE",
"360 483 OFFCURVE",
"287 413 OFFCURVE",
"233 413 QCURVE"
);
}
);
width = 474;
},
{
layerId = "77B00D75-0619-4FB7-8D17-EB9FCD2DF18B";
paths = (
{
closed = 1;
nodes = (
"30 104 OFFCURVE",
"149 -12 OFFCURVE",
"327 -12 OFFCURVE",
"444 104 OFFCURVE",
"444 192 QCURVE",
"444 254 OFFCURVE",
"361 368 OFFCURVE",
"293 386 QCURVE",
"347 404 OFFCURVE",
"406 489 OFFCURVE",
"406 537 QCURVE",
"406 611 OFFCURVE",
"311 709 OFFCURVE",
"166 709 OFFCURVE",
"71 611 OFFCURVE",
"71 537 QCURVE",
"71 490 OFFCURVE",
"132 402 OFFCURVE",
"180 386 QCURVE",
"110 366 OFFCURVE",
"30 256 OFFCURVE",
"30 192 QCURVE"
);
},
{
closed = 1;
nodes = (
"157 7 OFFCURVE",
"49 112 OFFCURVE",
"49 270 OFFCURVE",
"159 375 OFFCURVE",
"313 375 OFFCURVE",
"425 269 OFFCURVE",
"425 112 OFFCURVE",
"318 7 OFFCURVE",
"237 7 QCURVE"
);
},
{
closed = 1;
nodes = (
"181 392 OFFCURVE",
"90 476 OFFCURVE",
"90 603 OFFCURVE",
"174 690 OFFCURVE",
"303 690 OFFCURVE",
"387 603 OFFCURVE",
"387 475 OFFCURVE",
"297 392 OFFCURVE",
"239 392 QCURVE"
);
}
);
width = 475;
},
{
layerId = "8A94633D-DA21-409C-A8B7-00A83612E8B2";
paths = (
{
closed = 1;
nodes = (
"13 112 OFFCURVE",
"138 -12 OFFCURVE",
"314 -12 OFFCURVE",
"439 112 OFFCURVE",
"439 201 QCURVE",
"439 261 OFFCURVE",
"377 360 OFFCURVE",
"326 388 QCURVE",
"403 439 OFFCURVE",
"403 533 QCURVE",
"403 606 OFFCURVE",
"300 709 OFFCURVE",
"154 709 OFFCURVE",
"52 606 OFFCURVE",
"52 533 QCURVE",
"52 440 OFFCURVE",
"127 389 QCURVE",
"75 362 OFFCURVE",
"13 262 OFFCURVE",
"13 201 QCURVE"
);
},
{
closed = 1;
nodes = (
"329 158 OFFCURVE",
"270 98 OFFCURVE",
"182 98 OFFCURVE",
"123 158 OFFCURVE",
"123 244 OFFCURVE",
"182 306 OFFCURVE",
"224 306 QCURVE",
"271 306 OFFCURVE",
"329 245 OFFCURVE",
"329 201 QCURVE"
);
},
{
closed = 1;
nodes = (
"197 468 OFFCURVE",
"159 507 OFFCURVE",
"159 533 QCURVE",
"159 561 OFFCURVE",
"199 601 OFFCURVE",
"227 601 QCURVE",
"254 601 OFFCURVE",
"293 561 OFFCURVE",
"293 533 QCURVE",
"293 506 OFFCURVE",
"253 468 OFFCURVE",
"224 468 QCURVE"
);
}
);
width = 451;
}
);
unicode = 0038;
},
{
glyphname = nine;
lastChange = "2018-08-09 15:11:51 +0000";
layers = (
{
layerId = "BADA37E3-C95E-4946-BA48-1F986F6D85A7";
paths = (
{
closed = 1;
nodes = (
"205 0 LINE",
"272 0 OFFCURVE",
"372 47 OFFCURVE",
"398 84 QCURVE",
"449 156 OFFCURVE",
"449 239 QCURVE",
"449 497 LINE",
"449 586 OFFCURVE",
"325 710 OFFCURVE",
"148 710 OFFCURVE",
"24 586 OFFCURVE",
"24 409 OFFCURVE",
"148 285 OFFCURVE",
"331 285 OFFCURVE",
"394 353 QCURVE",
"394 246 LINE",
"394 152 OFFCURVE",
"284 55 OFFCURVE",
"209 55 QCURVE",
"170 55 LINE",
"170 0 LINE"
);
},
{
closed = 1;
nodes = (
"79 431 OFFCURVE",
"79 563 OFFCURVE",
"171 655 OFFCURVE",
"302 655 OFFCURVE",
"394 566 OFFCURVE",
"394 431 OFFCURVE",
"303 340 OFFCURVE",
"171 340 OFFCURVE",
"125 385 QCURVE"
);
}
);
width = 473;
},
{
layerId = "77B00D75-0619-4FB7-8D17-EB9FCD2DF18B";
paths = (
{
closed = 1;
nodes = (
"211 0 LINE",
"278 0 OFFCURVE",
"378 46 OFFCURVE",
"404 83 QCURVE",
"455 154 OFFCURVE",
"455 236 QCURVE",
"455 496 LINE",
"455 585 OFFCURVE",
"331 709 OFFCURVE",
"154 709 OFFCURVE",
"30 584 OFFCURVE",
"30 408 OFFCURVE",
"154 284 OFFCURVE",
"243 284 QCURVE",
"301 284 OFFCURVE",
"406 343 OFFCURVE",
"436 410 QCURVE",
"436 248 LINE",
"436 184 OFFCURVE",
"396 91 OFFCURVE",
"362 66 QCURVE",
"299 20 OFFCURVE",
"215 20 QCURVE",
"176 20 LINE",
"176 0 LINE"
);
},
{
closed = 1;
nodes = (
"433 410 OFFCURVE",
"322 303 OFFCURVE",
"162 303 OFFCURVE",
"49 415 OFFCURVE",
"49 577 OFFCURVE",
"162 690 OFFCURVE",
"324 690 OFFCURVE",
"436 577 OFFCURVE",
"436 496 QCURVE",
"436 488 LINE"
);
}
);
width = 486;
},
{
layerId = "8A94633D-DA21-409C-A8B7-00A83612E8B2";
paths = (
{
closed = 1;
nodes = (
"194 0 LINE",
"261 0 OFFCURVE",
"361 47 OFFCURVE",
"414 122 OFFCURVE",
"438 199 OFFCURVE",
"438 239 QCURVE",
"438 497 LINE",
"438 586 OFFCURVE",
"314 710 OFFCURVE",
"138 710 OFFCURVE",
"13 586 OFFCURVE",
"13 497 QCURVE",
"13 409 OFFCURVE",
"137 285 OFFCURVE",
"226 285 QCURVE",
"239 285 OFFCURVE",
"261 287 OFFCURVE",
"280 291 OFFCURVE",
"291 294 OFFCURVE",
"307 302 OFFCURVE",
"312 305 OFFCURVE",
"328 316 OFFCURVE",
"329 316 QCURVE",
"329 263 LINE",
"329 190 OFFCURVE",
"262 101 OFFCURVE",
"198 101 QCURVE",
"159 101 LINE",
"159 0 LINE"
);
},
{
closed = 1;
nodes = (
"329 456 OFFCURVE",
"268 395 OFFCURVE",
"184 395 OFFCURVE",
"123 455 OFFCURVE",
"123 539 OFFCURVE",
"184 601 OFFCURVE",
"226 601 QCURVE",
"267 601 OFFCURVE",
"329 541 OFFCURVE",
"329 501 QCURVE"
);
}
);
width = 450;
}
);
unicode = 0039;
},
{
glyphname = colon;
lastChange = "2018-08-09 15:11:51 +0000";
layers = (
{
layerId = "BADA37E3-C95E-4946-BA48-1F986F6D85A7";
paths = (
{
closed = 1;
nodes = (
"90 372 OFFCURVE",
"90 398 OFFCURVE",
"70 418 OFFCURVE",
"44 418 OFFCURVE",
"24 398 OFFCURVE",
"24 372 OFFCURVE",
"44 352 OFFCURVE",
"70 352 OFFCURVE",
"80 362 QCURVE"
);
},
{
closed = 1;
nodes = (
"90 130 OFFCURVE",
"90 158 OFFCURVE",
"70 177 OFFCURVE",
"44 177 OFFCURVE",
"24 158 OFFCURVE",
"24 130 OFFCURVE",
"44 111 OFFCURVE",
"70 111 OFFCURVE",
"80 120 QCURVE"
);
}
);
width = 114;
},
{
layerId = "77B00D75-0619-4FB7-8D17-EB9FCD2DF18B";
paths = (
{
closed = 1;
nodes = (
"60 397 OFFCURVE",
"60 409 OFFCURVE",
"51 418 OFFCURVE",
"39 418 OFFCURVE",
"30 409 OFFCURVE",
"30 397 OFFCURVE",
"39 388 OFFCURVE",
"51 388 OFFCURVE",
"55 392 QCURVE"
);
},
{
closed = 1;
nodes = (
"60 119 OFFCURVE",
"60 131 OFFCURVE",
"51 140 OFFCURVE",
"39 140 OFFCURVE",
"30 131 OFFCURVE",
"30 119 OFFCURVE",
"39 110 OFFCURVE",
"51 110 OFFCURVE",
"55 114 QCURVE"
);
}
);
width = 91;
},
{
layerId = "8A94633D-DA21-409C-A8B7-00A83612E8B2";
paths = (
{
closed = 1;
nodes = (
"91 110 OFFCURVE",
"124 142 OFFCURVE",
"124 188 OFFCURVE",
"91 221 OFFCURVE",
"45 221 OFFCURVE",
"13 188 OFFCURVE",
"13 142 OFFCURVE",
"46 110 OFFCURVE",
"68 110 QCURVE"
);
},
{
closed = 1;
nodes = (
"123 342 OFFCURVE",
"123 386 OFFCURVE",
"91 418 OFFCURVE",
"47 418 OFFCURVE",
"15 386 OFFCURVE",
"15 342 OFFCURVE",
"47 310 OFFCURVE",
"91 310 OFFCURVE",
"107 326 QCURVE"
);
}
);
width = 136;
}
);
unicode = 003A;
},
{
glyphname = semicolon;
lastChange = "2018-08-09 15:11:51 +0000";
layers = (
{
layerId = "BADA37E3-C95E-4946-BA48-1F986F6D85A7";
paths = (
{
closed = 1;
nodes = (
"128 -31 OFFCURVE",
"128 27 QCURVE",
"128 42 OFFCURVE",
"107 65 OFFCURVE",
"93 66 OFFCURVE",
"79 66 OFFCURVE",
"60 49 OFFCURVE",
"59 13 OFFCURVE",
"77 0 QCURVE",
"87 -3 LINE",
"82 -10 LINE",
"69 -30 OFFCURVE",
"24 -56 QCURVE",
"64 -84 LINE"
);
},
{
closed = 1;
nodes = (
"127 260 OFFCURVE",
"127 288 OFFCURVE",
"108 307 OFFCURVE",
"80 307 OFFCURVE",
"61 288 OFFCURVE",
"61 260 OFFCURVE",
"80 241 OFFCURVE",
"108 241 OFFCURVE",
"117 250 QCURVE"
);
}
);
width = 153;
},
{
layerId = "77B00D75-0619-4FB7-8D17-EB9FCD2DF18B";
paths = (
{
closed = 1;
nodes = (
"107 -32 OFFCURVE",
"107 16 QCURVE",
"107 31 OFFCURVE",
"77 31 OFFCURVE",
"77 4 OFFCURVE",
"90 1 QCURVE",
"92 1 LINE",
"89 -10 LINE",
"86 -21 OFFCURVE",
"55 -57 OFFCURVE",
"30 -71 QCURVE",
"46 -82 LINE"
);
},
{
closed = 1;
nodes = (
"106 277 OFFCURVE",
"106 289 OFFCURVE",
"97 298 OFFCURVE",
"85 298 OFFCURVE",
"76 289 OFFCURVE",
"76 277 OFFCURVE",
"85 268 OFFCURVE",
"97 268 OFFCURVE",
"101 272 QCURVE"
);
}
);
width = 138;
},
{
layerId = "8A94633D-DA21-409C-A8B7-00A83612E8B2";
paths = (
{
closed = 1;
nodes = (
"118 -50 OFFCURVE",
"149 4 OFFCURVE",
"149 38 QCURVE",
"149 60 OFFCURVE",
"125 100 OFFCURVE",
"99 101 QCURVE",
"98 101 OFFCURVE",
"96 101 QCURVE",
"74 101 OFFCURVE",
"59 86 QCURVE",
"43 71 OFFCURVE",
"43 48 QCURVE",
"43 14 OFFCURVE",
"73 0 QCURVE",
"85 -3 LINE",
"78 -10 LINE",
"70 -17 OFFCURVE",
"34 -43 OFFCURVE",
"13 -55 QCURVE",
"82 -84 LINE"
);
},
{
closed = 1;
nodes = (
"148 233 OFFCURVE",
"148 277 OFFCURVE",
"118 307 OFFCURVE",
"74 307 OFFCURVE",
"44 277 OFFCURVE",
"44 233 OFFCURVE",
"74 203 OFFCURVE",
"118 203 OFFCURVE",
"133 218 QCURVE"
);
}
);
width = 161;
}
);
unicode = 003B;
},
{
glyphname = less;
lastChange = "2018-08-09 15:11:51 +0000";
layers = (
{
layerId = "BADA37E3-C95E-4946-BA48-1F986F6D85A7";
paths = (
{
closed = 1;
nodes = (
"341 118 LINE",
"100 358 LINE",
"341 599 LINE",
"302 637 LINE",
"24 359 LINE",
"24 358 LINE",
"302 80 LINE"
);
}
);
width = 365;
},
{
layerId = "77B00D75-0619-4FB7-8D17-EB9FCD2DF18B";
paths = (
{
closed = 1;
nodes = (
"322 94 LINE",
"54 358 LINE",
"322 624 LINE",
"308 637 LINE",
"30 359 LINE",
"30 358 LINE",
"308 80 LINE"
);
}
);
width = 353;
},
{
layerId = "8A94633D-DA21-409C-A8B7-00A83612E8B2";
paths = (
{
closed = 1;
nodes = (
"363 146 LINE",
"154 358 LINE",
"365 567 LINE",
"291 637 LINE",
"13 359 LINE",
"13 358 LINE",
"291 80 LINE"
);
}
);
width = 377;
}
);
unicode = 003C;
},
{
glyphname = equal;
lastChange = "2018-08-09 15:11:51 +0000";
layers = (
{
layerId = "BADA37E3-C95E-4946-BA48-1F986F6D85A7";
paths = (
{
closed = 1;
nodes = (
"344 358 LINE",
"344 413 LINE",
"24 413 LINE",
"24 358 LINE"
);
},
{
closed = 1;
nodes = (
"344 253 LINE",
"344 308 LINE",
"24 308 LINE",
"24 253 LINE"
);
}
);
width = 368;
},
{
layerId = "77B00D75-0619-4FB7-8D17-EB9FCD2DF18B";
paths = (
{
closed = 1;
nodes = (
"350 394 LINE",
"350 413 LINE",
"30 413 LINE",
"30 394 LINE"
);
},
{
closed = 1;
nodes = (
"350 289 LINE",
"350 308 LINE",
"30 308 LINE",
"30 289 LINE"
);
}
);
width = 381;
},
{
layerId = "8A94633D-DA21-409C-A8B7-00A83612E8B2";
paths = (
{
closed = 1;
nodes = (
"333 357 LINE",
"333 462 LINE",
"13 462 LINE",
"13 357 LINE"
);
},
{
closed = 1;
nodes = (
"333 204 LINE",
"333 309 LINE",
"13 309 LINE",
"13 204 LINE"
);
}
);
width = 345;
}
);
unicode = 003D;
},
{
glyphname = greater;
lastChange = "2018-08-09 15:11:51 +0000";
layers = (
{
layerId = "BADA37E3-C95E-4946-BA48-1F986F6D85A7";
paths = (
{
closed = 1;
nodes = (
"341 358 LINE",
"341 359 LINE",
"63 637 LINE",
"24 599 LINE",
"265 358 LINE",
"24 118 LINE",
"63 80 LINE"
);
}
);
width = 365;
},
{
layerId = "77B00D75-0619-4FB7-8D17-EB9FCD2DF18B";
paths = (
{
closed = 1;
nodes = (
"322 358 LINE",
"322 359 LINE",
"44 637 LINE",
"30 624 LINE",
"298 358 LINE",
"30 94 LINE",
"44 80 LINE"
);
}
);
width = 353;
},
{
layerId = "8A94633D-DA21-409C-A8B7-00A83612E8B2";
paths = (
{
closed = 1;
nodes = (
"365 358 LINE",
"365 359 LINE",
"87 637 LINE",
"13 567 LINE",
"224 358 LINE",
"15 146 LINE",
"87 80 LINE"
);
}
);
width = 377;
}
);
unicode = 003E;
},
{
glyphname = question;
lastChange = "2018-08-09 15:11:51 +0000";
layers = (
{
layerId = "BADA37E3-C95E-4946-BA48-1F986F6D85A7";
paths = (
{
closed = 1;
nodes = (
"215 119 LINE",
"215 182 LINE",
"216 236 OFFCURVE",
"239 307 OFFCURVE",
"268 339 OFFCURVE",
"322 394 OFFCURVE",
"341 421 QCURVE",
"378 475 OFFCURVE",
"378 537 QCURVE",
"378 631 OFFCURVE",
"296 682 QCURVE",
"254 709 OFFCURVE",
"202 709 QCURVE",
"117 709 OFFCURVE",
"24 607 OFFCURVE",
"24 532 QCURVE",
"80 532 LINE",
"80 593 OFFCURVE",
"151 656 OFFCURVE",
"248 656 OFFCURVE",
"319 588 OFFCURVE",
"319 535 QCURVE",
"319 491 OFFCURVE",
"286 440 QCURVE",
"274 423 OFFCURVE",
"223 370 OFFCURVE",
"191 331 OFFCURVE",
"164 258 OFFCURVE",
"164 212 QCURVE",
"164 119 LINE"
);
},
{
closed = 1;
nodes = (
"222 20 OFFCURVE",
"222 46 OFFCURVE",
"202 66 OFFCURVE",
"176 66 OFFCURVE",
"156 46 OFFCURVE",
"156 20 OFFCURVE",
"176 0 OFFCURVE",
"202 0 OFFCURVE",
"212 10 QCURVE"
);
}
);
width = 403;
},
{
layerId = "77B00D75-0619-4FB7-8D17-EB9FCD2DF18B";
paths = (
{
closed = 1;
nodes = (
"205 119 LINE",
"205 177 LINE",
"205 224 OFFCURVE",
"233 295 OFFCURVE",
"269 332 OFFCURVE",
"328 393 OFFCURVE",
"347 421 QCURVE",
"384 475 OFFCURVE",
"384 537 QCURVE",
"384 631 OFFCURVE",
"302 682 QCURVE",
"260 709 OFFCURVE",
"208 709 QCURVE",
"123 709 OFFCURVE",
"30 607 OFFCURVE",
"30 532 QCURVE",
"49 532 LINE",
"49 606 OFFCURVE",
"139 690 OFFCURVE",
"260 690 OFFCURVE",
"336 639 OFFCURVE",
"365 571 OFFCURVE",
"365 477 OFFCURVE",
"338 438 QCURVE",
"317 408 OFFCURVE",
"259 349 OFFCURVE",
"219 306 OFFCURVE",
"186 230 OFFCURVE",
"186 185 QCURVE",
"186 119 LINE"
);
},
{
closed = 1;
nodes = (
"211 9 OFFCURVE",
"211 21 OFFCURVE",
"202 30 OFFCURVE",
"190 30 OFFCURVE",
"181 21 OFFCURVE",
"181 9 OFFCURVE",
"190 0 OFFCURVE",
"202 0 OFFCURVE",
"206 4 QCURVE"
);
}
);
width = 416;
},
{
layerId = "8A94633D-DA21-409C-A8B7-00A83612E8B2";
paths = (
{
closed = 1;
nodes = (
"234 119 LINE",
"234 182 LINE",
"235 237 OFFCURVE",
"254 307 OFFCURVE",
"278 337 OFFCURVE",
"330 393 OFFCURVE",
"348 419 QCURVE",
"382 468 OFFCURVE",
"382 522 QCURVE",
"382 574 OFFCURVE",
"357 614 QCURVE",
"332 655 OFFCURVE",
"243 709 OFFCURVE",
"191 709 QCURVE",
"106 709 OFFCURVE",
"13 607 OFFCURVE",
"13 532 QCURVE",
"125 532 LINE",
"125 564 OFFCURVE",
"163 604 OFFCURVE",
"202 604 QCURVE",
"225 604 OFFCURVE",
"265 567 OFFCURVE",
"270 536 QCURVE",
"271 531 OFFCURVE",
"271 526 QCURVE",
"271 499 OFFCURVE",
"250 465 QCURVE",
"239 448 OFFCURVE",
"188 385 OFFCURVE",
"154 339 OFFCURVE",
"125 258 OFFCURVE",
"125 212 QCURVE",
"125 119 LINE"
);
},
{
closed = 1;
nodes = (
"199 0 OFFCURVE",
"229 30 OFFCURVE",
"229 50 QCURVE",
"229 71 OFFCURVE",
"199 101 OFFCURVE",
"178 101 QCURVE",
"158 101 OFFCURVE",
"128 71 OFFCURVE",
"128 50 QCURVE",
"128 30 OFFCURVE",
"158 0 OFFCURVE",
"178 0 QCURVE"
);
}
);
width = 395;
}
);
unicode = 003F;
},
{
glyphname = at;
lastChange = "2018-08-09 15:11:51 +0000";
layers = (
{
layerId = "BADA37E3-C95E-4946-BA48-1F986F6D85A7";
paths = (
{
closed = 1;
nodes = (
"589 12 OFFCURVE",
"650 108 OFFCURVE",
"650 171 QCURVE",
"649 384 LINE",
"649 439 OFFCURVE",
"683 454 QCURVE",
"668 492 LINE",
"622 477 OFFCURVE",
"605 442 QCURVE",
"595 418 OFFCURVE",
"595 345 QCURVE",
"595 162 LINE",
"595 79 OFFCURVE",
"439 -11 OFFCURVE",
"323 -11 QCURVE",
"256 -11 OFFCURVE",
"151 26 OFFCURVE",
"80 119 OFFCURVE",
"80 190 QCURVE",
"80 342 LINE",
"80 449 OFFCURVE",
"158 491 QCURVE",
"194 511 OFFCURVE",
"274 528 OFFCURVE",
"384 528 OFFCURVE",
"467 476 OFFCURVE",
"473 418 QCURVE",
"382 462 OFFCURVE",
"309 462 QCURVE",
"269 462 OFFCURVE",
"235 449 QCURVE",
"147 416 OFFCURVE",
"147 305 QCURVE",
"147 204 LINE",
"158 54 OFFCURVE",
"320 54 QCURVE",
"396 54 OFFCURVE",
"532 91 QCURVE",
"532 350 LINE",
"569 334 LINE",
"569 383 LINE",
"532 399 LINE",
"532 466 OFFCURVE",
"468 551 OFFCURVE",
"366 579 OFFCURVE",
"261 579 OFFCURVE",
"145 553 OFFCURVE",
"90 508 QCURVE",
"60 483 OFFCURVE",
"24 397 OFFCURVE",
"24 342 QCURVE",
"24 183 LINE",
"24 58 OFFCURVE",
"195 -66 OFFCURVE",
"439 -66 OFFCURVE",
"539 -14 QCURVE"
);
},
{
closed = 1;
nodes = (
"299 104 OFFCURVE",
"276 110 QCURVE",
"203 129 OFFCURVE",
"202 204 QCURVE",
"202 302 LINE",
"202 356 OFFCURVE",
"259 410 OFFCURVE",
"303 410 QCURVE",
"389 410 OFFCURVE",
"476 367 QCURVE",
"476 133 LINE",
"389 104 OFFCURVE",
"327 104 QCURVE"
);
}
);
width = 707;
},
{
layerId = "77B00D75-0619-4FB7-8D17-EB9FCD2DF18B";
paths = (
{
closed = 1;
nodes = (
"200 -48 OFFCURVE",
"49 83 OFFCURVE",
"49 190 QCURVE",
"49 342 LINE",
"49 450 OFFCURVE",
"196 561 OFFCURVE",
"421 561 OFFCURVE",
"471 516 QCURVE",
"519 473 OFFCURVE",
"518 403 QCURVE",
"392 460 OFFCURVE",
"307 460 QCURVE",
"270 460 OFFCURVE",
"241 449 QCURVE",
"153 416 OFFCURVE",
"153 305 QCURVE",
"153 204 LINE",
"164 54 OFFCURVE",
"326 54 QCURVE",
"402 54 OFFCURVE",
"538 91 QCURVE",
"538 375 LINE",
"575 359 LINE",
"575 380 LINE",
"538 396 LINE",
"538 463 OFFCURVE",
"506 506 QCURVE",
"451 580 OFFCURVE",
"315 580 QCURVE",
"195 580 OFFCURVE",
"119 526 QCURVE",
"30 462 OFFCURVE",
"30 339 QCURVE",
"30 192 LINE",
"30 66 OFFCURVE",
"202 -66 OFFCURVE",
"445 -66 OFFCURVE",
"545 -14 QCURVE",
"595 12 OFFCURVE",
"656 108 OFFCURVE",
"656 171 QCURVE",
"656 403 LINE",
"656 458 OFFCURVE",
"689 473 QCURVE",
"681 490 LINE",
"652 470 OFFCURVE",
"637 426 OFFCURVE",
"637 372 QCURVE",
"637 162 LINE",
"637 73 OFFCURVE",
"467 -48 OFFCURVE",
"326 -48 QCURVE"
);
},
{
closed = 1;
nodes = (
"414 74 OFFCURVE",
"240 74 OFFCURVE",
"202 117 QCURVE",
"172 150 OFFCURVE",
"172 207 QCURVE",
"172 302 LINE",
"172 360 OFFCURVE",
"224 426 OFFCURVE",
"262 434 QCURVE",
"284 438 OFFCURVE",
"308 438 QCURVE",
"407 438 OFFCURVE",
"518 383 QCURVE",
"518 108 LINE"
);
}
);
width = 720;
},
{
layerId = "8A94633D-DA21-409C-A8B7-00A83612E8B2";
paths = (
{
closed = 1;
nodes = (
"390 -92 OFFCURVE",
"483 -79 OFFCURVE",
"586 -42 OFFCURVE",
"663 16 OFFCURVE",
"714 114 OFFCURVE",
"714 178 QCURVE",
"714 336 LINE",
"714 357 OFFCURVE",
"717 379 OFFCURVE",
"737 408 OFFCURVE",
"757 415 QCURVE",
"723 505 LINE",
"690 499 OFFCURVE",
"645 470 OFFCURVE",
"622 441 OFFCURVE",
"611 391 OFFCURVE",
"609 361 OFFCURVE",
"609 333 QCURVE",
"610 162 LINE",
"610 121 OFFCURVE",
"561 57 OFFCURVE",
"481 23 OFFCURVE",
"394 6 OFFCURVE",
"349 6 QCURVE",
"306 6 OFFCURVE",
"229 23 OFFCURVE",
"157 61 OFFCURVE",
"114 137 OFFCURVE",
"114 190 QCURVE",
"114 330 LINE",
"114 419 OFFCURVE",
"177 464 QCURVE",
"236 505 OFFCURVE",
"326 505 QCURVE",
"332 505 OFFCURVE",
"338 505 QCURVE",
"371 504 OFFCURVE",
"432 471 OFFCURVE",
"437 438 QCURVE",
"415 446 OFFCURVE",
"363 458 OFFCURVE",
"322 460 QCURVE",
"316 461 OFFCURVE",
"310 461 QCURVE",
"276 461 OFFCURVE",
"250 449 QCURVE",
"162 416 OFFCURVE",
"162 305 QCURVE",
"162 204 LINE",
"165 156 OFFCURVE",
"200 91 OFFCURVE",
"260 60 OFFCURVE",
"295 54 QCURVE",
"314 51 OFFCURVE",
"336 51 QCURVE",
"355 51 OFFCURVE",
"375 53 QCURVE",
"420 58 OFFCURVE",
"500 76 OFFCURVE",
"547 91 QCURVE",
"547 294 LINE",
"584 279 LINE",
"584 384 LINE",
"547 399 LINE",
"547 461 OFFCURVE",
"490 552 OFFCURVE",
"398 593 OFFCURVE",
"342 600 QCURVE",
"321 603 OFFCURVE",
"300 603 QCURVE",
"265 603 OFFCURVE",
"229 595 QCURVE",
"140 578 OFFCURVE",
"13 451 OFFCURVE",
"13 342 QCURVE",
"13 183 LINE",
"13 54 OFFCURVE",
"200 -92 OFFCURVE",
"343 -92 QCURVE"
);
},
{
closed = 1;
nodes = (
"317 149 OFFCURVE",
"303 156 QCURVE",
"286 164 OFFCURVE",
"267 199 OFFCURVE",
"264 224 OFFCURVE",
"264 241 QCURVE",
"264 296 LINE",
"264 326 OFFCURVE",
"299 357 OFFCURVE",
"326 358 QCURVE",
"329 358 OFFCURVE",
"332 358 QCURVE",
"356 358 OFFCURVE",
"382 352 QCURVE",
"411 344 OFFCURVE",
"437 331 QCURVE",
"437 167 LINE",
"389 151 OFFCURVE",
"354 150 QCURVE",
"349 149 OFFCURVE",
"344 149 QCURVE"
);
}
);
width = 769;
}
);
unicode = 0040;
},
{
glyphname = A;
lastChange = "2018-08-09 15:11:51 +0000";
layers = (
{
layerId = "BADA37E3-C95E-4946-BA48-1F986F6D85A7";
paths = (
{
closed = 1;
nodes = (
"71 0 LINE",
"149 245 LINE",
"377 245 LINE",
"457 0 LINE",
"517 0 LINE",
"289 700 LINE",
"236 700 LINE",
"12 0 LINE"
);
},
{
closed = 1;
nodes = (
"262 613 LINE",
"362 300 LINE",
"165 300 LINE"
);
}
);
width = 527;
},
{
layerId = "77B00D75-0619-4FB7-8D17-EB9FCD2DF18B";
paths = (
{
closed = 1;
nodes = (
"31 0 LINE",
"130 281 LINE",
"398 281 LINE",
"496 0 LINE",
"517 0 LINE",
"271 700 LINE",
"257 700 LINE",
"12 0 LINE"
);
},
{
closed = 1;
nodes = (
"264 660 LINE",
"391 300 LINE",
"137 300 LINE"
);
}
);
width = 527;
},
{
layerId = "8A94633D-DA21-409C-A8B7-00A83612E8B2";
paths = (
{
closed = 1;
nodes = (
"145 0 LINE",
"184 183 LINE",
"345 183 LINE",
"386 0 LINE",
"517 0 LINE",
"340 700 LINE",
"185 700 LINE",
"21 0 LINE"
);
},
{
closed = 1;
nodes = (
"262 516 LINE",
"319 300 LINE",
"210 300 LINE"
);
}
);
width = 527;
}
);
unicode = 0041;
},
{
glyphname = B;
lastChange = "2018-08-09 15:11:51 +0000";
layers = (
{
layerId = "BADA37E3-C95E-4946-BA48-1F986F6D85A7";
paths = (
{
closed = 1;
nodes = (
"308 0 LINE",
"366 0 OFFCURVE",
"449 38 OFFCURVE",
"470 70 QCURVE",
"511 129 OFFCURVE",
"511 209 QCURVE",
"511 281 OFFCURVE",
"452 371 OFFCURVE",
"408 391 QCURVE",
"408 392 LINE",
"408 393 OFFCURVE",
"409 394 QCURVE",
"475 439 OFFCURVE",
"475 616 OFFCURVE",
"381 700 OFFCURVE",
"299 700 QCURVE",
"78 700 LINE",
"78 0 LINE"
);
},
{
closed = 1;
nodes = (
"134 358 LINE",
"323 358 LINE",
"375 358 OFFCURVE",
"451 283 OFFCURVE",
"451 213 QCURVE",
"451 53 OFFCURVE",
"306 53 QCURVE",
"134 53 LINE"
);
},
{
closed = 1;
nodes = (
"134 647 LINE",
"291 647 LINE",
"417 647 OFFCURVE",
"417 530 QCURVE",
"417 473 OFFCURVE",
"353 413 OFFCURVE",
"297 413 QCURVE",
"134 413 LINE"
);
}
);
width = 544;
},
{
layerId = "77B00D75-0619-4FB7-8D17-EB9FCD2DF18B";
paths = (
{
closed = 1;
nodes = (
"308 0 LINE",
"366 0 OFFCURVE",
"449 38 OFFCURVE",
"470 70 QCURVE",
"511 129 OFFCURVE",
"511 209 QCURVE",
"511 352 OFFCURVE",
"387 401 QCURVE",
"387 402 LINE",
"387 403 OFFCURVE",
"388 404 QCURVE",
"427 419 OFFCURVE",
"475 496 OFFCURVE",
"475 540 QCURVE",
"475 617 OFFCURVE",
"381 700 OFFCURVE",
"299 700 QCURVE",
"78 700 LINE",
"78 0 LINE"
);
},
{
closed = 1;
nodes = (
"97 394 LINE",
"309 394 LINE",
"395 394 OFFCURVE",
"492 291 OFFCURVE",
"492 119 OFFCURVE",
"396 19 OFFCURVE",
"306 19 QCURVE",
"97 19 LINE"
);
},
{
closed = 1;
nodes = (
"97 681 LINE",
"291 681 LINE",
"376 681 OFFCURVE",
"456 605 OFFCURVE",
"456 481 OFFCURVE",
"416 446 QCURVE",
"380 413 OFFCURVE",
"335 413 QCURVE",
"97 413 LINE"
);
}
);
width = 550;
},
{
layerId = "8A94633D-DA21-409C-A8B7-00A83612E8B2";
paths = (
{
closed = 1;
nodes = (
"297 0 LINE",
"355 0 OFFCURVE",
"441 37 OFFCURVE",
"489 98 OFFCURVE",
"511 167 OFFCURVE",
"511 205 QCURVE",
"511 273 OFFCURVE",
"452 361 OFFCURVE",
"408 381 QCURVE",
"408 382 LINE",
"408 383 OFFCURVE",
"409 384 QCURVE",
"475 429 OFFCURVE",
"475 523 QCURVE",
"475 608 OFFCURVE",
"365 700 OFFCURVE",
"282 700 QCURVE",
"78 700 LINE",
"78 0 LINE"
);
},
{
closed = 1;
nodes = (
"188 307 LINE",
"258 307 LINE",
"385 307 OFFCURVE",
"385 207 QCURVE",
"385 142 OFFCURVE",
"318 101 OFFCURVE",
"249 101 QCURVE",
"188 101 LINE"
);
},
{
closed = 1;
nodes = (
"188 590 LINE",
"246 590 LINE",
"297 590 OFFCURVE",
"347 553 OFFCURVE",
"347 506 QCURVE",
"347 455 OFFCURVE",
"293 413 OFFCURVE",
"236 413 QCURVE",
"188 413 LINE"
);
}
);
width = 550;
}
);
unicode = 0042;
},
{
glyphname = C;
lastChange = "2018-08-09 15:11:51 +0000";
layers = (
{
layerId = "BADA37E3-C95E-4946-BA48-1F986F6D85A7";
paths = (
{
closed = 1;
nodes = (
"342 -10 OFFCURVE",
"427 23 QCURVE",
"415 70 LINE",
"330 40 OFFCURVE",
"270 40 QCURVE",
"259 40 OFFCURVE",
"249 42 QCURVE",
"122 54 OFFCURVE",
"122 185 QCURVE",
"122 513 LINE",
"122 660 OFFCURVE",
"278 660 QCURVE",
"329 660 OFFCURVE",
"386 639 QCURVE",
"402 677 LINE",
"337 710 OFFCURVE",
"260 710 QCURVE",
"198 710 OFFCURVE",
"153 685 QCURVE",
"109 658 OFFCURVE",
"66 580 OFFCURVE",
"66 504 QCURVE",
"66 183 LINE",
"66 120 OFFCURVE",
"111 35 OFFCURVE",
"184 -4 OFFCURVE",
"249 -10 OFFCURVE",
"265 -10 QCURVE"
);
}
);
width = 436;
},
{
layerId = "77B00D75-0619-4FB7-8D17-EB9FCD2DF18B";
paths = (
{
closed = 1;
nodes = (
"342 -10 OFFCURVE",
"427 23 QCURVE",
"421 41 LINE",
"333 7 OFFCURVE",
"260 7 QCURVE",
"218 7 OFFCURVE",
"138 35 OFFCURVE",
"85 120 OFFCURVE",
"85 185 QCURVE",
"85 513 LINE",
"85 559 OFFCURVE",
"112 627 OFFCURVE",
"150 664 OFFCURVE",
"218 691 OFFCURVE",
"263 691 QCURVE",
"324 691 OFFCURVE",
"394 660 QCURVE",
"402 677 LINE",
"341 710 OFFCURVE",
"260 710 QCURVE",
"197 710 OFFCURVE",
"153 685 QCURVE",
"109 658 OFFCURVE",
"66 580 OFFCURVE",
"66 504 QCURVE",
"66 183 LINE",
"66 120 OFFCURVE",
"111 35 OFFCURVE",
"184 -4 OFFCURVE",
"249 -10 OFFCURVE",
"265 -10 QCURVE"
);
}
);
width = 430;
},
{
layerId = "8A94633D-DA21-409C-A8B7-00A83612E8B2";
paths = (
{
closed = 1;
nodes = (
"297 -10 OFFCURVE",
"329 -4 QCURVE",
"378 4 OFFCURVE",
"427 23 QCURVE",
"410 127 LINE",
"392 122 OFFCURVE",
"376 118 OFFCURVE",
"335 108 OFFCURVE",
"313 105 OFFCURVE",
"274 99 OFFCURVE",
"252 102 OFFCURVE",
"220 106 OFFCURVE",
"202 120 OFFCURVE",
"184 138 OFFCURVE",
"176 167 OFFCURVE",
"176 185 QCURVE",
"176 513 LINE",
"176 548 OFFCURVE",
"228 594 OFFCURVE",
"270 594 QCURVE",
"325 594 OFFCURVE",
"371 577 QCURVE",
"402 677 LINE",
"343 707 OFFCURVE",
"273 710 QCURVE",
"266 710 OFFCURVE",
"260 710 QCURVE",
"198 710 OFFCURVE",
"153 685 QCURVE",
"109 658 OFFCURVE",
"66 580 OFFCURVE",
"66 504 QCURVE",
"66 183 LINE",
"66 120 OFFCURVE",
"111 35 OFFCURVE",
"184 -4 OFFCURVE",
"232 -8 QCURVE",
"249 -10 OFFCURVE",
"265 -10 QCURVE"
);
}
);
width = 430;
}
);
unicode = 0043;
},
{
glyphname = D;
lastChange = "2018-08-09 15:11:51 +0000";
layers = (
{
layerId = "BADA37E3-C95E-4946-BA48-1F986F6D85A7";
paths = (
{
closed = 1;
nodes = (
"286 0 LINE",
"498 0 OFFCURVE",
"498 200 QCURVE",
"498 474 LINE",
"498 577 OFFCURVE",
"379 701 OFFCURVE",
"266 701 QCURVE",
"78 701 LINE",
"78 0 LINE"
);
},
{
closed = 1;
nodes = (
"134 650 LINE",
"276 650 LINE",
"342 650 OFFCURVE",
"442 568 OFFCURVE",
"442 484 QCURVE",
"442 190 LINE",
"442 50 OFFCURVE",
"270 50 QCURVE",
"134 50 LINE"
);
}
);
width = 576;
},
{
layerId = "77B00D75-0619-4FB7-8D17-EB9FCD2DF18B";
paths = (
{
closed = 1;
nodes = (
"286 0 LINE",
"498 0 OFFCURVE",
"498 200 QCURVE",
"498 474 LINE",
"498 577 OFFCURVE",
"379 701 OFFCURVE",
"266 701 QCURVE",
"78 701 LINE",
"78 0 LINE"
);
},
{
closed = 1;
nodes = (
"97 680 LINE",
"276 680 LINE",
"362 680 OFFCURVE",
"479 575 OFFCURVE",
"479 468 QCURVE",
"479 214 LINE",
"479 161 OFFCURVE",
"449 84 OFFCURVE",
"410 45 OFFCURVE",
"347 24 OFFCURVE",
"305 20 OFFCURVE",
"276 20 QCURVE",
"97 20 LINE"
);
}
);
width = 576;
},
{
layerId = "8A94633D-DA21-409C-A8B7-00A83612E8B2";
paths = (
{
closed = 1;
nodes = (
"286 0 LINE",
"498 0 OFFCURVE",
"498 200 QCURVE",
"498 474 LINE",
"498 577 OFFCURVE",
"379 701 OFFCURVE",
"266 701 QCURVE",
"78 701 LINE",
"78 0 LINE"
);
},
{
closed = 1;
nodes = (
"188 590 LINE",
"276 590 LINE",
"333 590 OFFCURVE",
"388 539 OFFCURVE",
"388 484 QCURVE",
"388 190 LINE",
"388 160 OFFCURVE",
"368 122 OFFCURVE",
"329 106 OFFCURVE",
"295 101 OFFCURVE",
"270 101 QCURVE",
"188 101 LINE"
);
}
);
width = 576;
}
);
unicode = 0044;
},
{
glyphname = E;
lastChange = "2018-08-09 15:11:51 +0000";
layers = (
{
layerId = "BADA37E3-C95E-4946-BA48-1F986F6D85A7";
paths = (
{
closed = 1;
nodes = (
"410 0 LINE",
"410 50 LINE",
"134 50 LINE",
"134 358 LINE",
"306 358 LINE",
"325 413 LINE",
"134 413 LINE",
"134 648 LINE",
"412 648 LINE",
"412 700 LINE",
"78 700 LINE",
"78 0 LINE"
);
}
);
width = 465;
},
{
layerId = "77B00D75-0619-4FB7-8D17-EB9FCD2DF18B";
paths = (
{
closed = 1;
nodes = (
"410 0 LINE",
"410 19 LINE",
"97 19 LINE",
"97 394 LINE",
"318 394 LINE",
"325 413 LINE",
"97 413 LINE",
"97 681 LINE",
"412 681 LINE",
"412 700 LINE",
"78 700 LINE",
"78 0 LINE"
);
}
);
width = 465;
},
{
layerId = "8A94633D-DA21-409C-A8B7-00A83612E8B2";
paths = (
{
closed = 1;
nodes = (
"410 0 LINE",
"410 100 LINE",
"188 100 LINE",
"188 308 LINE",
"294 308 LINE",
"325 413 LINE",
"188 413 LINE",
"188 590 LINE",
"412 590 LINE",
"412 700 LINE",
"78 700 LINE",
"78 0 LINE"
);
}
);
width = 465;
}
);
unicode = 0045;
},
{
glyphname = F;
lastChange = "2018-08-09 15:11:51 +0000";
layers = (
{
layerId = "BADA37E3-C95E-4946-BA48-1F986F6D85A7";
paths = (
{
closed = 1;
nodes = (
"134 0 LINE",
"134 358 LINE",
"282 358 LINE",
"305 413 LINE",
"134 413 LINE",
"134 647 LINE",
"412 647 LINE",
"412 700 LINE",
"78 700 LINE",
"78 0 LINE"
);
}
);
width = 445;
},
{
layerId = "77B00D75-0619-4FB7-8D17-EB9FCD2DF18B";
paths = (
{
closed = 1;
nodes = (
"98 0 LINE",
"98 394 LINE",
"297 394 LINE",
"305 413 LINE",
"98 413 LINE",
"98 680 LINE",
"412 680 LINE",
"412 700 LINE",
"78 700 LINE",
"78 0 LINE"
);
}
);
width = 451;
},
{
layerId = "8A94633D-DA21-409C-A8B7-00A83612E8B2";
paths = (
{
closed = 1;
nodes = (
"188 0 LINE",
"188 308 LINE",
"292 308 LINE",
"328 413 LINE",
"188 413 LINE",
"188 590 LINE",
"412 590 LINE",
"412 700 LINE",
"78 700 LINE",
"78 0 LINE"
);
}
);
width = 451;
}
);
unicode = 0046;
},
{
glyphname = G;
lastChange = "2018-08-09 15:11:51 +0000";
layers = (
{
layerId = "BADA37E3-C95E-4946-BA48-1F986F6D85A7";
paths = (
{
closed = 1;
nodes = (
"476 0 LINE",
"476 300 LINE",
"338 300 LINE",
"357 245 LINE",
"423 245 LINE",
"423 186 LINE",
"423 122 OFFCURVE",
"343 44 OFFCURVE",
"208 44 OFFCURVE",
"121 120 OFFCURVE",
"121 187 QCURVE",
"121 512 LINE",
"121 659 OFFCURVE",
"277 659 QCURVE",
"328 659 OFFCURVE",
"385 638 QCURVE",
"401 676 LINE",
"336 709 OFFCURVE",
"259 709 QCURVE",
"197 709 OFFCURVE",
"152 684 QCURVE",
"65 631 OFFCURVE",
"65 503 QCURVE",
"65 189 LINE",
"65 90 OFFCURVE",
"188 -10 OFFCURVE",
"369 -10 OFFCURVE",
"421 41 QCURVE",
"435 0 LINE"
);
}
);
width = 537;
},
{
layerId = "77B00D75-0619-4FB7-8D17-EB9FCD2DF18B";
paths = (
{
closed = 1;
nodes = (
"411 -10 OFFCURVE",
"457 88 QCURVE",
"457 0 LINE",
"476 0 LINE",
"476 300 LINE",
"338 300 LINE",
"346 281 LINE",
"457 281 LINE",
"457 182 LINE",
"457 109 OFFCURVE",
"373 9 OFFCURVE",
"188 9 OFFCURVE",
"84 109 OFFCURVE",
"84 187 QCURVE",
"84 497 LINE",
"84 549 OFFCURVE",
"113 626 OFFCURVE",
"133 646 QCURVE",
"180 691 OFFCURVE",
"262 691 QCURVE",
"320 691 OFFCURVE",
"394 659 QCURVE",
"401 676 LINE",
"336 709 OFFCURVE",
"259 709 QCURVE",
"197 709 OFFCURVE",
"152 684 QCURVE",
"65 631 OFFCURVE",
"65 503 QCURVE",
"65 189 LINE",
"65 90 OFFCURVE",
"188 -10 OFFCURVE",
"276 -10 QCURVE"
);
}
);
width = 537;
},
{
layerId = "8A94633D-DA21-409C-A8B7-00A83612E8B2";
paths = (
{
closed = 1;
nodes = (
"314 -10 OFFCURVE",
"366 8 QCURVE",
"372 0 LINE",
"476 0 LINE",
"476 300 LINE",
"274 300 LINE",
"309 195 LINE",
"366 195 LINE",
"366 186 LINE",
"366 101 OFFCURVE",
"275 101 QCURVE",
"226 101 OFFCURVE",
"175 139 OFFCURVE",
"175 187 QCURVE",
"175 512 LINE",
"175 560 OFFCURVE",
"229 595 OFFCURVE",
"277 595 QCURVE",
"320 595 OFFCURVE",
"368 577 QCURVE",
"401 676 LINE",
"342 706 OFFCURVE",
"272 709 QCURVE",
"265 709 OFFCURVE",
"259 709 QCURVE",
"197 709 OFFCURVE",
"152 684 QCURVE",
"65 631 OFFCURVE",
"65 503 QCURVE",
"65 189 LINE",
"65 90 OFFCURVE",
"188 -10 OFFCURVE",
"276 -10 QCURVE"
);
}
);
width = 537;
}
);
unicode = 0047;
},
{
glyphname = H;
lastChange = "2018-08-09 15:11:51 +0000";
layers = (
{
layerId = "BADA37E3-C95E-4946-BA48-1F986F6D85A7";
paths = (
{
closed = 1;
nodes = (
"134 0 LINE",
"134 358 LINE",
"452 358 LINE",
"452 0 LINE",
"508 0 LINE",
"508 700 LINE",
"452 700 LINE",
"452 413 LINE",
"134 413 LINE",
"134 700 LINE",
"78 700 LINE",
"78 0 LINE"
);
}
);
width = 588;
},
{
layerId = "77B00D75-0619-4FB7-8D17-EB9FCD2DF18B";
paths = (
{
closed = 1;
nodes = (
"97 0 LINE",
"97 394 LINE",
"489 394 LINE",
"489 0 LINE",
"508 0 LINE",
"508 700 LINE",
"489 700 LINE",
"489 413 LINE",
"97 413 LINE",
"97 700 LINE",
"78 700 LINE",
"78 0 LINE"
);
}
);
width = 588;
},
{
layerId = "8A94633D-DA21-409C-A8B7-00A83612E8B2";
paths = (
{
closed = 1;
nodes = (
"188 0 LINE",
"188 308 LINE",
"399 308 LINE",
"399 0 LINE",
"508 0 LINE",
"508 700 LINE",
"399 700 LINE",
"399 413 LINE",
"188 413 LINE",
"188 700 LINE",
"78 700 LINE",
"78 0 LINE"
);
}
);
width = 588;
}
);
unicode = 0048;
},
{
glyphname = I;
lastChange = "2018-08-09 15:11:51 +0000";
layers = (
{
layerId = "BADA37E3-C95E-4946-BA48-1F986F6D85A7";
paths = (
{
closed = 1;
nodes = (
"189 0 LINE",
"189 700 LINE",
"66 700 LINE",
"66 651 LINE",
"133 649 LINE",
"133 0 LINE"
);
}
);
width = 264;
},
{
layerId = "77B00D75-0619-4FB7-8D17-EB9FCD2DF18B";
paths = (
{
closed = 1;
nodes = (
"135 0 LINE",
"135 700 LINE",
"30 700 LINE",
"30 681 LINE",
"116 679 LINE",
"116 0 LINE"
);
}
);
width = 193;
},
{
layerId = "8A94633D-DA21-409C-A8B7-00A83612E8B2";
paths = (
{
closed = 1;
nodes = (
"233 0 LINE",
"233 700 LINE",
"61 700 LINE",
"61 594 LINE",
"123 592 LINE",
"123 0 LINE"
);
}
);
width = 313;
}
);
unicode = 0049;
},
{
glyphname = J;
lastChange = "2018-08-09 15:11:51 +0000";
layers = (
{
layerId = "BADA37E3-C95E-4946-BA48-1F986F6D85A7";
paths = (
{
closed = 1;
nodes = (
"86 -37 OFFCURVE",
"153 44 OFFCURVE",
"153 118 QCURVE",
"153 700 LINE",
"29 700 LINE",
"29 651 LINE",
"96 649 LINE",
"96 114 LINE",
"96 54 OFFCURVE",
"47 0 OFFCURVE",
"14 0 QCURVE",
"27 -37 LINE"
);
}
);
width = 196;
},
{
layerId = "77B00D75-0619-4FB7-8D17-EB9FCD2DF18B";
paths = (
{
closed = 1;
nodes = (
"65 -27 OFFCURVE",
"113 47 OFFCURVE",
"113 122 QCURVE",
"113 700 LINE",
"11 700 LINE",
"11 681 LINE",
"95 679 LINE",
"95 118 LINE",
"95 -6 OFFCURVE",
"3 -19 QCURVE",
"9 -37 LINE"
);
}
);
width = 177;
},
{
layerId = "8A94633D-DA21-409C-A8B7-00A83612E8B2";
paths = (
{
closed = 1;
nodes = (
"122 -36 OFFCURVE",
"198 44 OFFCURVE",
"198 139 QCURVE",
"198 700 LINE",
"30 700 LINE",
"30 594 LINE",
"90 592 LINE",
"90 156 LINE",
"90 57 OFFCURVE",
"-15 57 QCURVE",
"21 -37 LINE"
);
}
);
width = 234;
}
);
unicode = 004A;
},
{
glyphname = K;
lastChange = "2018-08-09 15:11:51 +0000";
layers = (
{
layerId = "BADA37E3-C95E-4946-BA48-1F986F6D85A7";
paths = (
{
closed = 1;
nodes = (
"135 0 LINE",
"135 269 LINE",
"183 345 LINE",
"409 0 LINE",
"476 0 LINE",
"219 398 LINE",
"424 701 LINE",
"359 701 LINE",
"135 367 LINE",
"135 701 LINE",
"79 701 LINE",
"79 0 LINE"
);
}
);
width = 475;
},
{
layerId = "77B00D75-0619-4FB7-8D17-EB9FCD2DF18B";
paths = (
{
closed = 1;
nodes = (
"98 0 LINE",
"98 280 LINE",
"195 403 LINE",
"455 0 LINE",
"476 0 LINE",
"207 418 LINE",
"424 701 LINE",
"402 701 LINE",
"98 308 LINE",
"98 701 LINE",
"79 701 LINE",
"79 0 LINE"
);
}
);
width = 479;
},
{
layerId = "8A94633D-DA21-409C-A8B7-00A83612E8B2";
paths = (
{
closed = 1;
nodes = (
"197 0 LINE",
"197 268 LINE",
"204 278 LINE",
"393 0 LINE",
"530 0 LINE",
"269 376 LINE",
"491 701 LINE",
"359 701 LINE",
"197 460 LINE",
"197 701 LINE",
"79 701 LINE",
"79 0 LINE"
);
}
);
width = 532;
}
);
unicode = 004B;
},
{
glyphname = L;
lastChange = "2018-08-09 15:11:51 +0000";
layers = (
{
layerId = "BADA37E3-C95E-4946-BA48-1F986F6D85A7";
paths = (
{
closed = 1;
nodes = (
"439 0 LINE",
"439 50 LINE",
"134 50 LINE",
"134 700 LINE",
"78 700 LINE",
"78 0 LINE"
);
}
);
width = 440;
},
{
layerId = "77B00D75-0619-4FB7-8D17-EB9FCD2DF18B";
paths = (
{
closed = 1;
nodes = (
"439 0 LINE",
"439 20 LINE",
"97 20 LINE",
"97 700 LINE",
"78 700 LINE",
"78 0 LINE"
);
}
);
width = 440;
},
{
layerId = "8A94633D-DA21-409C-A8B7-00A83612E8B2";
paths = (
{
closed = 1;
nodes = (
"439 0 LINE",
"439 101 LINE",
"188 101 LINE",
"188 700 LINE",
"78 700 LINE",
"78 0 LINE"
);
}
);
width = 440;
}
);
unicode = 004C;
},
{
glyphname = M;
lastChange = "2018-08-09 15:11:51 +0000";
layers = (
{
layerId = "BADA37E3-C95E-4946-BA48-1F986F6D85A7";
paths = (
{
closed = 1;
nodes = (
"134 0 LINE",
"134 535 LINE",
"315 0 LINE",
"376 0 LINE",
"558 535 LINE",
"558 0 LINE",
"614 0 LINE",
"614 700 LINE",
"558 700 LINE",
"345 86 LINE",
"134 700 LINE",
"78 700 LINE",
"78 0 LINE"
);
}
);
width = 694;
},
{
layerId = "77B00D75-0619-4FB7-8D17-EB9FCD2DF18B";
paths = (
{
closed = 1;
nodes = (
"96 0 LINE",
"96 648 LINE",
"336 0 LINE",
"354 0 LINE",
"596 648 LINE",
"596 0 LINE",
"614 0 LINE",
"614 700 LINE",
"596 700 LINE",
"346 30 LINE",
"96 700 LINE",
"78 700 LINE",
"78 0 LINE"
);
}
);
width = 694;
},
{
layerId = "8A94633D-DA21-409C-A8B7-00A83612E8B2";
paths = (
{
closed = 1;
nodes = (
"188 0 LINE",
"188 369 LINE",
"303 0 LINE",
"387 0 LINE",
"504 370 LINE",
"504 0 LINE",
"614 0 LINE",
"614 700 LINE",
"504 700 LINE",
"345 237 LINE",
"188 700 LINE",
"78 700 LINE",
"78 0 LINE"
);
}
);
width = 694;
}
);
unicode = 004D;
},
{
glyphname = N;
lastChange = "2018-08-09 15:11:51 +0000";
layers = (
{
layerId = "BADA37E3-C95E-4946-BA48-1F986F6D85A7";
paths = (
{
closed = 1;
nodes = (
"134 0 LINE",
"134 597 LINE",
"514 0 LINE",
"570 0 LINE",
"570 700 LINE",
"514 700 LINE",
"514 103 LINE",
"134 700 LINE",
"78 700 LINE",
"78 0 LINE"
);
}
);
width = 650;
},
{
layerId = "77B00D75-0619-4FB7-8D17-EB9FCD2DF18B";
paths = (
{
closed = 1;
nodes = (
"96 0 LINE",
"96 670 LINE",
"553 0 LINE",
"570 0 LINE",
"570 700 LINE",
"553 700 LINE",
"553 32 LINE",
"96 700 LINE",
"78 700 LINE",
"78 0 LINE"
);
}
);
width = 650;
},
{
layerId = "8A94633D-DA21-409C-A8B7-00A83612E8B2";
paths = (
{
closed = 1;
nodes = (
"188 0 LINE",
"188 473 LINE",
"459 0 LINE",
"570 0 LINE",
"570 700 LINE",
"459 700 LINE",
"459 230 LINE",
"188 700 LINE",
"78 700 LINE",
"78 0 LINE"
);
}
);
width = 650;
}
);
unicode = 004E;
},
{
glyphname = O;
lastChange = "2018-08-09 15:11:51 +0000";
layers = (
{
layerId = "BADA37E3-C95E-4946-BA48-1F986F6D85A7";
paths = (
{
closed = 1;
nodes = (
"63 84 OFFCURVE",
"188 -11 OFFCURVE",
"360 -11 OFFCURVE",
"483 84 OFFCURVE",
"483 185 QCURVE",
"483 506 LINE",
"483 604 OFFCURVE",
"374 716 OFFCURVE",
"176 716 OFFCURVE",
"63 610 OFFCURVE",
"63 507 QCURVE",
"63 185 LINE"
);
},
{
closed = 1;
nodes = (
"119 516 LINE",
"119 589 OFFCURVE",
"203 663 OFFCURVE",
"343 663 OFFCURVE",
"428 589 OFFCURVE",
"428 516 QCURVE",
"428 187 LINE",
"428 113 OFFCURVE",
"341 42 OFFCURVE",
"206 42 OFFCURVE",
"119 115 OFFCURVE",
"119 186 QCURVE"
);
}
);
width = 549;
},
{
layerId = "77B00D75-0619-4FB7-8D17-EB9FCD2DF18B";
paths = (
{
closed = 1;
nodes = (
"63 84 OFFCURVE",
"188 -11 OFFCURVE",
"360 -11 OFFCURVE",
"483 84 OFFCURVE",
"483 185 QCURVE",
"483 506 LINE",
"483 604 OFFCURVE",
"374 716 OFFCURVE",
"176 716 OFFCURVE",
"63 610 OFFCURVE",
"63 507 QCURVE",
"63 185 LINE"
);
},
{
closed = 1;
nodes = (
"82 508 LINE",
"82 594 OFFCURVE",
"178 695 OFFCURVE",
"368 695 OFFCURVE",
"464 596 OFFCURVE",
"464 510 QCURVE",
"464 184 LINE",
"464 92 OFFCURVE",
"354 8 OFFCURVE",
"194 8 OFFCURVE",
"82 97 OFFCURVE",
"82 184 QCURVE"
);
}
);
width = 549;
},
{
layerId = "8A94633D-DA21-409C-A8B7-00A83612E8B2";
paths = (
{
closed = 1;
nodes = (
"63 84 OFFCURVE",
"188 -11 OFFCURVE",
"360 -11 OFFCURVE",
"483 84 OFFCURVE",
"483 185 QCURVE",
"483 506 LINE",
"483 604 OFFCURVE",
"374 716 OFFCURVE",
"176 716 OFFCURVE",
"63 610 OFFCURVE",
"63 507 QCURVE",
"63 185 LINE"
);
},
{
closed = 1;
nodes = (
"222 101 OFFCURVE",
"173 156 OFFCURVE",
"173 204 QCURVE",
"173 471 LINE",
"173 536 OFFCURVE",
"212 597 OFFCURVE",
"334 597 OFFCURVE",
"373 534 OFFCURVE",
"373 470 QCURVE",
"373 206 LINE",
"373 159 OFFCURVE",
"320 101 OFFCURVE",
"273 101 QCURVE"
);
}
);
width = 549;
}
);
unicode = 004F;
},
{
glyphname = P;
lastChange = "2018-08-09 15:11:51 +0000";
layers = (
{
layerId = "BADA37E3-C95E-4946-BA48-1F986F6D85A7";
paths = (
{
closed = 1;
nodes = (
"134 0 LINE",
"134 245 LINE",
"331 245 LINE",
"381 245 OFFCURVE",
"453 280 OFFCURVE",
"489 327 OFFCURVE",
"509 402 OFFCURVE",
"512 451 OFFCURVE",
"512 486 QCURVE",
"512 584 OFFCURVE",
"419 700 OFFCURVE",
"324 700 QCURVE",
"78 700 LINE",
"78 0 LINE"
);
},
{
closed = 1;
nodes = (
"134 647 LINE",
"328 647 LINE",
"387 647 OFFCURVE",
"456 567 OFFCURVE",
"456 486 QCURVE",
"456 431 OFFCURVE",
"448 396 QCURVE",
"442 365 OFFCURVE",
"418 329 OFFCURVE",
"368 300 OFFCURVE",
"332 300 QCURVE",
"134 300 LINE"
);
}
);
width = 545;
},
{
layerId = "77B00D75-0619-4FB7-8D17-EB9FCD2DF18B";
paths = (
{
closed = 1;
nodes = (
"97 0 LINE",
"97 281 LINE",
"311 281 LINE",
"512 281 OFFCURVE",
"512 486 QCURVE",
"512 584 OFFCURVE",
"419 700 OFFCURVE",
"324 700 QCURVE",
"78 700 LINE",
"78 0 LINE"
);
},
{
closed = 1;
nodes = (
"97 680 LINE",
"325 680 LINE",
"412 680 OFFCURVE",
"493 575 OFFCURVE",
"493 486 QCURVE",
"493 300 OFFCURVE",
"309 300 QCURVE",
"97 300 LINE"
);
}
);
width = 551;
},
{
layerId = "8A94633D-DA21-409C-A8B7-00A83612E8B2";
paths = (
{
closed = 1;
nodes = (
"188 0 LINE",
"188 195 LINE",
"315 195 LINE",
"512 195 OFFCURVE",
"512 463 QCURVE",
"512 565 OFFCURVE",
"411 700 OFFCURVE",
"306 700 QCURVE",
"78 700 LINE",
"78 0 LINE"
);
},
{
closed = 1;
nodes = (
"188 590 LINE",
"278 590 LINE",
"342 590 OFFCURVE",
"402 538 OFFCURVE",
"402 461 QCURVE",
"402 459 OFFCURVE",
"402 454 QCURVE",
"402 428 OFFCURVE",
"401 399 OFFCURVE",
"388 349 OFFCURVE",
"365 322 OFFCURVE",
"316 300 OFFCURVE",
"282 300 QCURVE",
"188 300 LINE"
);
}
);
width = 551;
}
);
unicode = 0050;
},
{
glyphname = Q;
lastChange = "2018-08-09 15:11:51 +0000";
layers = (
{
layerId = "BADA37E3-C95E-4946-BA48-1F986F6D85A7";
paths = (
{
closed = 1;
nodes = (
"428 -40 LINE",
"426 -40 OFFCURVE",
"424 -40 QCURVE",
"349 -40 OFFCURVE",
"322 -7 QCURVE",
"392 5 OFFCURVE",
"483 98 OFFCURVE",
"483 185 QCURVE",
"483 506 LINE",
"483 604 OFFCURVE",
"374 716 OFFCURVE",
"176 716 OFFCURVE",
"63 610 OFFCURVE",
"63 507 QCURVE",
"63 185 LINE",
"63 134 OFFCURVE",
"98 56 OFFCURVE",
"128 34 QCURVE",
"188 -9 OFFCURVE",
"266 -11 QCURVE",
"308 -94 OFFCURVE",
"428 -94 QCURVE"
);
},
{
closed = 1;
nodes = (
"190 49 OFFCURVE",
"119 122 OFFCURVE",
"119 186 QCURVE",
"119 516 LINE",
"119 589 OFFCURVE",
"203 663 OFFCURVE",
"343 663 OFFCURVE",
"428 589 OFFCURVE",
"428 516 QCURVE",
"428 187 LINE",
"428 122 OFFCURVE",
"360 51 OFFCURVE",
"303 44 QCURVE",
"300 61 OFFCURVE",
"300 102 QCURVE",
"300 174 LINE",
"244 174 LINE",
"244 101 LINE",
"244 67 OFFCURVE",
"248 43 QCURVE"
);
}
);
width = 549;
},
{
layerId = "77B00D75-0619-4FB7-8D17-EB9FCD2DF18B";
paths = (
{
closed = 1;
nodes = (
"428 -75 LINE",
"314 -74 OFFCURVE",
"300 -11 QCURVE",
"384 -1 OFFCURVE",
"483 96 OFFCURVE",
"483 185 QCURVE",
"483 506 LINE",
"483 604 OFFCURVE",
"374 716 OFFCURVE",
"176 716 OFFCURVE",
"63 610 OFFCURVE",
"63 507 QCURVE",
"63 185 LINE",
"63 85 OFFCURVE",
"187 -11 OFFCURVE",
"277 -11 QCURVE",
"304 -94 OFFCURVE",
"428 -94 QCURVE"
);
},
{
closed = 1;
nodes = (
"271 8 OFFCURVE",
"239 8 OFFCURVE",
"210 16 QCURVE",
"132 38 OFFCURVE",
"102 100 QCURVE",
"84 136 OFFCURVE",
"84 184 QCURVE",
"84 516 LINE",
"84 610 OFFCURVE",
"193 696 OFFCURVE",
"356 696 OFFCURVE",
"463 605 OFFCURVE",
"463 516 QCURVE",
"463 186 LINE",
"463 112 OFFCURVE",
"375 13 OFFCURVE",
"296 9 QCURVE",
"291 37 OFFCURVE",
"291 81 QCURVE",
"290 174 LINE",
"270 174 LINE",
"270 81 LINE",
"270 32 OFFCURVE",
"274 8 QCURVE"
);
}
);
width = 549;
},
{
layerId = "8A94633D-DA21-409C-A8B7-00A83612E8B2";
paths = (
{
closed = 1;
nodes = (
"412 -116 OFFCURVE",
"417 -116 QCURVE",
"431 -22 LINE",
"394 -22 OFFCURVE",
"361 -14 OFFCURVE",
"348 1 QCURVE",
"400 11 OFFCURVE",
"483 101 OFFCURVE",
"483 185 QCURVE",
"483 506 LINE",
"483 604 OFFCURVE",
"374 716 OFFCURVE",
"176 716 OFFCURVE",
"63 610 OFFCURVE",
"63 507 QCURVE",
"63 185 LINE",
"63 134 OFFCURVE",
"96 58 OFFCURVE",
"151 17 OFFCURVE",
"206 -5 OFFCURVE",
"236 -8 QCURVE",
"276 -116 OFFCURVE",
"407 -116 QCURVE"
);
},
{
closed = 1;
nodes = (
"173 101 OFFCURVE",
"173 186 QCURVE",
"173 505 LINE",
"173 548 OFFCURVE",
"213 599 OFFCURVE",
"273 599 QCURVE",
"304 599 OFFCURVE",
"347 580 OFFCURVE",
"366 547 OFFCURVE",
"373 520 OFFCURVE",
"373 505 QCURVE",
"373 187 LINE",
"373 102 OFFCURVE",
"327 102 QCURVE",
"327 157 LINE",
"327 174 LINE",
"217 174 LINE",
"217 156 LINE",
"217 107 OFFCURVE",
"218 101 QCURVE"
);
}
);
width = 549;
}
);
unicode = 0051;
},
{
glyphname = R;
lastChange = "2018-08-09 15:11:51 +0000";
layers = (
{
layerId = "BADA37E3-C95E-4946-BA48-1F986F6D85A7";
paths = (
{
closed = 1;
nodes = (
"134 0 LINE",
"134 245 LINE",
"331 245 LINE",
"353 245 OFFCURVE",
"371 248 QCURVE",
"456 0 LINE",
"513 0 LINE",
"424 265 LINE",
"463 286 OFFCURVE",
"505 373 OFFCURVE",
"512 439 OFFCURVE",
"512 486 QCURVE",
"512 584 OFFCURVE",
"419 700 OFFCURVE",
"324 700 QCURVE",
"78 700 LINE",
"78 0 LINE"
);
},
{
closed = 1;
nodes = (
"134 647 LINE",
"328 647 LINE",
"387 647 OFFCURVE",
"456 567 OFFCURVE",
"456 486 QCURVE",
"456 431 OFFCURVE",
"448 396 QCURVE",
"442 365 OFFCURVE",
"418 329 OFFCURVE",
"368 300 OFFCURVE",
"332 300 QCURVE",
"134 300 LINE"
);
}
);
width = 564;
},
{
layerId = "77B00D75-0619-4FB7-8D17-EB9FCD2DF18B";
paths = (
{
closed = 1;
nodes = (
"98 0 LINE",
"98 281 LINE",
"332 281 LINE",
"339 281 OFFCURVE",
"357 283 QCURVE",
"492 0 LINE",
"513 0 LINE",
"376 287 LINE",
"417 299 OFFCURVE",
"475 347 OFFCURVE",
"488 378 QCURVE",
"512 434 OFFCURVE",
"512 486 QCURVE",
"512 584 OFFCURVE",
"416 700 OFFCURVE",
"317 700 QCURVE",
"78 700 LINE",
"78 0 LINE"
);
},
{
closed = 1;
nodes = (
"98 680 LINE",
"316 680 LINE",
"403 680 OFFCURVE",
"492 578 OFFCURVE",
"492 410 OFFCURVE",
"407 300 OFFCURVE",
"316 300 QCURVE",
"98 300 LINE"
);
}
);
width = 564;
},
{
layerId = "8A94633D-DA21-409C-A8B7-00A83612E8B2";
paths = (
{
closed = 1;
nodes = (
"188 0 LINE",
"188 195 LINE",
"334 195 LINE",
"401 0 LINE",
"513 0 LINE",
"435 232 LINE",
"471 263 OFFCURVE",
"507 355 OFFCURVE",
"512 413 OFFCURVE",
"512 462 QCURVE",
"512 563 OFFCURVE",
"412 700 OFFCURVE",
"315 700 QCURVE",
"78 700 LINE",
"78 0 LINE"
);
},
{
closed = 1;
nodes = (
"188 589 LINE",
"269 589 LINE",
"334 589 OFFCURVE",
"396 539 OFFCURVE",
"396 462 QCURVE",
"396 436 OFFCURVE",
"395 406 OFFCURVE",
"383 353 OFFCURVE",
"363 324 OFFCURVE",
"320 300 OFFCURVE",
"289 300 QCURVE",
"188 300 LINE"
);
}
);
width = 564;
}
);
unicode = 0052;
},
{
glyphname = S;
lastChange = "2018-08-09 15:11:51 +0000";
layers = (
{
layerId = "BADA37E3-C95E-4946-BA48-1F986F6D85A7";
paths = (
{
closed = 1;
nodes = (
"39 104 OFFCURVE",
"164 -11 OFFCURVE",
"395 -11 OFFCURVE",
"512 100 OFFCURVE",
"512 192 QCURVE",
"512 240 OFFCURVE",
"468 314 OFFCURVE",
"398 357 OFFCURVE",
"312 391 OFFCURVE",
"227 419 OFFCURVE",
"192 435 QCURVE",
"113 471 OFFCURVE",
"113 535 QCURVE",
"113 592 OFFCURVE",
"205 656 OFFCURVE",
"352 656 OFFCURVE",
"409 627 QCURVE",
"426 678 OFFCURVE",
"426 680 QCURVE",
"363 710 OFFCURVE",
"280 710 QCURVE",
"171 710 OFFCURVE",
"55 608 OFFCURVE",
"55 538 QCURVE",
"55 485 OFFCURVE",
"114 409 OFFCURVE",
"202 371 OFFCURVE",
"305 332 OFFCURVE",
"393 298 OFFCURVE",
"452 233 OFFCURVE",
"452 187 QCURVE",
"452 112 OFFCURVE",
"348 43 OFFCURVE",
"196 43 OFFCURVE",
"99 125 OFFCURVE",
"94 178 QCURVE",
"37 178 LINE"
);
}
);
width = 561;
},
{
layerId = "77B00D75-0619-4FB7-8D17-EB9FCD2DF18B";
paths = (
{
closed = 1;
nodes = (
"39 104 OFFCURVE",
"164 -11 OFFCURVE",
"396 -11 OFFCURVE",
"512 96 OFFCURVE",
"512 187 QCURVE",
"512 249 OFFCURVE",
"422 332 OFFCURVE",
"294 377 OFFCURVE",
"166 417 OFFCURVE",
"76 485 OFFCURVE",
"76 535 QCURVE",
"76 609 OFFCURVE",
"194 691 OFFCURVE",
"358 691 OFFCURVE",
"418 660 QCURVE",
"426 680 LINE",
"363 710 OFFCURVE",
"280 710 QCURVE",
"171 710 OFFCURVE",
"55 608 OFFCURVE",
"55 538 QCURVE",
"55 489 OFFCURVE",
"120 419 OFFCURVE",
"216 383 OFFCURVE",
"330 343 OFFCURVE",
"426 307 OFFCURVE",
"491 236 OFFCURVE",
"491 187 QCURVE",
"491 93 OFFCURVE",
"370 7 OFFCURVE",
"170 7 OFFCURVE",
"59 116 OFFCURVE",
"59 178 QCURVE",
"37 178 LINE"
);
}
);
width = 561;
},
{
layerId = "8A94633D-DA21-409C-A8B7-00A83612E8B2";
paths = (
{
closed = 1;
nodes = (
"394 -11 OFFCURVE",
"512 105 OFFCURVE",
"512 194 QCURVE",
"512 261 OFFCURVE",
"444 360 OFFCURVE",
"347 415 OFFCURVE",
"248 457 OFFCURVE",
"176 501 OFFCURVE",
"173 527 QCURVE",
"173 530 OFFCURVE",
"173 533 QCURVE",
"173 560 OFFCURVE",
"197 578 QCURVE",
"224 598 OFFCURVE",
"281 598 QCURVE",
"323 598 OFFCURVE",
"391 576 QCURVE",
"396 590 OFFCURVE",
"414 644 OFFCURVE",
"420 662 QCURVE",
"426 680 LINE",
"363 710 OFFCURVE",
"280 710 QCURVE",
"171 710 OFFCURVE",
"54 607 OFFCURVE",
"54 537 QCURVE",
"54 491 OFFCURVE",
"91 423 OFFCURVE",
"151 382 OFFCURVE",
"223 349 OFFCURVE",
"294 319 OFFCURVE",
"354 282 OFFCURVE",
"391 224 OFFCURVE",
"391 184 QCURVE",
"391 152 OFFCURVE",
"333 97 OFFCURVE",
"272 97 QCURVE",
"222 97 OFFCURVE",
"160 151 OFFCURVE",
"155 195 QCURVE",
"37 178 LINE",
"39 104 OFFCURVE",
"164 -11 OFFCURVE",
"273 -11 QCURVE"
);
}
);
width = 561;
}
);
unicode = 0053;
},
{
glyphname = T;
lastChange = "2018-08-09 15:11:51 +0000";
layers = (
{
layerId = "BADA37E3-C95E-4946-BA48-1F986F6D85A7";
paths = (
{
closed = 1;
nodes = (
"226 0 LINE",
"226 650 LINE",
"402 650 LINE",
"402 700 LINE",
"0 700 LINE",
"0 650 LINE",
"170 650 LINE",
"170 0 LINE"
);
}
);
width = 402;
},
{
layerId = "77B00D75-0619-4FB7-8D17-EB9FCD2DF18B";
paths = (
{
closed = 1;
nodes = (
"208 0 LINE",
"208 680 LINE",
"402 680 LINE",
"402 700 LINE",
"0 700 LINE",
"0 680 LINE",
"189 680 LINE",
"190 0 LINE"
);
}
);
width = 402;
},
{
layerId = "8A94633D-DA21-409C-A8B7-00A83612E8B2";
paths = (
{
closed = 1;
nodes = (
"254 0 LINE",
"254 589 LINE",
"402 589 LINE",
"402 700 LINE",
"0 700 LINE",
"0 589 LINE",
"144 589 LINE",
"144 0 LINE"
);
}
);
width = 402;
}
);
unicode = 0054;
},
{
glyphname = U;
lastChange = "2018-08-09 15:11:51 +0000";
layers = (
{
layerId = "BADA37E3-C95E-4946-BA48-1F986F6D85A7";
paths = (
{
closed = 1;
nodes = (
"130 701 LINE",
"74 701 LINE",
"74 186 LINE",
"74 133 OFFCURVE",
"111 55 OFFCURVE",
"174 13 OFFCURVE",
"245 -7 OFFCURVE",
"325 -7 OFFCURVE",
"395 13 OFFCURVE",
"458 55 OFFCURVE",
"495 133 OFFCURVE",
"495 186 QCURVE",
"495 701 LINE",
"439 701 LINE",
"439 178 LINE",
"439 117 OFFCURVE",
"349 43 OFFCURVE",
"219 43 OFFCURVE",
"130 117 OFFCURVE",
"130 178 QCURVE"
);
}
);
width = 566;
},
{
layerId = "77B00D75-0619-4FB7-8D17-EB9FCD2DF18B";
paths = (
{
closed = 1;
nodes = (
"93 701 LINE",
"74 701 LINE",
"74 186 LINE",
"74 133 OFFCURVE",
"111 55 OFFCURVE",
"174 13 OFFCURVE",
"245 -7 OFFCURVE",
"325 -7 OFFCURVE",
"395 13 OFFCURVE",
"458 55 OFFCURVE",
"495 133 OFFCURVE",
"495 186 QCURVE",
"495 701 LINE",
"476 701 LINE",
"476 184 LINE",
"476 137 OFFCURVE",
"441 66 OFFCURVE",
"383 29 OFFCURVE",
"321 12 OFFCURVE",
"253 12 OFFCURVE",
"189 29 OFFCURVE",
"129 66 OFFCURVE",
"93 136 OFFCURVE",
"93 184 QCURVE"
);
}
);
width = 566;
},
{
layerId = "8A94633D-DA21-409C-A8B7-00A83612E8B2";
paths = (
{
closed = 1;
nodes = (
"225 101 OFFCURVE",
"184 162 OFFCURVE",
"184 230 QCURVE",
"184 701 LINE",
"74 701 LINE",
"74 186 LINE",
"74 133 OFFCURVE",
"111 55 OFFCURVE",
"174 13 OFFCURVE",
"245 -7 OFFCURVE",
"325 -7 OFFCURVE",
"395 13 OFFCURVE",
"458 55 OFFCURVE",
"495 133 OFFCURVE",
"495 186 QCURVE",
"495 701 LINE",
"385 701 LINE",
"385 230 LINE",
"385 162 OFFCURVE",
"344 101 OFFCURVE",
"284 101 QCURVE"
);
}
);
width = 566;
}
);
unicode = 0055;
},
{
glyphname = V;
lastChange = "2018-08-09 15:11:51 +0000";
layers = (
{
layerId = "BADA37E3-C95E-4946-BA48-1F986F6D85A7";
paths = (
{
closed = 1;
nodes = (
"356 0 LINE",
"556 700 LINE",
"496 700 LINE",
"317 69 LINE",
"138 700 LINE",
"78 700 LINE",
"279 0 LINE"
);
}
);
width = 589;
},
{
layerId = "77B00D75-0619-4FB7-8D17-EB9FCD2DF18B";
paths = (
{
closed = 1;
nodes = (
"329 0 LINE",
"556 700 LINE",
"537 700 LINE",
"317 27 LINE",
"97 700 LINE",
"78 700 LINE",
"307 0 LINE"
);
}
);
width = 595;
},
{
layerId = "8A94633D-DA21-409C-A8B7-00A83612E8B2";
paths = (
{
closed = 1;
nodes = (
"382 0 LINE",
"556 700 LINE",
"429 700 LINE",
"317 216 LINE",
"202 700 LINE",
"78 700 LINE",
"253 0 LINE"
);
}
);
width = 595;
}
);
unicode = 0056;
},
{
glyphname = W;
lastChange = "2018-08-09 15:11:51 +0000";
layers = (
{
layerId = "BADA37E3-C95E-4946-BA48-1F986F6D85A7";
paths = (
{
closed = 1;
nodes = (
"328 0 LINE",
"427 599 LINE",
"526 0 LINE",
"611 0 LINE",
"774 700 LINE",
"714 700 LINE",
"573 69 LINE",
"466 700 LINE",
"388 700 LINE",
"281 69 LINE",
"138 700 LINE",
"78 700 LINE",
"243 0 LINE"
);
}
);
width = 807;
},
{
layerId = "77B00D75-0619-4FB7-8D17-EB9FCD2DF18B";
paths = (
{
closed = 1;
nodes = (
"282 0 LINE",
"427 653 LINE",
"572 0 LINE",
"593 0 LINE",
"774 700 LINE",
"752 700 LINE",
"583 35 LINE",
"437 700 LINE",
"417 700 LINE",
"271 36 LINE",
"99 700 LINE",
"78 700 LINE",
"261 0 LINE"
);
}
);
width = 813;
},
{
layerId = "8A94633D-DA21-409C-A8B7-00A83612E8B2";
paths = (
{
closed = 1;
nodes = (
"340 0 LINE",
"427 353 LINE",
"516 0 LINE",
"640 0 LINE",
"774 700 LINE",
"648 700 LINE",
"573 252 LINE",
"466 700 LINE",
"388 700 LINE",
"281 252 LINE",
"199 700 LINE",
"78 700 LINE",
"212 0 LINE"
);
}
);
width = 813;
}
);
unicode = 0057;
},
{
glyphname = X;
lastChange = "2018-08-09 15:11:51 +0000";
layers = (
{
layerId = "BADA37E3-C95E-4946-BA48-1F986F6D85A7";
paths = (
{
closed = 1;
nodes = (
"147 0 LINE",
"332 294 LINE",
"516 0 LINE",
"585 0 LINE",
"366 352 LINE",
"569 700 LINE",
"506 700 LINE",
"332 406 LINE",
"160 700 LINE",
"97 700 LINE",
"299 352 LINE",
"78 0 LINE"
);
}
);
width = 628;
},
{
layerId = "77B00D75-0619-4FB7-8D17-EB9FCD2DF18B";
paths = (
{
closed = 1;
nodes = (
"60 0 LINE",
"289 346 LINE",
"520 0 LINE",
"542 3 LINE",
"302 364 LINE",
"526 700 LINE",
"502 700 LINE",
"289 382 LINE",
"76 700 LINE",
"54 700 LINE",
"278 364 LINE",
"35 0 LINE"
);
}
);
width = 581;
},
{
layerId = "8A94633D-DA21-409C-A8B7-00A83612E8B2";
paths = (
{
closed = 1;
nodes = (
"215 0 LINE",
"362 244 LINE",
"514 0 LINE",
"655 0 LINE",
"433 359 LINE",
"638 700 LINE",
"507 700 LINE",
"367 468 LINE",
"220 700 LINE",
"90 700 LINE",
"296 350 LINE",
"78 0 LINE"
);
}
);
width = 694;
}
);
unicode = 0058;
},
{
glyphname = Y;
lastChange = "2018-08-09 15:11:51 +0000";
layers = (
{
layerId = "BADA37E3-C95E-4946-BA48-1F986F6D85A7";
paths = (
{
closed = 1;
nodes = (
"449 0 OFFCURVE",
"504 83 OFFCURVE",
"504 156 QCURVE",
"504 700 LINE",
"447 700 LINE",
"447 400 LINE",
"436 350 OFFCURVE",
"348 300 OFFCURVE",
"212 300 OFFCURVE",
"116 373 OFFCURVE",
"116 443 QCURVE",
"116 700 LINE",
"60 700 LINE",
"60 453 LINE",
"60 350 OFFCURVE",
"183 245 OFFCURVE",
"289 245 QCURVE",
"330 245 OFFCURVE",
"420 270 OFFCURVE",
"447 294 QCURVE",
"447 152 LINE",
"447 53 OFFCURVE",
"386 30 QCURVE",
"399 -7 LINE"
);
}
);
width = 560;
},
{
layerId = "77B00D75-0619-4FB7-8D17-EB9FCD2DF18B";
paths = (
{
closed = 1;
nodes = (
"503 19 OFFCURVE",
"503 146 QCURVE",
"503 700 LINE",
"484 700 LINE",
"484 405 LINE",
"475 345 OFFCURVE",
"369 264 OFFCURVE",
"289 264 QCURVE",
"183 264 OFFCURVE",
"79 365 OFFCURVE",
"79 458 QCURVE",
"79 700 LINE",
"60 700 LINE",
"60 453 LINE",
"60 350 OFFCURVE",
"183 245 OFFCURVE",
"289 245 QCURVE",
"340 245 OFFCURVE",
"454 289 OFFCURVE",
"484 342 QCURVE",
"484 152 LINE",
"484 110 OFFCURVE",
"476 86 QCURVE",
"471 74 OFFCURVE",
"462 55 OFFCURVE",
"447 39 OFFCURVE",
"437 30 OFFCURVE",
"419 21 OFFCURVE",
"402 11 OFFCURVE",
"393 11 QCURVE",
"399 -7 LINE"
);
}
);
width = 548;
},
{
layerId = "8A94633D-DA21-409C-A8B7-00A83612E8B2";
paths = (
{
closed = 1;
nodes = (
"424 -11 OFFCURVE",
"492 77 OFFCURVE",
"492 156 QCURVE",
"492 700 LINE",
"382 700 LINE",
"382 343 LINE",
"378 340 LINE",
"375 336 OFFCURVE",
"371 332 OFFCURVE",
"362 324 OFFCURVE",
"354 320 OFFCURVE",
"341 313 OFFCURVE",
"327 309 OFFCURVE",
"310 305 OFFCURVE",
"289 303 OFFCURVE",
"277 303 QCURVE",
"158 303 OFFCURVE",
"158 423 QCURVE",
"158 700 LINE",
"48 700 LINE",
"48 413 LINE",
"48 313 OFFCURVE",
"174 195 OFFCURVE",
"277 195 QCURVE",
"332 195 OFFCURVE",
"382 220 QCURVE",
"382 164 LINE",
"382 111 OFFCURVE",
"340 69 OFFCURVE",
"307 65 QCURVE",
"342 -19 LINE"
);
}
);
width = 548;
}
);
unicode = 0059;
},
{
glyphname = Z;
lastChange = "2018-08-09 15:11:51 +0000";
layers = (
{
layerId = "BADA37E3-C95E-4946-BA48-1F986F6D85A7";
paths = (
{
closed = 1;
nodes = (
"518 0 LINE",
"518 51 LINE",
"102 51 LINE",
"512 650 LINE",
"512 700 LINE",
"44 700 LINE",
"44 649 LINE",
"441 649 LINE",
"31 50 LINE",
"31 0 LINE"
);
}
);
width = 550;
},
{
layerId = "77B00D75-0619-4FB7-8D17-EB9FCD2DF18B";
paths = (
{
closed = 1;
nodes = (
"518 0 LINE",
"518 19 LINE",
"55 19 LINE",
"512 681 LINE",
"512 700 LINE",
"44 700 LINE",
"45 681 LINE",
"488 681 LINE",
"31 19 LINE",
"31 0 LINE"
);
}
);
width = 550;
},
{
layerId = "8A94633D-DA21-409C-A8B7-00A83612E8B2";
paths = (
{
closed = 1;
nodes = (
"518 0 LINE",
"518 104 LINE",
"168 104 LINE",
"512 590 LINE",
"512 700 LINE",
"44 700 LINE",
"44 590 LINE",
"373 590 LINE",
"31 101 LINE",
"31 0 LINE"
);
}
);
width = 550;
}
);
unicode = 005A;
},
{
glyphname = bracketleft;
lastChange = "2018-08-09 15:11:51 +0000";
layers = (
{
layerId = "BADA37E3-C95E-4946-BA48-1F986F6D85A7";
paths = (
{
closed = 1;
nodes = (
"239 -114 LINE",
"239 -69 LINE",
"134 -59 LINE",
"134 762 LINE",
"239 772 LINE",
"239 817 LINE",
"78 817 LINE",
"78 -114 LINE"
);
}
);
width = 319;
},
{
layerId = "77B00D75-0619-4FB7-8D17-EB9FCD2DF18B";
paths = (
{
closed = 1;
nodes = (
"239 -114 LINE",
"239 -96 LINE",
"97 -95 LINE",
"97 799 LINE",
"239 800 LINE",
"239 817 LINE",
"78 817 LINE",
"78 -114 LINE"
);
}
);
width = 319;
},
{
layerId = "8A94633D-DA21-409C-A8B7-00A83612E8B2";
paths = (
{
closed = 1;
nodes = (
"239 -114 LINE",
"239 -9 LINE",
"188 1 LINE",
"188 702 LINE",
"239 712 LINE",
"239 817 LINE",
"78 817 LINE",
"78 -114 LINE"
);
}
);
width = 319;
}
);
unicode = 005B;
},
{
glyphname = backslash;
lastChange = "2018-08-09 15:11:51 +0000";
layers = (
{
layerId = "BADA37E3-C95E-4946-BA48-1F986F6D85A7";
paths = (
{
closed = 1;
nodes = (
"451 -114 LINE",
"127 817 LINE",
"70 817 LINE",
"390 -114 LINE"
);
}
);
width = 492;
},
{
layerId = "77B00D75-0619-4FB7-8D17-EB9FCD2DF18B";
paths = (
{
closed = 1;
nodes = (
"422 -114 LINE",
"98 817 LINE",
"78 817 LINE",
"402 -114 LINE"
);
}
);
width = 461;
},
{
layerId = "8A94633D-DA21-409C-A8B7-00A83612E8B2";
paths = (
{
closed = 1;
nodes = (
"522 -114 LINE",
"198 817 LINE",
"78 817 LINE",
"405 -114 LINE"
);
}
);
width = 561;
}
);
unicode = 005C;
},
{
glyphname = bracketright;
lastChange = "2018-08-09 15:11:51 +0000";
layers = (
{
layerId = "BADA37E3-C95E-4946-BA48-1F986F6D85A7";
paths = (
{
closed = 1;
nodes = (
"239 -114 LINE",
"239 817 LINE",
"78 817 LINE",
"78 772 LINE",
"183 762 LINE",
"183 -59 LINE",
"78 -69 LINE",
"78 -114 LINE"
);
}
);
width = 319;
},
{
layerId = "77B00D75-0619-4FB7-8D17-EB9FCD2DF18B";
paths = (
{
closed = 1;
nodes = (
"239 -114 LINE",
"239 817 LINE",
"78 817 LINE",
"78 800 LINE",
"220 799 LINE",
"220 -95 LINE",
"78 -96 LINE",
"78 -114 LINE"
);
}
);
width = 319;
},
{
layerId = "8A94633D-DA21-409C-A8B7-00A83612E8B2";
paths = (
{
closed = 1;
nodes = (
"239 -114 LINE",
"239 817 LINE",
"78 817 LINE",
"78 712 LINE",
"129 702 LINE",
"129 1 LINE",
"78 -9 LINE",
"78 -114 LINE"
);
}
);
width = 319;
}
);
unicode = 005D;
},
{
glyphname = asciicircum;
lastChange = "2018-08-09 15:11:51 +0000";
layers = (
{
layerId = "BADA37E3-C95E-4946-BA48-1F986F6D85A7";
paths = (
{
closed = 1;
nodes = (
"225 823 LINE",
"330 719 LINE",
"368 758 LINE",
"226 899 LINE",
"78 758 LINE",
"116 719 LINE"
);
}
);
width = 401;
},
{
layerId = "77B00D75-0619-4FB7-8D17-EB9FCD2DF18B";
paths = (
{
closed = 1;
nodes = (
"368 758 LINE",
"226 899 LINE",
"78 758 LINE",
"92 743 LINE",
"225 870 LINE",
"353 742 LINE"
);
}
);
width = 407;
},
{
layerId = "8A94633D-DA21-409C-A8B7-00A83612E8B2";
paths = (
{
closed = 1;
nodes = (
"225 802 LINE",
"301 719 LINE",
"368 758 LINE",
"226 899 LINE",
"78 758 LINE",
"144 719 LINE"
);
}
);
width = 407;
}
);
unicode = 005E;
},
{
glyphname = underscore;
lastChange = "2018-08-09 15:11:51 +0000";
layers = (
{
layerId = "BADA37E3-C95E-4946-BA48-1F986F6D85A7";
paths = (
{
closed = 1;
nodes = (
"396 -55 LINE",
"396 0 LINE",
"76 0 LINE",
"76 -55 LINE"
);
}
);
width = 353;
},
{
layerId = "77B00D75-0619-4FB7-8D17-EB9FCD2DF18B";
paths = (
{
closed = 1;
nodes = (
"396 -19 LINE",
"396 0 LINE",
"76 0 LINE",
"76 -19 LINE"
);
}
);
width = 514;
},
{
layerId = "8A94633D-DA21-409C-A8B7-00A83612E8B2";
paths = (
{
closed = 1;
nodes = (
"387 -75 LINE",
"387 0 LINE",
"67 0 LINE",
"67 -75 LINE"
);
}
);
width = 344;
}
);
unicode = 005F;
},
{
glyphname = grave;
lastChange = "2018-08-09 15:11:51 +0000";
layers = (
{
layerId = "BADA37E3-C95E-4946-BA48-1F986F6D85A7";
paths = (
{
closed = 1;
nodes = (
"164 590 LINE",
"113 708 LINE",
"102 731 OFFCURVE",
"81 731 QCURVE",
"75 731 OFFCURVE",
"68 729 QCURVE",
"46 722 OFFCURVE",
"46 695 QCURVE",
"46 688 OFFCURVE",
"51 682 QCURVE",
"120 590 LINE"
);
}
);
width = 222;
},
{
layerId = "77B00D75-0619-4FB7-8D17-EB9FCD2DF18B";
paths = (
{
closed = 1;
nodes = (
"133 588 LINE",
"78 716 LINE",
"73 729 OFFCURVE",
"63 729 QCURVE",
"59 729 OFFCURVE",
"46 723 OFFCURVE",
"46 709 OFFCURVE",
"51 701 QCURVE",
"114 588 LINE"
);
}
);
width = 222;
},
{
layerId = "8A94633D-DA21-409C-A8B7-00A83612E8B2";
paths = (
{
closed = 1;
nodes = (
"184 590 LINE",
"138 698 LINE",
"128 721 OFFCURVE",
"105 728 QCURVE",
"94 732 OFFCURVE",
"86 732 QCURVE",
"77 732 OFFCURVE",
"71 728 QCURVE",
"51 718 OFFCURVE",
"47 698 QCURVE",
"46 695 OFFCURVE",
"46 692 QCURVE",
"46 674 OFFCURVE",
"62 653 QCURVE",
"111 590 LINE"
);
}
);
width = 222;
}
);
unicode = 0060;
},
{
glyphname = a;
lastChange = "2018-08-09 15:11:51 +0000";
layers = (
{
layerId = "BADA37E3-C95E-4946-BA48-1F986F6D85A7";
paths = (
{
closed = 1;
nodes = (
"318 -10 OFFCURVE",
"422 0 QCURVE",
"422 298 LINE",
"422 336 OFFCURVE",
"419 371 QCURVE",
"417 394 OFFCURVE",
"405 421 OFFCURVE",
"387 457 OFFCURVE",
"355 479 OFFCURVE",
"334 490 QCURVE",
"295 509 OFFCURVE",
"214 509 QCURVE",
"211 466 LINE",
"302 466 OFFCURVE",
"366 401 OFFCURVE",
"366 346 QCURVE",
"295 402 OFFCURVE",
"177 402 QCURVE",
"142 402 OFFCURVE",
"106 385 QCURVE",
"37 351 OFFCURVE",
"37 252 QCURVE",
"37 169 LINE",
"37 -10 OFFCURVE",
"256 -10 QCURVE"
);
},
{
closed = 1;
nodes = (
"312 39 OFFCURVE",
"206 39 OFFCURVE",
"164 54 QCURVE",
"92 79 OFFCURVE",
"92 162 QCURVE",
"92 249 LINE",
"92 304 OFFCURVE",
"146 351 OFFCURVE",
"184 351 QCURVE",
"190 351 OFFCURVE",
"196 350 QCURVE",
"283 343 OFFCURVE",
"366 303 QCURVE",
"366 46 LINE"
);
}
);
width = 458;
},
{
layerId = "77B00D75-0619-4FB7-8D17-EB9FCD2DF18B";
paths = (
{
closed = 1;
nodes = (
"318 -10 OFFCURVE",
"422 0 QCURVE",
"422 298 LINE",
"422 336 OFFCURVE",
"419 371 QCURVE",
"417 394 OFFCURVE",
"405 421 OFFCURVE",
"387 457 OFFCURVE",
"355 479 OFFCURVE",
"334 490 QCURVE",
"295 509 OFFCURVE",
"214 509 QCURVE",
"212 490 LINE",
"218 490 OFFCURVE",
"224 490 QCURVE",
"403 490 OFFCURVE",
"403 346 QCURVE",
"316 402 OFFCURVE",
"200 402 QCURVE",
"147 402 OFFCURVE",
"110 384 QCURVE",
"37 348 OFFCURVE",
"37 252 QCURVE",
"37 169 LINE",
"37 -10 OFFCURVE",
"256 -10 QCURVE"
);
},
{
closed = 1;
nodes = (
"323 7 OFFCURVE",
"244 7 OFFCURVE",
"163 14 OFFCURVE",
"99 45 OFFCURVE",
"56 112 OFFCURVE",
"56 162 QCURVE",
"56 249 LINE",
"56 305 OFFCURVE",
"111 372 OFFCURVE",
"152 380 QCURVE",
"175 384 OFFCURVE",
"220 384 OFFCURVE",
"242 381 QCURVE",
"339 369 OFFCURVE",
"403 323 QCURVE",
"403 18 LINE"
);
}
);
width = 458;
},
{
layerId = "8A94633D-DA21-409C-A8B7-00A83612E8B2";
paths = (
{
closed = 1;
nodes = (
"318 -10 OFFCURVE",
"422 0 QCURVE",
"422 298 LINE",
"422 322 OFFCURVE",
"421 348 OFFCURVE",
"417 394 OFFCURVE",
"405 421 OFFCURVE",
"387 457 OFFCURVE",
"355 479 OFFCURVE",
"313 500 OFFCURVE",
"252 509 OFFCURVE",
"214 509 QCURVE",
"205 433 LINE",
"312 433 OFFCURVE",
"312 369 QCURVE",
"291 381 OFFCURVE",
"227 398 OFFCURVE",
"183 400 QCURVE",
"178 401 OFFCURVE",
"172 401 QCURVE",
"135 401 OFFCURVE",
"106 385 QCURVE",
"37 351 OFFCURVE",
"37 252 QCURVE",
"37 169 LINE",
"37 162 OFFCURVE",
"37 155 QCURVE",
"45 10 OFFCURVE",
"209 -8 QCURVE",
"228 -10 OFFCURVE",
"256 -10 QCURVE"
);
},
{
closed = 1;
nodes = (
"148 91 OFFCURVE",
"148 183 QCURVE",
"148 238 LINE",
"148 268 OFFCURVE",
"168 280 QCURVE",
"182 288 OFFCURVE",
"200 288 QCURVE",
"208 288 OFFCURVE",
"216 287 QCURVE",
"245 282 OFFCURVE",
"296 263 OFFCURVE",
"312 252 QCURVE",
"312 97 LINE",
"280 91 OFFCURVE",
"254 91 QCURVE"
);
}
);
width = 458;
}
);
unicode = 0061;
},
{
glyphname = b;
lastChange = "2018-08-09 15:11:51 +0000";
layers = (
{
layerId = "BADA37E3-C95E-4946-BA48-1F986F6D85A7";
paths = (
{
closed = 1;
nodes = (
"164 -12 OFFCURVE",
"310 -12 OFFCURVE",
"369 18 QCURVE",
"447 58 OFFCURVE",
"447 157 QCURVE",
"447 346 LINE",
"447 451 OFFCURVE",
"362 490 QCURVE",
"321 509 OFFCURVE",
"266 509 QCURVE",
"183 509 OFFCURVE",
"134 474 QCURVE",
"134 700 LINE",
"78 700 LINE",
"78 0 LINE"
);
},
{
closed = 1;
nodes = (
"190 39 OFFCURVE",
"134 48 QCURVE",
"134 425 LINE",
"195 459 OFFCURVE",
"330 459 OFFCURVE",
"364 424 QCURVE",
"392 395 OFFCURVE",
"392 343 QCURVE",
"392 156 LINE",
"392 39 OFFCURVE",
"235 39 QCURVE"
);
}
);
width = 480;
},
{
layerId = "77B00D75-0619-4FB7-8D17-EB9FCD2DF18B";
paths = (
{
closed = 1;
nodes = (
"164 -12 OFFCURVE",
"310 -12 OFFCURVE",
"369 18 QCURVE",
"447 58 OFFCURVE",
"447 157 QCURVE",
"447 346 LINE",
"447 451 OFFCURVE",
"362 490 QCURVE",
"320 509 OFFCURVE",
"164 509 OFFCURVE",
"97 477 QCURVE",
"97 700 LINE",
"78 700 LINE",
"78 0 LINE"
);
},
{
closed = 1;
nodes = (
"161 7 OFFCURVE",
"97 21 QCURVE",
"97 457 LINE",
"165 491 OFFCURVE",
"257 491 QCURVE",
"277 491 OFFCURVE",
"296 489 QCURVE",
"352 484 OFFCURVE",
"428 410 OFFCURVE",
"428 343 QCURVE",
"428 156 LINE",
"428 7 OFFCURVE",
"220 7 QCURVE"
);
}
);
width = 486;
},
{
layerId = "8A94633D-DA21-409C-A8B7-00A83612E8B2";
paths = (
{
closed = 1;
nodes = (
"164 -12 OFFCURVE",
"310 -12 OFFCURVE",
"369 18 QCURVE",
"447 58 OFFCURVE",
"447 157 QCURVE",
"447 346 LINE",
"447 451 OFFCURVE",
"362 490 QCURVE",
"321 509 OFFCURVE",
"268 509 QCURVE",
"231 509 OFFCURVE",
"188 500 QCURVE",
"188 700 LINE",
"78 700 LINE",
"78 0 LINE"
);
},
{
closed = 1;
nodes = (
"205 90 OFFCURVE",
"188 96 QCURVE",
"188 382 LINE",
"198 391 OFFCURVE",
"222 396 QCURVE",
"237 398 OFFCURVE",
"254 398 QCURVE",
"263 398 OFFCURVE",
"272 398 QCURVE",
"298 395 OFFCURVE",
"338 353 OFFCURVE",
"338 315 QCURVE",
"338 155 LINE",
"338 112 OFFCURVE",
"282 98 QCURVE",
"251 90 OFFCURVE",
"226 90 QCURVE"
);
}
);
width = 486;
}
);
unicode = 0062;
},
{
glyphname = c;
lastChange = "2018-08-09 15:11:51 +0000";
layers = (
{
layerId = "BADA37E3-C95E-4946-BA48-1F986F6D85A7";
paths = (
{
closed = 1;
nodes = (
"190 -11 OFFCURVE",
"294 -11 OFFCURVE",
"358 6 QCURVE",
"346 51 LINE",
"291 38 OFFCURVE",
"246 38 QCURVE",
"92 38 OFFCURVE",
"92 169 QCURVE",
"92 314 LINE",
"92 369 OFFCURVE",
"136 439 OFFCURVE",
"200 459 OFFCURVE",
"283 459 OFFCURVE",
"340 437 QCURVE",
"356 478 LINE",
"288 510 OFFCURVE",
"222 510 QCURVE",
"112 510 OFFCURVE",
"64 427 QCURVE",
"36 379 OFFCURVE",
"36 308 QCURVE",
"36 180 LINE",
"36 39 OFFCURVE",
"140 5 QCURVE"
);
}
);
width = 383;
},
{
layerId = "77B00D75-0619-4FB7-8D17-EB9FCD2DF18B";
paths = (
{
closed = 1;
nodes = (
"190 -11 OFFCURVE",
"294 -11 OFFCURVE",
"358 6 QCURVE",
"353 25 LINE",
"293 8 OFFCURVE",
"193 8 OFFCURVE",
"108 33 OFFCURVE",
"54 109 OFFCURVE",
"55 169 QCURVE",
"55 314 LINE",
"55 377 OFFCURVE",
"110 463 OFFCURVE",
"186 490 OFFCURVE",
"223 490 QCURVE",
"288 490 OFFCURVE",
"349 458 QCURVE",
"356 478 LINE",
"288 510 OFFCURVE",
"222 510 QCURVE",
"112 510 OFFCURVE",
"64 427 QCURVE",
"36 379 OFFCURVE",
"36 308 QCURVE",
"36 180 LINE",
"36 39 OFFCURVE",
"140 5 QCURVE"
);
}
);
width = 383;
},
{
layerId = "8A94633D-DA21-409C-A8B7-00A83612E8B2";
paths = (
{
closed = 1;
nodes = (
"294 -11 OFFCURVE",
"358 6 QCURVE",
"328 114 LINE",
"312 107 OFFCURVE",
"284 103 QCURVE",
"262 100 OFFCURVE",
"237 100 QCURVE",
"230 100 OFFCURVE",
"224 100 QCURVE",
"192 101 OFFCURVE",
"146 136 OFFCURVE",
"146 169 QCURVE",
"146 314 LINE",
"146 370 OFFCURVE",
"192 392 QCURVE",
"210 401 OFFCURVE",
"237 401 QCURVE",
"274 401 OFFCURVE",
"326 383 QCURVE",
"356 478 LINE",
"298 505 OFFCURVE",
"241 509 QCURVE",
"231 510 OFFCURVE",
"222 510 QCURVE",
"176 510 OFFCURVE",
"138 494 QCURVE",
"92 475 OFFCURVE",
"36 379 OFFCURVE",
"36 308 QCURVE",
"36 180 LINE",
"36 105 OFFCURVE",
"89 22 OFFCURVE",
"148 2 QCURVE",
"190 -11 OFFCURVE",
"239 -11 QCURVE"
);
}
);
width = 383;
}
);
unicode = 0063;
},
{
glyphname = d;
lastChange = "2018-08-09 15:11:51 +0000";
layers = (
{
layerId = "BADA37E3-C95E-4946-BA48-1F986F6D85A7";
paths = (
{
closed = 1;
nodes = (
"447 700 LINE",
"391 700 LINE",
"391 474 LINE",
"342 509 OFFCURVE",
"259 509 QCURVE",
"204 509 OFFCURVE",
"163 490 QCURVE",
"78 451 OFFCURVE",
"78 346 QCURVE",
"78 157 LINE",
"78 58 OFFCURVE",
"156 18 QCURVE",
"215 -12 OFFCURVE",
"361 -12 OFFCURVE",
"447 0 QCURVE"
);
},
{
closed = 1;
nodes = (
"133 39 OFFCURVE",
"133 156 QCURVE",
"133 343 LINE",
"133 395 OFFCURVE",
"195 459 OFFCURVE",
"258 459 QCURVE",
"330 459 OFFCURVE",
"391 425 QCURVE",
"391 48 LINE",
"335 39 OFFCURVE",
"290 39 QCURVE"
);
}
);
width = 480;
},
{
layerId = "77B00D75-0619-4FB7-8D17-EB9FCD2DF18B";
paths = (
{
closed = 1;
nodes = (
"423 700 LINE",
"404 700 LINE",
"404 477 LINE",
"337 509 OFFCURVE",
"181 509 OFFCURVE",
"139 490 QCURVE",
"54 451 OFFCURVE",
"54 346 QCURVE",
"54 157 LINE",
"54 58 OFFCURVE",
"132 18 QCURVE",
"191 -12 OFFCURVE",
"337 -12 OFFCURVE",
"423 0 QCURVE"
);
},
{
closed = 1;
nodes = (
"73 7 OFFCURVE",
"73 156 QCURVE",
"73 343 LINE",
"73 410 OFFCURVE",
"149 484 OFFCURVE",
"204 489 QCURVE",
"224 491 OFFCURVE",
"244 491 QCURVE",
"336 491 OFFCURVE",
"404 457 QCURVE",
"404 21 LINE",
"340 7 OFFCURVE",
"281 7 QCURVE"
);
}
);
width = 462;
},
{
layerId = "8A94633D-DA21-409C-A8B7-00A83612E8B2";
paths = (
{
closed = 1;
nodes = (
"447 700 LINE",
"338 700 LINE",
"338 498 LINE",
"320 505 OFFCURVE",
"294 508 QCURVE",
"282 510 OFFCURVE",
"267 510 QCURVE",
"250 510 OFFCURVE",
"230 508 QCURVE",
"193 504 OFFCURVE",
"163 490 QCURVE",
"78 451 OFFCURVE",
"78 346 QCURVE",
"78 157 LINE",
"78 58 OFFCURVE",
"156 18 QCURVE",
"215 -12 OFFCURVE",
"361 -12 OFFCURVE",
"447 0 QCURVE"
);
},
{
closed = 1;
nodes = (
"257 90 OFFCURVE",
"233 99 QCURVE",
"187 116 OFFCURVE",
"187 150 QCURVE",
"187 306 LINE",
"187 342 OFFCURVE",
"216 387 OFFCURVE",
"239 394 QCURVE",
"255 398 OFFCURVE",
"272 398 QCURVE",
"280 398 OFFCURVE",
"288 397 QCURVE",
"314 394 OFFCURVE",
"338 382 QCURVE",
"338 97 LINE",
"310 90 OFFCURVE",
"286 90 QCURVE"
);
}
);
width = 486;
}
);
unicode = 0064;
},
{
glyphname = e;
lastChange = "2018-08-09 15:11:51 +0000";
layers = (
{
layerId = "BADA37E3-C95E-4946-BA48-1F986F6D85A7";
paths = (
{
closed = 1;
nodes = (
"293 -12 OFFCURVE",
"370 35 QCURVE",
"348 78 LINE",
"271 37 OFFCURVE",
"202 37 QCURVE",
"160 37 OFFCURVE",
"130 56 QCURVE",
"91 80 OFFCURVE",
"91 134 QCURVE",
"91 195 LINE",
"395 212 LINE",
"395 342 LINE",
"395 421 OFFCURVE",
"302 510 OFFCURVE",
"136 510 OFFCURVE",
"35 420 OFFCURVE",
"35 339 QCURVE",
"35 134 LINE",
"35 -12 OFFCURVE",
"209 -12 QCURVE"
);
},
{
closed = 1;
nodes = (
"91 338 LINE",
"91 402 OFFCURVE",
"163 462 OFFCURVE",
"218 462 QCURVE",
"243 462 OFFCURVE",
"293 447 OFFCURVE",
"339 392 OFFCURVE",
"339 349 QCURVE",
"339 262 LINE",
"91 250 LINE"
);
}
);
width = 434;
},
{
layerId = "77B00D75-0619-4FB7-8D17-EB9FCD2DF18B";
paths = (
{
closed = 1;
nodes = (
"293 -12 OFFCURVE",
"370 35 QCURVE",
"361 52 LINE",
"276 4 OFFCURVE",
"197 4 QCURVE",
"140 4 OFFCURVE",
"54 66 OFFCURVE",
"54 132 QCURVE",
"54 230 LINE",
"395 247 LINE",
"395 342 LINE",
"395 421 OFFCURVE",
"302 510 OFFCURVE",
"136 510 OFFCURVE",
"35 420 OFFCURVE",
"35 339 QCURVE",
"35 134 LINE",
"35 -12 OFFCURVE",
"209 -12 QCURVE"
);
},
{
closed = 1;
nodes = (
"54 340 LINE",
"54 418 OFFCURVE",
"151 491 OFFCURVE",
"283 491 OFFCURVE",
"376 422 OFFCURVE",
"376 343 QCURVE",
"376 266 LINE",
"54 248 LINE"
);
}
);
width = 434;
},
{
layerId = "8A94633D-DA21-409C-A8B7-00A83612E8B2";
paths = (
{
closed = 1;
nodes = (
"201 -12 OFFCURVE",
"205 -12 QCURVE",
"296 -10 OFFCURVE",
"370 35 QCURVE",
"330 130 LINE",
"251 90 OFFCURVE",
"206 90 QCURVE",
"199 90 OFFCURVE",
"192 91 QCURVE",
"146 98 OFFCURVE",
"146 149 QCURVE",
"146 177 LINE",
"395 190 LINE",
"395 342 LINE",
"395 421 OFFCURVE",
"302 510 OFFCURVE",
"136 510 OFFCURVE",
"35 420 OFFCURVE",
"35 339 QCURVE",
"35 134 LINE",
"35 59 OFFCURVE",
"81 22 QCURVE",
"125 -12 OFFCURVE",
"197 -12 QCURVE"
);
},
{
closed = 1;
nodes = (
"146 338 LINE",
"146 362 OFFCURVE",
"180 402 OFFCURVE",
"218 402 QCURVE",
"246 402 OFFCURVE",
"284 370 OFFCURVE",
"284 340 QCURVE",
"284 287 LINE",
"146 278 LINE"
);
}
);
width = 434;
}
);
unicode = 0065;
},
{
glyphname = f;
lastChange = "2018-08-09 15:11:51 +0000";
layers = (
{
layerId = "BADA37E3-C95E-4946-BA48-1F986F6D85A7";
paths = (
{
closed = 1;
nodes = (
"134 0 LINE",
"134 448 LINE",
"224 448 LINE",
"248 501 LINE",
"134 501 LINE",
"134 549 LINE",
"134 660 OFFCURVE",
"227 660 QCURVE",
"239 660 OFFCURVE",
"252 658 QCURVE",
"261 707 LINE",
"244 711 OFFCURVE",
"226 711 QCURVE",
"181 711 OFFCURVE",
"138 686 QCURVE",
"112 671 OFFCURVE",
"78 599 OFFCURVE",
"78 549 QCURVE",
"78 0 LINE"
);
}
);
width = 294;
},
{
layerId = "77B00D75-0619-4FB7-8D17-EB9FCD2DF18B";
paths = (
{
closed = 1;
nodes = (
"97 0 LINE",
"97 482 LINE",
"240 482 LINE",
"248 501 LINE",
"97 501 LINE",
"97 549 LINE",
"97 629 OFFCURVE",
"144 664 QCURVE",
"181 692 OFFCURVE",
"231 692 QCURVE",
"244 692 OFFCURVE",
"258 690 QCURVE",
"261 707 LINE",
"244 711 OFFCURVE",
"226 711 QCURVE",
"181 711 OFFCURVE",
"138 686 QCURVE",
"112 671 OFFCURVE",
"78 599 OFFCURVE",
"78 549 QCURVE",
"78 0 LINE"
);
}
);
width = 300;
},
{
layerId = "8A94633D-DA21-409C-A8B7-00A83612E8B2";
paths = (
{
closed = 1;
nodes = (
"190 0 LINE",
"190 398 LINE",
"253 398 LINE",
"277 501 LINE",
"190 501 LINE",
"190 549 LINE",
"190 583 OFFCURVE",
"206 599 QCURVE",
"220 612 OFFCURVE",
"235 612 QCURVE",
"238 612 OFFCURVE",
"240 612 QCURVE",
"258 609 OFFCURVE",
"268 607 QCURVE",
"286 707 LINE",
"260 710 OFFCURVE",
"232 712 QCURVE",
"229 712 OFFCURVE",
"225 712 QCURVE",
"201 712 OFFCURVE",
"177 704 QCURVE",
"149 694 OFFCURVE",
"105 661 OFFCURVE",
"78 594 OFFCURVE",
"78 549 QCURVE",
"78 0 LINE"
);
}
);
width = 325;
}
);
unicode = 0066;
},
{
glyphname = g;
lastChange = "2018-08-09 15:11:51 +0000";
layers = (
{
layerId = "BADA37E3-C95E-4946-BA48-1F986F6D85A7";
paths = (
{
closed = 1;
nodes = (
"364 -192 OFFCURVE",
"414 -124 OFFCURVE",
"414 -64 QCURVE",
"414 501 LINE",
"358 501 LINE",
"362 443 LINE",
"320 510 OFFCURVE",
"140 510 OFFCURVE",
"37 413 OFFCURVE",
"37 325 QCURVE",
"37 176 LINE",
"37 84 OFFCURVE",
"135 -12 OFFCURVE",
"316 -12 OFFCURVE",
"358 61 QCURVE",
"358 -63 LINE",
"358 -142 OFFCURVE",
"292 -167 QCURVE",
"307 -210 LINE"
);
},
{
closed = 1;
nodes = (
"93 320 LINE",
"93 394 OFFCURVE",
"170 459 OFFCURVE",
"278 459 OFFCURVE",
"358 398 OFFCURVE",
"358 336 QCURVE",
"358 173 LINE",
"358 109 OFFCURVE",
"279 40 OFFCURVE",
"164 40 OFFCURVE",
"93 104 OFFCURVE",
"93 167 QCURVE"
);
}
);
width = 448;
},
{
layerId = "77B00D75-0619-4FB7-8D17-EB9FCD2DF18B";
paths = (
{
closed = 1;
nodes = (
"364 -192 OFFCURVE",
"414 -124 OFFCURVE",
"414 -64 QCURVE",
"414 501 LINE",
"395 501 LINE",
"395 437 LINE",
"343 510 OFFCURVE",
"230 510 QCURVE",
"143 510 OFFCURVE",
"37 413 OFFCURVE",
"37 325 QCURVE",
"37 176 LINE",
"37 84 OFFCURVE",
"135 -12 OFFCURVE",
"223 -12 QCURVE",
"337 -12 OFFCURVE",
"395 75 QCURVE",
"395 -63 LINE",
"395 -130 OFFCURVE",
"364 -157 QCURVE",
"347 -171 OFFCURVE",
"324 -183 OFFCURVE",
"301 -192 QCURVE",
"307 -210 LINE"
);
},
{
closed = 1;
nodes = (
"141 6 OFFCURVE",
"56 95 OFFCURVE",
"56 167 QCURVE",
"56 320 LINE",
"56 361 OFFCURVE",
"81 425 OFFCURVE",
"100 443 QCURVE",
"149 491 OFFCURVE",
"230 491 QCURVE",
"358 491 OFFCURVE",
"395 397 QCURVE",
"395 160 LINE",
"395 106 OFFCURVE",
"366 70 QCURVE",
"314 6 OFFCURVE",
"223 6 QCURVE"
);
}
);
width = 448;
},
{
layerId = "8A94633D-DA21-409C-A8B7-00A83612E8B2";
paths = (
{
closed = 1;
nodes = (
"414 -210 OFFCURVE",
"414 -64 QCURVE",
"414 501 LINE",
"326 501 LINE",
"305 490 LINE",
"299 497 OFFCURVE",
"255 510 OFFCURVE",
"227 510 QCURVE",
"140 510 OFFCURVE",
"37 413 OFFCURVE",
"37 325 QCURVE",
"37 176 LINE",
"37 84 OFFCURVE",
"135 -12 OFFCURVE",
"223 -12 QCURVE",
"277 -12 OFFCURVE",
"304 8 QCURVE",
"304 -46 LINE",
"304 -85 OFFCURVE",
"265 -124 OFFCURVE",
"231 -124 QCURVE",
"257 -210 LINE"
);
},
{
closed = 1;
nodes = (
"147 94 OFFCURVE",
"147 191 QCURVE",
"147 320 LINE",
"147 354 OFFCURVE",
"182 401 OFFCURVE",
"223 401 QCURVE",
"304 401 OFFCURVE",
"304 315 QCURVE",
"304 231 LINE",
"304 158 OFFCURVE",
"272 94 OFFCURVE",
"223 94 QCURVE"
);
}
);
width = 448;
}
);
unicode = 0067;
},
{
glyphname = h;
lastChange = "2018-08-09 15:11:51 +0000";
layers = (
{
layerId = "BADA37E3-C95E-4946-BA48-1F986F6D85A7";
paths = (
{
closed = 1;
nodes = (
"120 0 LINE",
"120 425 LINE",
"181 459 OFFCURVE",
"316 459 OFFCURVE",
"350 424 QCURVE",
"378 395 OFFCURVE",
"378 343 QCURVE",
"378 0 LINE",
"433 0 LINE",
"433 346 LINE",
"433 452 OFFCURVE",
"348 491 QCURVE",
"309 510 OFFCURVE",
"255 510 QCURVE",
"170 510 OFFCURVE",
"120 474 QCURVE",
"120 700 LINE",
"64 700 LINE",
"64 0 LINE"
);
}
);
width = 493;
},
{
layerId = "77B00D75-0619-4FB7-8D17-EB9FCD2DF18B";
paths = (
{
closed = 1;
nodes = (
"83 0 LINE",
"83 454 LINE",
"154 491 OFFCURVE",
"245 491 QCURVE",
"268 491 OFFCURVE",
"291 488 QCURVE",
"343 481 OFFCURVE",
"414 408 OFFCURVE",
"414 347 QCURVE",
"414 0 LINE",
"433 0 LINE",
"433 346 LINE",
"433 450 OFFCURVE",
"348 489 QCURVE",
"307 510 OFFCURVE",
"151 510 OFFCURVE",
"83 475 QCURVE",
"83 700 LINE",
"64 700 LINE",
"64 0 LINE"
);
}
);
width = 493;
},
{
layerId = "8A94633D-DA21-409C-A8B7-00A83612E8B2";
paths = (
{
closed = 1;
nodes = (
"174 0 LINE",
"174 389 LINE",
"188 398 OFFCURVE",
"211 403 QCURVE",
"226 406 OFFCURVE",
"243 406 QCURVE",
"251 406 OFFCURVE",
"260 406 QCURVE",
"286 403 OFFCURVE",
"323 353 OFFCURVE",
"323 307 QCURVE",
"323 0 LINE",
"433 0 LINE",
"433 346 LINE",
"433 452 OFFCURVE",
"348 491 QCURVE",
"297 510 OFFCURVE",
"252 510 QCURVE",
"250 510 OFFCURVE",
"248 510 QCURVE",
"202 509 OFFCURVE",
"174 497 QCURVE",
"174 700 LINE",
"64 700 LINE",
"64 0 LINE"
);
}
);
width = 493;
}
);
unicode = 0068;
},
{
glyphname = i;
lastChange = "2018-08-09 15:11:51 +0000";
layers = (
{
layerId = "BADA37E3-C95E-4946-BA48-1F986F6D85A7";
paths = (
{
closed = 1;
nodes = (
"139 0 LINE",
"139 501 LINE",
"83 501 LINE",
"83 0 LINE"
);
},
{
closed = 1;
nodes = (
"145 690 OFFCURVE",
"126 710 OFFCURVE",
"98 710 OFFCURVE",
"78 690 OFFCURVE",
"78 664 OFFCURVE",
"98 643 OFFCURVE",
"125 643 OFFCURVE",
"145 663 OFFCURVE",
"145 676 QCURVE"
);
}
);
width = 225;
},
{
layerId = "77B00D75-0619-4FB7-8D17-EB9FCD2DF18B";
paths = (
{
closed = 1;
nodes = (
"101 0 LINE",
"101 501 LINE",
"82 501 LINE",
"82 0 LINE"
);
},
{
closed = 1;
nodes = (
"105 710 OFFCURVE",
"78 710 OFFCURVE",
"78 683 OFFCURVE",
"105 683 OFFCURVE",
"105 696 QCURVE"
);
}
);
width = 185;
},
{
layerId = "8A94633D-DA21-409C-A8B7-00A83612E8B2";
paths = (
{
closed = 1;
nodes = (
"190 0 LINE",
"190 501 LINE",
"80 501 LINE",
"80 0 LINE"
);
},
{
closed = 1;
nodes = (
"161 592 OFFCURVE",
"196 628 OFFCURVE",
"196 652 QCURVE",
"196 675 OFFCURVE",
"161 710 OFFCURVE",
"138 710 QCURVE",
"114 710 OFFCURVE",
"78 675 OFFCURVE",
"78 652 QCURVE",
"78 628 OFFCURVE",
"114 592 OFFCURVE",
"138 592 QCURVE"
);
}
);
width = 276;
}
);
unicode = 0069;
},
{
glyphname = j;
lastChange = "2018-08-09 15:11:51 +0000";
layers = (
{
layerId = "BADA37E3-C95E-4946-BA48-1F986F6D85A7";
paths = (
{
closed = 1;
nodes = (
"54 -209 OFFCURVE",
"122 -133 OFFCURVE",
"124 -75 QCURVE",
"124 501 LINE",
"0 501 LINE",
"23 449 LINE",
"68 446 LINE",
"68 -56 LINE",
"68 -110 OFFCURVE",
"42 -139 QCURVE",
"32 -150 OFFCURVE",
"0 -166 OFFCURVE",
"-7 -166 QCURVE",
"0 -209 LINE"
);
},
{
closed = 1;
nodes = (
"130 663 OFFCURVE",
"130 690 OFFCURVE",
"110 710 OFFCURVE",
"83 710 OFFCURVE",
"63 690 OFFCURVE",
"63 664 OFFCURVE",
"84 643 OFFCURVE",
"110 643 OFFCURVE",
"120 653 QCURVE"
);
}
);
width = 193;
},
{
layerId = "77B00D75-0619-4FB7-8D17-EB9FCD2DF18B";
paths = (
{
closed = 1;
nodes = (
"105 -193 OFFCURVE",
"105 -83 QCURVE",
"105 501 LINE",
"0 501 LINE",
"11 482 LINE",
"86 482 LINE",
"86 -82 LINE",
"86 -111 OFFCURVE",
"67 -155 OFFCURVE",
"43 -176 OFFCURVE",
"8 -191 OFFCURVE",
"-3 -191 QCURVE",
"0 -209 LINE"
);
},
{
closed = 1;
nodes = (
"109 710 OFFCURVE",
"82 710 OFFCURVE",
"82 683 OFFCURVE",
"109 683 OFFCURVE",
"109 696 QCURVE"
);
}
);
width = 196;
},
{
layerId = "8A94633D-DA21-409C-A8B7-00A83612E8B2";
paths = (
{
closed = 1;
nodes = (
"87 -209 OFFCURVE",
"180 -131 OFFCURVE",
"182 -75 QCURVE",
"182 501 LINE",
"-1 501 LINE",
"21 409 LINE",
"72 399 LINE",
"72 -35 LINE",
"72 -59 OFFCURVE",
"57 -94 OFFCURVE",
"38 -111 OFFCURVE",
"13 -122 OFFCURVE",
"4 -124 OFFCURVE",
"1 -124 QCURVE",
"31 -209 LINE"
);
},
{
closed = 1;
nodes = (
"187 628 OFFCURVE",
"187 676 OFFCURVE",
"153 710 OFFCURVE",
"105 710 OFFCURVE",
"69 676 OFFCURVE",
"69 628 OFFCURVE",
"105 592 OFFCURVE",
"153 592 OFFCURVE",
"170 610 QCURVE"
);
}
);
width = 236;
}
);
unicode = 006A;
},
{
glyphname = k;
lastChange = "2018-08-09 15:11:51 +0000";
layers = (
{
layerId = "BADA37E3-C95E-4946-BA48-1F986F6D85A7";
paths = (
{
closed = 1;
nodes = (
"123 0 LINE",
"123 272 LINE",
"175 317 LINE",
"367 0 LINE",
"434 0 LINE",
"283 239 OFFCURVE",
"215 352 QCURVE",
"363 481 LINE",
"323 520 LINE",
"123 335 LINE",
"123 700 LINE",
"67 700 LINE",
"67 0 LINE"
);
}
);
width = 434;
},
{
layerId = "77B00D75-0619-4FB7-8D17-EB9FCD2DF18B";
paths = (
{
closed = 1;
nodes = (
"86 0 LINE",
"86 277 LINE",
"185 366 LINE",
"411 0 LINE",
"434 0 LINE",
"305 204 OFFCURVE",
"199 380 QCURVE",
"337 507 LINE",
"323 520 LINE",
"86 301 LINE",
"86 700 LINE",
"67 700 LINE",
"67 0 LINE"
);
}
);
width = 438;
},
{
layerId = "8A94633D-DA21-409C-A8B7-00A83612E8B2";
paths = (
{
closed = 1;
nodes = (
"174 0 LINE",
"174 240 LINE",
"188 254 LINE",
"338 0 LINE",
"476 0 LINE",
"419 91 OFFCURVE",
"273 332 QCURVE",
"404 443 LINE",
"323 520 LINE",
"174 382 LINE",
"174 700 LINE",
"64 700 LINE",
"64 0 LINE"
);
}
);
width = 474;
}
);
unicode = 006B;
},
{
glyphname = l;
lastChange = "2018-08-09 15:11:51 +0000";
layers = (
{
layerId = "BADA37E3-C95E-4946-BA48-1F986F6D85A7";
paths = (
{
closed = 1;
nodes = (
"134 0 LINE",
"134 700 LINE",
"78 700 LINE",
"78 0 LINE"
);
}
);
width = 214;
},
{
layerId = "77B00D75-0619-4FB7-8D17-EB9FCD2DF18B";
paths = (
{
closed = 1;
nodes = (
"97 0 LINE",
"97 700 LINE",
"78 700 LINE",
"78 0 LINE"
);
}
);
width = 177;
},
{
layerId = "8A94633D-DA21-409C-A8B7-00A83612E8B2";
paths = (
{
closed = 1;
nodes = (
"188 0 LINE",
"188 700 LINE",
"78 700 LINE",
"78 0 LINE"
);
}
);
width = 268;
}
);
unicode = 006C;
},
{
glyphname = m;
lastChange = "2018-08-09 15:11:51 +0000";
layers = (
{
layerId = "BADA37E3-C95E-4946-BA48-1F986F6D85A7";
paths = (
{
closed = 1;
nodes = (
"134 0 LINE",
"134 425 LINE",
"194 458 OFFCURVE",
"317 458 OFFCURVE",
"347 424 QCURVE",
"372 395 OFFCURVE",
"372 343 QCURVE",
"372 0 LINE",
"427 0 LINE",
"427 346 LINE",
"427 390 OFFCURVE",
"410 424 QCURVE",
"447 442 LINE",
"481 455 OFFCURVE",
"522 458 OFFCURVE",
"555 458 OFFCURVE",
"609 444 OFFCURVE",
"647 388 OFFCURVE",
"647 343 QCURVE",
"647 0 LINE",
"702 0 LINE",
"702 346 LINE",
"702 417 OFFCURVE",
"618 509 OFFCURVE",
"546 509 QCURVE",
"470 509 OFFCURVE",
"385 461 QCURVE",
"339 508 OFFCURVE",
"198 508 OFFCURVE",
"129 469 QCURVE",
"134 501 LINE",
"78 501 LINE",
"78 0 LINE"
);
}
);
width = 735;
},
{
layerId = "77B00D75-0619-4FB7-8D17-EB9FCD2DF18B";
paths = (
{
closed = 1;
nodes = (
"97 0 LINE",
"97 454 LINE",
"131 473 OFFCURVE",
"178 482 QCURVE",
"249 490 LINE",
"315 490 OFFCURVE",
"352 458 QCURVE",
"384 429 OFFCURVE",
"384 376 QCURVE",
"384 0 LINE",
"403 0 LINE",
"403 333 LINE",
"403 420 OFFCURVE",
"392 438 QCURVE",
"446 465 LINE",
"497 489 OFFCURVE",
"559 489 QCURVE",
"579 489 OFFCURVE",
"640 467 OFFCURVE",
"683 397 OFFCURVE",
"683 344 QCURVE",
"683 0 LINE",
"702 0 LINE",
"702 346 LINE",
"702 455 OFFCURVE",
"623 494 QCURVE",
"588 511 OFFCURVE",
"498 511 OFFCURVE",
"405 466 OFFCURVE",
"384 454 QCURVE",
"352 502 OFFCURVE",
"267 508 QCURVE",
"243 509 LINE",
"170 509 OFFCURVE",
"97 476 QCURVE",
"97 501 LINE",
"78 501 LINE",
"78 0 LINE"
);
}
);
width = 741;
},
{
layerId = "8A94633D-DA21-409C-A8B7-00A83612E8B2";
paths = (
{
closed = 1;
nodes = (
"188 0 LINE",
"188 383 LINE",
"227 406 OFFCURVE",
"260 406 QCURVE",
"281 406 OFFCURVE",
"299 396 QCURVE",
"346 373 OFFCURVE",
"346 301 QCURVE",
"346 0 LINE",
"456 0 LINE",
"456 356 LINE",
"456 375 OFFCURVE",
"452 385 QCURVE",
"469 392 LINE",
"506 406 OFFCURVE",
"531 406 QCURVE",
"550 406 OFFCURVE",
"563 398 QCURVE",
"592 378 OFFCURVE",
"592 304 QCURVE",
"592 0 LINE",
"702 0 LINE",
"702 346 LINE",
"702 417 OFFCURVE",
"622 505 OFFCURVE",
"560 509 QCURVE",
"553 509 OFFCURVE",
"546 509 QCURVE",
"491 509 OFFCURVE",
"427 483 QCURVE",
"399 469 OFFCURVE",
"385 461 QCURVE",
"359 488 OFFCURVE",
"321 500 QCURVE",
"291 510 OFFCURVE",
"263 510 QCURVE",
"256 510 OFFCURVE",
"249 509 QCURVE",
"215 506 OFFCURVE",
"188 494 QCURVE",
"175 501 LINE",
"78 501 LINE",
"78 0 LINE"
);
}
);
width = 741;
}
);
unicode = 006D;
},
{
glyphname = n;
lastChange = "2018-08-09 15:11:51 +0000";
layers = (
{
layerId = "BADA37E3-C95E-4946-BA48-1F986F6D85A7";
paths = (
{
closed = 1;
nodes = (
"120 0 LINE",
"120 425 LINE",
"181 459 OFFCURVE",
"316 459 OFFCURVE",
"350 424 QCURVE",
"378 395 OFFCURVE",
"378 343 QCURVE",
"378 0 LINE",
"433 0 LINE",
"433 346 LINE",
"433 452 OFFCURVE",
"348 491 QCURVE",
"311 510 OFFCURVE",
"259 510 QCURVE",
"167 510 OFFCURVE",
"116 467 QCURVE",
"120 501 LINE",
"64 501 LINE",
"64 0 LINE"
);
}
);
width = 500;
},
{
layerId = "77B00D75-0619-4FB7-8D17-EB9FCD2DF18B";
paths = (
{
closed = 1;
nodes = (
"83 0 LINE",
"83 454 LINE",
"153 491 OFFCURVE",
"331 491 OFFCURVE",
"378 443 QCURVE",
"414 407 OFFCURVE",
"414 347 QCURVE",
"414 0 LINE",
"433 0 LINE",
"433 346 LINE",
"433 450 OFFCURVE",
"348 489 QCURVE",
"307 510 OFFCURVE",
"151 510 OFFCURVE",
"83 475 QCURVE",
"83 501 LINE",
"64 501 LINE",
"64 0 LINE"
);
}
);
width = 500;
},
{
layerId = "8A94633D-DA21-409C-A8B7-00A83612E8B2";
paths = (
{
closed = 1;
nodes = (
"173 0 LINE",
"173 386 LINE",
"210 404 OFFCURVE",
"241 404 QCURVE",
"262 404 OFFCURVE",
"280 395 QCURVE",
"323 373 OFFCURVE",
"323 315 QCURVE",
"323 0 LINE",
"433 0 LINE",
"433 346 LINE",
"433 452 OFFCURVE",
"348 491 QCURVE",
"307 510 OFFCURVE",
"261 510 QCURVE",
"220 510 OFFCURVE",
"174 495 QCURVE",
"161 501 LINE",
"64 501 LINE",
"64 0 LINE"
);
}
);
width = 500;
}
);
unicode = 006E;
},
{
glyphname = o;
lastChange = "2018-08-09 15:11:51 +0000";
layers = (
{
layerId = "BADA37E3-C95E-4946-BA48-1F986F6D85A7";
paths = (
{
closed = 1;
nodes = (
"78 101 OFFCURVE",
"173 -10 OFFCURVE",
"359 -10 OFFCURVE",
"451 100 OFFCURVE",
"451 184 QCURVE",
"451 316 LINE",
"451 407 OFFCURVE",
"353 512 OFFCURVE",
"175 512 OFFCURVE",
"78 411 OFFCURVE",
"78 316 QCURVE",
"78 184 LINE"
);
},
{
closed = 1;
nodes = (
"134 316 LINE",
"134 461 OFFCURVE",
"266 461 QCURVE",
"395 461 OFFCURVE",
"395 316 QCURVE",
"395 174 LINE",
"395 113 OFFCURVE",
"328 40 OFFCURVE",
"205 40 OFFCURVE",
"134 114 OFFCURVE",
"134 174 QCURVE"
);
}
);
width = 484;
},
{
layerId = "77B00D75-0619-4FB7-8D17-EB9FCD2DF18B";
paths = (
{
closed = 1;
nodes = (
"49 101 OFFCURVE",
"144 -10 OFFCURVE",
"330 -10 OFFCURVE",
"422 100 OFFCURVE",
"422 184 QCURVE",
"422 316 LINE",
"422 407 OFFCURVE",
"324 512 OFFCURVE",
"146 512 OFFCURVE",
"49 411 OFFCURVE",
"49 316 QCURVE",
"49 184 LINE"
);
},
{
closed = 1;
nodes = (
"68 320 LINE",
"68 406 OFFCURVE",
"164 493 OFFCURVE",
"308 493 OFFCURVE",
"403 406 OFFCURVE",
"403 320 QCURVE",
"403 184 LINE",
"403 109 OFFCURVE",
"321 8 OFFCURVE",
"150 8 OFFCURVE",
"68 111 OFFCURVE",
"68 184 QCURVE"
);
}
);
width = 461;
},
{
layerId = "8A94633D-DA21-409C-A8B7-00A83612E8B2";
paths = (
{
closed = 1;
nodes = (
"78 101 OFFCURVE",
"173 -10 OFFCURVE",
"359 -10 OFFCURVE",
"451 100 OFFCURVE",
"451 184 QCURVE",
"451 316 LINE",
"451 407 OFFCURVE",
"353 512 OFFCURVE",
"266 512 QCURVE",
"175 512 OFFCURVE",
"78 411 OFFCURVE",
"78 316 QCURVE",
"78 184 LINE"
);
},
{
closed = 1;
nodes = (
"188 98 OFFCURVE",
"188 174 QCURVE",
"188 316 LINE",
"188 401 OFFCURVE",
"266 401 QCURVE",
"280 401 OFFCURVE",
"301 397 OFFCURVE",
"328 382 OFFCURVE",
"342 345 OFFCURVE",
"342 316 QCURVE",
"342 174 LINE",
"342 136 OFFCURVE",
"299 98 OFFCURVE",
"266 98 QCURVE"
);
}
);
width = 490;
}
);
unicode = 006F;
},
{
glyphname = p;
lastChange = "2018-08-09 15:11:51 +0000";
layers = (
{
layerId = "BADA37E3-C95E-4946-BA48-1F986F6D85A7";
paths = (
{
closed = 1;
nodes = (
"134 -188 LINE",
"134 42 LINE",
"180 -12 OFFCURVE",
"353 -12 OFFCURVE",
"455 85 OFFCURVE",
"455 176 QCURVE",
"455 315 LINE",
"455 401 OFFCURVE",
"358 509 OFFCURVE",
"184 509 OFFCURVE",
"129 450 QCURVE",
"134 501 LINE",
"78 501 LINE",
"78 -210 LINE"
);
},
{
closed = 1;
nodes = (
"134 324 LINE",
"137 393 OFFCURVE",
"215 458 OFFCURVE",
"322 458 OFFCURVE",
"399 392 OFFCURVE",
"399 319 QCURVE",
"399 166 LINE",
"399 104 OFFCURVE",
"324 39 OFFCURVE",
"208 39 OFFCURVE",
"134 101 OFFCURVE",
"134 166 QCURVE"
);
}
);
width = 488;
},
{
layerId = "77B00D75-0619-4FB7-8D17-EB9FCD2DF18B";
paths = (
{
closed = 1;
nodes = (
"97 77 LINE",
"142 -12 OFFCURVE",
"266 -12 QCURVE",
"350 -12 OFFCURVE",
"455 85 OFFCURVE",
"455 176 QCURVE",
"455 314 LINE",
"455 401 OFFCURVE",
"354 509 OFFCURVE",
"252 509 QCURVE",
"210 509 OFFCURVE",
"123 477 OFFCURVE",
"97 441 QCURVE",
"97 501 LINE",
"78 501 LINE",
"78 -203 LINE",
"97 -210 LINE"
);
},
{
closed = 1;
nodes = (
"190 7 OFFCURVE",
"97 87 OFFCURVE",
"97 156 QCURVE",
"97 397 LINE",
"106 425 OFFCURVE",
"126 444 QCURVE",
"173 490 OFFCURVE",
"253 490 QCURVE",
"318 490 OFFCURVE",
"372 458 QCURVE",
"401 440 OFFCURVE",
"436 368 OFFCURVE",
"436 318 QCURVE",
"436 166 LINE",
"436 109 OFFCURVE",
"408 72 QCURVE",
"358 7 OFFCURVE",
"269 7 QCURVE"
);
}
);
width = 494;
},
{
layerId = "8A94633D-DA21-409C-A8B7-00A83612E8B2";
paths = (
{
closed = 1;
nodes = (
"188 -188 LINE",
"188 2 LINE",
"190 2 OFFCURVE",
"217 -8 OFFCURVE",
"245 -12 OFFCURVE",
"269 -12 QCURVE",
"353 -12 OFFCURVE",
"455 85 OFFCURVE",
"455 176 QCURVE",
"455 315 LINE",
"455 401 OFFCURVE",
"358 509 OFFCURVE",
"265 509 QCURVE",
"221 509 OFFCURVE",
"188 494 QCURVE",
"182 501 LINE",
"78 501 LINE",
"78 -210 LINE"
);
},
{
closed = 1;
nodes = (
"188 98 OFFCURVE",
"188 188 QCURVE",
"188 324 LINE",
"188 360 OFFCURVE",
"228 401 OFFCURVE",
"269 401 QCURVE",
"345 401 OFFCURVE",
"345 319 QCURVE",
"345 202 LINE",
"345 146 OFFCURVE",
"315 98 OFFCURVE",
"269 98 QCURVE"
);
}
);
width = 494;
}
);
unicode = 0070;
},
{
glyphname = q;
lastChange = "2018-08-09 15:11:51 +0000";
layers = (
{
layerId = "BADA37E3-C95E-4946-BA48-1F986F6D85A7";
paths = (
{
closed = 1;
nodes = (
"414 501 LINE",
"358 501 LINE",
"363 448 LINE",
"307 509 OFFCURVE",
"134 509 OFFCURVE",
"37 400 OFFCURVE",
"37 314 QCURVE",
"37 176 LINE",
"37 85 OFFCURVE",
"139 -12 OFFCURVE",
"312 -12 OFFCURVE",
"358 42 QCURVE",
"358 -188 LINE",
"414 -210 LINE"
);
},
{
closed = 1;
nodes = (
"93 318 LINE",
"93 391 OFFCURVE",
"170 458 OFFCURVE",
"277 458 OFFCURVE",
"355 393 OFFCURVE",
"358 324 QCURVE",
"358 166 LINE",
"358 101 OFFCURVE",
"284 39 OFFCURVE",
"168 39 OFFCURVE",
"93 104 OFFCURVE",
"93 166 QCURVE"
);
}
);
width = 448;
},
{
layerId = "77B00D75-0619-4FB7-8D17-EB9FCD2DF18B";
paths = (
{
closed = 1;
nodes = (
"414 501 LINE",
"395 501 LINE",
"395 441 LINE",
"369 477 OFFCURVE",
"282 509 OFFCURVE",
"240 509 QCURVE",
"138 509 OFFCURVE",
"37 401 OFFCURVE",
"37 314 QCURVE",
"37 176 LINE",
"37 85 OFFCURVE",
"142 -12 OFFCURVE",
"226 -12 QCURVE",
"350 -12 OFFCURVE",
"395 77 QCURVE",
"395 -203 LINE",
"414 -210 LINE"
);
},
{
closed = 1;
nodes = (
"56 109 OFFCURVE",
"56 166 QCURVE",
"56 318 LINE",
"56 366 OFFCURVE",
"92 437 OFFCURVE",
"150 474 OFFCURVE",
"209 490 OFFCURVE",
"280 490 OFFCURVE",
"322 474 QCURVE",
"346 464 OFFCURVE",
"386 425 OFFCURVE",
"395 397 QCURVE",
"395 156 LINE",
"395 87 OFFCURVE",
"302 7 OFFCURVE",
"134 7 OFFCURVE",
"84 72 QCURVE"
);
}
);
width = 448;
},
{
layerId = "8A94633D-DA21-409C-A8B7-00A83612E8B2";
paths = (
{
closed = 1;
nodes = (
"414 501 LINE",
"312 501 LINE",
"305 491 LINE",
"302 492 OFFCURVE",
"283 500 OFFCURVE",
"270 505 OFFCURVE",
"243 509 OFFCURVE",
"227 509 QCURVE",
"134 509 OFFCURVE",
"37 400 OFFCURVE",
"37 314 QCURVE",
"37 176 LINE",
"37 85 OFFCURVE",
"139 -12 OFFCURVE",
"223 -12 QCURVE",
"241 -12 OFFCURVE",
"272 -8 OFFCURVE",
"286 -4 OFFCURVE",
"303 2 OFFCURVE",
"305 3 QCURVE",
"305 -188 LINE",
"414 -210 LINE"
);
},
{
closed = 1;
nodes = (
"146 98 OFFCURVE",
"146 179 QCURVE",
"146 303 LINE",
"146 401 OFFCURVE",
"223 401 QCURVE",
"305 401 OFFCURVE",
"305 313 QCURVE",
"305 193 LINE",
"305 148 OFFCURVE",
"273 98 OFFCURVE",
"223 98 QCURVE"
);
}
);
width = 448;
}
);
unicode = 0071;
},
{
glyphname = r;
lastChange = "2018-08-09 15:11:51 +0000";
layers = (
{
layerId = "BADA37E3-C95E-4946-BA48-1F986F6D85A7";
paths = (
{
closed = 1;
nodes = (
"117 0 LINE",
"117 392 LINE",
"117 425 OFFCURVE",
"180 460 OFFCURVE",
"258 460 OFFCURVE",
"296 450 QCURVE",
"311 501 LINE",
"272 509 OFFCURVE",
"238 509 QCURVE",
"161 509 OFFCURVE",
"114 466 QCURVE",
"117 501 LINE",
"61 501 LINE",
"61 0 LINE"
);
}
);
width = 333;
},
{
layerId = "77B00D75-0619-4FB7-8D17-EB9FCD2DF18B";
paths = (
{
closed = 1;
nodes = (
"80 0 LINE",
"80 399 LINE",
"80 445 OFFCURVE",
"152 474 QCURVE",
"191 491 OFFCURVE",
"268 491 OFFCURVE",
"305 480 QCURVE",
"311 501 LINE",
"270 509 OFFCURVE",
"235 509 QCURVE",
"138 509 OFFCURVE",
"80 448 QCURVE",
"80 501 LINE",
"61 501 LINE",
"61 0 LINE"
);
}
);
width = 332;
},
{
layerId = "8A94633D-DA21-409C-A8B7-00A83612E8B2";
paths = (
{
closed = 1;
nodes = (
"171 0 LINE",
"171 322 LINE",
"171 374 OFFCURVE",
"218 395 QCURVE",
"239 404 OFFCURVE",
"261 404 QCURVE",
"287 404 OFFCURVE",
"315 390 QCURVE",
"341 497 LINE",
"300 506 OFFCURVE",
"286 508 QCURVE",
"277 509 OFFCURVE",
"258 509 QCURVE",
"249 509 OFFCURVE",
"238 509 QCURVE",
"204 508 OFFCURVE",
"171 497 QCURVE",
"163 501 LINE",
"61 501 LINE",
"61 0 LINE"
);
}
);
width = 380;
}
);
unicode = 0072;
},
{
glyphname = s;
lastChange = "2018-08-09 15:11:51 +0000";
layers = (
{
layerId = "BADA37E3-C95E-4946-BA48-1F986F6D85A7";
paths = (
{
closed = 1;
nodes = (
"38 67 OFFCURVE",
"136 -15 OFFCURVE",
"307 -15 OFFCURVE",
"396 65 OFFCURVE",
"396 175 OFFCURVE",
"338 241 OFFCURVE",
"254 273 OFFCURVE",
"169 298 OFFCURVE",
"103 341 OFFCURVE",
"103 379 QCURVE",
"103 418 OFFCURVE",
"168 464 OFFCURVE",
"276 464 OFFCURVE",
"312 438 QCURVE",
"331 484 LINE",
"319 491 LINE",
"307 498 OFFCURVE",
"251 513 OFFCURVE",
"219 513 QCURVE",
"128 513 OFFCURVE",
"47 426 OFFCURVE",
"47 325 OFFCURVE",
"85 291 QCURVE",
"117 262 OFFCURVE",
"201 233 OFFCURVE",
"283 207 OFFCURVE",
"340 161 OFFCURVE",
"340 78 OFFCURVE",
"266 37 OFFCURVE",
"173 37 OFFCURVE",
"95 82 OFFCURVE",
"89 127 QCURVE",
"36 127 LINE"
);
}
);
width = 431;
},
{
layerId = "77B00D75-0619-4FB7-8D17-EB9FCD2DF18B";
paths = (
{
closed = 1;
nodes = (
"38 67 OFFCURVE",
"136 -15 OFFCURVE",
"307 -15 OFFCURVE",
"396 66 OFFCURVE",
"396 173 OFFCURVE",
"332 236 OFFCURVE",
"239 268 OFFCURVE",
"145 295 OFFCURVE",
"72 340 OFFCURVE",
"72 385 QCURVE",
"72 436 OFFCURVE",
"156 493 OFFCURVE",
"274 493 OFFCURVE",
"322 466 QCURVE",
"331 483 LINE",
"318 490 LINE",
"306 498 OFFCURVE",
"250 513 OFFCURVE",
"219 513 QCURVE",
"128 513 OFFCURVE",
"53 428 OFFCURVE",
"53 383 QCURVE",
"53 374 OFFCURVE",
"54 365 QCURVE",
"63 299 OFFCURVE",
"176 265 QCURVE",
"223 251 OFFCURVE",
"314 222 OFFCURVE",
"377 166 OFFCURVE",
"377 72 OFFCURVE",
"291 4 OFFCURVE",
"143 4 OFFCURVE",
"59 76 OFFCURVE",
"55 127 QCURVE",
"36 127 LINE"
);
}
);
width = 431;
},
{
layerId = "8A94633D-DA21-409C-A8B7-00A83612E8B2";
paths = (
{
closed = 1;
nodes = (
"312 -15 OFFCURVE",
"406 76 OFFCURVE",
"406 141 QCURVE",
"406 191 OFFCURVE",
"359 263 OFFCURVE",
"291 299 OFFCURVE",
"223 323 OFFCURVE",
"170 348 OFFCURVE",
"167 363 QCURVE",
"167 370 OFFCURVE",
"164 389 OFFCURVE",
"191 405 OFFCURVE",
"219 405 QCURVE",
"276 405 OFFCURVE",
"299 382 QCURVE",
"331 484 LINE",
"319 491 LINE",
"307 498 OFFCURVE",
"251 513 OFFCURVE",
"219 513 QCURVE",
"128 513 OFFCURVE",
"86 467 QCURVE",
"47 426 OFFCURVE",
"47 377 QCURVE",
"47 371 OFFCURVE",
"48 365 QCURVE",
"53 317 OFFCURVE",
"106 255 OFFCURVE",
"175 228 OFFCURVE",
"243 207 OFFCURVE",
"290 172 OFFCURVE",
"290 143 QCURVE",
"290 121 OFFCURVE",
"254 88 OFFCURVE",
"221 88 QCURVE",
"183 88 OFFCURVE",
"146 120 OFFCURVE",
"146 138 QCURVE",
"36 127 LINE",
"38 67 OFFCURVE",
"136 -15 OFFCURVE",
"221 -15 QCURVE"
);
}
);
width = 431;
}
);
unicode = 0073;
},
{
glyphname = t;
lastChange = "2018-08-09 15:11:51 +0000";
layers = (
{
layerId = "BADA37E3-C95E-4946-BA48-1F986F6D85A7";
paths = (
{
closed = 1;
nodes = (
"166 30 LINE",
"100 52 OFFCURVE",
"100 132 QCURVE",
"100 448 LINE",
"196 448 LINE",
"220 501 LINE",
"100 501 LINE",
"100 700 LINE",
"44 700 LINE",
"44 132 LINE",
"44 73 OFFCURVE",
"94 3 OFFCURVE",
"150 -13 QCURVE"
);
}
);
width = 243;
},
{
layerId = "77B00D75-0619-4FB7-8D17-EB9FCD2DF18B";
paths = (
{
closed = 1;
nodes = (
"156 5 LINE",
"106 21 OFFCURVE",
"63 77 OFFCURVE",
"63 132 QCURVE",
"63 482 LINE",
"211 482 LINE",
"220 501 LINE",
"63 501 LINE",
"63 700 LINE",
"44 700 LINE",
"44 132 LINE",
"44 73 OFFCURVE",
"94 3 OFFCURVE",
"150 -13 QCURVE"
);
}
);
width = 243;
},
{
layerId = "8A94633D-DA21-409C-A8B7-00A83612E8B2";
paths = (
{
closed = 1;
nodes = (
"229 75 LINE",
"194 75 OFFCURVE",
"156 98 OFFCURVE",
"156 132 QCURVE",
"156 398 LINE",
"227 398 LINE",
"251 501 LINE",
"156 501 LINE",
"156 700 LINE",
"44 700 LINE",
"44 132 LINE",
"44 -10 OFFCURVE",
"196 -13 QCURVE"
);
}
);
width = 274;
}
);
unicode = 0074;
},
{
glyphname = u;
lastChange = "2018-08-09 15:11:51 +0000";
layers = (
{
layerId = "BADA37E3-C95E-4946-BA48-1F986F6D85A7";
paths = (
{
closed = 1;
nodes = (
"261 -11 OFFCURVE",
"334 21 OFFCURVE",
"358 51 QCURVE",
"354 0 LINE",
"409 0 LINE",
"409 501 LINE",
"353 501 LINE",
"353 165 LINE",
"353 39 OFFCURVE",
"224 39 QCURVE",
"163 39 OFFCURVE",
"92 101 OFFCURVE",
"92 165 QCURVE",
"92 501 LINE",
"36 501 LINE",
"36 172 LINE",
"36 -11 OFFCURVE",
"224 -11 QCURVE"
);
}
);
width = 447;
},
{
layerId = "77B00D75-0619-4FB7-8D17-EB9FCD2DF18B";
paths = (
{
closed = 1;
nodes = (
"340 -11 OFFCURVE",
"390 78 QCURVE",
"390 0 LINE",
"409 0 LINE",
"409 501 LINE",
"390 501 LINE",
"390 160 LINE",
"390 91 OFFCURVE",
"296 9 OFFCURVE",
"133 9 OFFCURVE",
"55 95 OFFCURVE",
"55 176 QCURVE",
"55 501 LINE",
"36 501 LINE",
"36 176 LINE",
"36 -11 OFFCURVE",
"224 -11 QCURVE"
);
}
);
width = 447;
},
{
layerId = "8A94633D-DA21-409C-A8B7-00A83612E8B2";
paths = (
{
closed = 1;
nodes = (
"254 -11 OFFCURVE",
"299 6 QCURVE",
"306 0 LINE",
"409 0 LINE",
"409 501 LINE",
"299 501 LINE",
"299 192 LINE",
"299 147 OFFCURVE",
"269 98 OFFCURVE",
"179 98 OFFCURVE",
"146 142 OFFCURVE",
"146 188 QCURVE",
"146 501 LINE",
"36 501 LINE",
"36 172 LINE",
"36 -11 OFFCURVE",
"224 -11 QCURVE"
);
}
);
width = 447;
}
);
unicode = 0075;
},
{
glyphname = v;
lastChange = "2018-08-09 15:11:51 +0000";
layers = (
{
layerId = "BADA37E3-C95E-4946-BA48-1F986F6D85A7";
paths = (
{
closed = 1;
nodes = (
"248 0 LINE",
"403 501 LINE",
"344 501 LINE",
"210 58 LINE",
"77 501 LINE",
"18 501 LINE",
"171 0 LINE"
);
}
);
width = 424;
},
{
layerId = "77B00D75-0619-4FB7-8D17-EB9FCD2DF18B";
paths = (
{
closed = 1;
nodes = (
"217 0 LINE",
"403 501 LINE",
"384 501 LINE",
"210 37 LINE",
"37 501 LINE",
"18 501 LINE",
"204 0 LINE"
);
}
);
width = 430;
},
{
layerId = "8A94633D-DA21-409C-A8B7-00A83612E8B2";
paths = (
{
closed = 1;
nodes = (
"278 0 LINE",
"435 501 LINE",
"316 501 LINE",
"225 195 LINE",
"132 501 LINE",
"12 501 LINE",
"172 0 LINE"
);
}
);
width = 453;
}
);
unicode = 0076;
},
{
glyphname = w;
lastChange = "2018-08-09 15:11:51 +0000";
layers = (
{
layerId = "BADA37E3-C95E-4946-BA48-1F986F6D85A7";
paths = (
{
closed = 1;
nodes = (
"248 0 LINE",
"350 405 LINE",
"451 0 LINE",
"528 0 LINE",
"683 501 LINE",
"624 501 LINE",
"490 58 LINE",
"380 501 LINE",
"323 501 LINE",
"210 58 LINE",
"77 501 LINE",
"18 501 LINE",
"171 0 LINE"
);
}
);
width = 704;
},
{
layerId = "77B00D75-0619-4FB7-8D17-EB9FCD2DF18B";
paths = (
{
closed = 1;
nodes = (
"199 0 LINE",
"332 455 LINE",
"466 0 LINE",
"479 0 LINE",
"647 501 LINE",
"627 501 LINE",
"473 38 LINE",
"337 501 LINE",
"326 501 LINE",
"191 37 LINE",
"38 501 LINE",
"18 501 LINE",
"187 0 LINE"
);
}
);
width = 697;
},
{
layerId = "8A94633D-DA21-409C-A8B7-00A83612E8B2";
paths = (
{
closed = 1;
nodes = (
"280 0 LINE",
"353 267 LINE",
"425 0 LINE",
"530 0 LINE",
"692 501 LINE",
"574 501 LINE",
"492 195 LINE",
"408 501 LINE",
"304 501 LINE",
"223 195 LINE",
"132 501 LINE",
"12 501 LINE",
"173 0 LINE"
);
}
);
width = 710;
}
);
unicode = 0077;
},
{
glyphname = x;
lastChange = "2018-08-09 15:11:51 +0000";
layers = (
{
layerId = "BADA37E3-C95E-4946-BA48-1F986F6D85A7";
paths = (
{
closed = 1;
nodes = (
"144 0 LINE",
"267 197 LINE",
"390 0 LINE",
"456 0 LINE",
"299 249 LINE",
"456 501 LINE",
"393 501 LINE",
"267 301 LINE",
"141 501 LINE",
"78 501 LINE",
"234 249 LINE",
"78 0 LINE"
);
}
);
width = 489;
},
{
layerId = "77B00D75-0619-4FB7-8D17-EB9FCD2DF18B";
paths = (
{
closed = 1;
nodes = (
"77 0 LINE",
"224 234 LINE",
"365 0 LINE",
"386 0 LINE",
"236 250 LINE",
"389 501 LINE",
"367 501 LINE",
"224 266 LINE",
"84 501 LINE",
"61 501 LINE",
"213 251 LINE",
"55 0 LINE"
);
}
);
width = 443;
},
{
layerId = "8A94633D-DA21-409C-A8B7-00A83612E8B2";
paths = (
{
closed = 1;
nodes = (
"198 0 LINE",
"285 140 LINE",
"373 0 LINE",
"504 0 LINE",
"353 250 LINE",
"512 501 LINE",
"376 501 LINE",
"286 358 LINE",
"200 501 LINE",
"61 501 LINE",
"217 249 LINE",
"61 0 LINE"
);
}
);
width = 551;
}
);
unicode = 0078;
},
{
glyphname = y;
lastChange = "2018-08-09 15:11:51 +0000";
layers = (
{
layerId = "BADA37E3-C95E-4946-BA48-1F986F6D85A7";
paths = (
{
closed = 1;
nodes = (
"364 -192 OFFCURVE",
"412 -122 OFFCURVE",
"412 -61 QCURVE",
"412 402 LINE",
"412 457 OFFCURVE",
"446 472 QCURVE",
"431 510 LINE",
"385 495 OFFCURVE",
"368 460 QCURVE",
"358 436 OFFCURVE",
"358 363 QCURVE",
"358 166 LINE",
"358 101 OFFCURVE",
"282 39 OFFCURVE",
"161 39 OFFCURVE",
"91 102 OFFCURVE",
"91 166 QCURVE",
"91 501 LINE",
"37 501 LINE",
"37 176 LINE",
"37 -12 OFFCURVE",
"227 -12 QCURVE",
"322 -12 OFFCURVE",
"359 49 QCURVE",
"359 -63 LINE",
"359 -142 OFFCURVE",
"292 -167 QCURVE",
"307 -210 LINE"
);
}
);
width = 480;
},
{
layerId = "77B00D75-0619-4FB7-8D17-EB9FCD2DF18B";
paths = (
{
closed = 1;
nodes = (
"364 -192 OFFCURVE",
"412 -122 OFFCURVE",
"412 -61 QCURVE",
"412 404 LINE",
"412 474 OFFCURVE",
"439 494 QCURVE",
"431 510 LINE",
"406 496 OFFCURVE",
"393 434 OFFCURVE",
"393 373 QCURVE",
"393 166 LINE",
"393 97 OFFCURVE",
"297 7 OFFCURVE",
"135 7 OFFCURVE",
"56 94 OFFCURVE",
"56 166 QCURVE",
"56 501 LINE",
"37 501 LINE",
"37 176 LINE",
"37 83 OFFCURVE",
"132 -12 OFFCURVE",
"220 -12 QCURVE",
"269 -12 OFFCURVE",
"367 33 OFFCURVE",
"394 87 QCURVE",
"394 -63 LINE",
"394 -168 OFFCURVE",
"301 -192 QCURVE",
"307 -210 LINE"
);
}
);
width = 473;
},
{
layerId = "8A94633D-DA21-409C-A8B7-00A83612E8B2";
paths = (
{
closed = 1;
nodes = (
"351 -201 OFFCURVE",
"412 -126 OFFCURVE",
"412 -61 QCURVE",
"412 347 LINE",
"412 372 OFFCURVE",
"443 413 OFFCURVE",
"472 420 QCURVE",
"431 510 LINE",
"375 505 OFFCURVE",
"302 416 OFFCURVE",
"302 363 QCURVE",
"302 206 LINE",
"302 141 OFFCURVE",
"264 98 OFFCURVE",
"220 98 QCURVE",
"180 98 OFFCURVE",
"147 143 OFFCURVE",
"147 206 QCURVE",
"147 501 LINE",
"37 501 LINE",
"37 176 LINE",
"37 83 OFFCURVE",
"132 -12 OFFCURVE",
"220 -12 QCURVE",
"257 -12 OFFCURVE",
"302 2 QCURVE",
"302 -56 LINE",
"302 -91 OFFCURVE",
"261 -123 OFFCURVE",
"235 -123 QCURVE",
"278 -210 LINE"
);
}
);
width = 506;
}
);
unicode = 0079;
},
{
glyphname = z;
lastChange = "2018-08-09 15:11:51 +0000";
layers = (
{
layerId = "BADA37E3-C95E-4946-BA48-1F986F6D85A7";
paths = (
{
closed = 1;
nodes = (
"445 0 LINE",
"445 51 LINE",
"147 51 LINE",
"424 451 LINE",
"424 501 LINE",
"87 501 LINE",
"87 450 LINE",
"353 450 LINE",
"78 50 LINE",
"78 0 LINE"
);
}
);
width = 478;
},
{
layerId = "77B00D75-0619-4FB7-8D17-EB9FCD2DF18B";
paths = (
{
closed = 1;
nodes = (
"445 0 LINE",
"445 19 LINE",
"101 19 LINE",
"424 482 LINE",
"424 501 LINE",
"87 501 LINE",
"87 482 LINE",
"401 482 LINE",
"78 19 LINE",
"78 0 LINE"
);
}
);
width = 484;
},
{
layerId = "8A94633D-DA21-409C-A8B7-00A83612E8B2";
paths = (
{
closed = 1;
nodes = (
"445 0 LINE",
"445 104 LINE",
"225 104 LINE",
"435 401 LINE",
"435 501 LINE",
"87 501 LINE",
"87 397 LINE",
"287 397 LINE",
"78 104 LINE",
"78 0 LINE"
);
}
);
width = 484;
}
);
unicode = 007A;
},
{
glyphname = braceleft;
lastChange = "2018-08-09 15:11:51 +0000";
layers = (
{
layerId = "BADA37E3-C95E-4946-BA48-1F986F6D85A7";
paths = (
{
closed = 1;
nodes = (
"276 -79 LINE",
"208 -28 OFFCURVE",
"208 65 QCURVE",
"208 253 LINE",
"208 295 OFFCURVE",
"148 355 QCURVE",
"206 413 OFFCURVE",
"206 456 QCURVE",
"206 641 LINE",
"206 734 OFFCURVE",
"274 785 QCURVE",
"256 822 LINE",
"211 796 OFFCURVE",
"168 742 OFFCURVE",
"150 651 OFFCURVE",
"150 567 QCURVE",
"150 462 LINE",
"150 435 OFFCURVE",
"102 373 OFFCURVE",
"78 354 QCURVE",
"99 335 OFFCURVE",
"120 315 OFFCURVE",
"152 266 OFFCURVE",
"152 247 QCURVE",
"152 140 LINE",
"152 17 OFFCURVE",
"192 -78 OFFCURVE",
"258 -116 QCURVE"
);
}
);
width = 309;
},
{
layerId = "77B00D75-0619-4FB7-8D17-EB9FCD2DF18B";
paths = (
{
closed = 1;
nodes = (
"266 -99 LINE",
"212 -70 OFFCURVE",
"171 6 OFFCURVE",
"171 76 QCURVE",
"171 253 LINE",
"171 271 OFFCURVE",
"158 294 QCURVE",
"153 302 OFFCURVE",
"134 324 OFFCURVE",
"116 342 OFFCURVE",
"104 354 QCURVE",
"169 419 OFFCURVE",
"169 456 QCURVE",
"169 641 LINE",
"169 692 OFFCURVE",
"182 720 QCURVE",
"189 736 OFFCURVE",
"199 757 OFFCURVE",
"224 778 OFFCURVE",
"243 795 OFFCURVE",
"263 805 QCURVE",
"256 822 LINE",
"192 785 OFFCURVE",
"150 703 OFFCURVE",
"150 620 QCURVE",
"150 462 LINE",
"150 435 OFFCURVE",
"102 373 OFFCURVE",
"78 354 QCURVE",
"99 335 OFFCURVE",
"120 315 OFFCURVE",
"152 266 OFFCURVE",
"152 247 QCURVE",
"152 101 LINE",
"152 6 OFFCURVE",
"193 -79 OFFCURVE",
"258 -116 QCURVE"
);
}
);
width = 305;
},
{
layerId = "8A94633D-DA21-409C-A8B7-00A83612E8B2";
paths = (
{
closed = 1;
nodes = (
"324 -17 LINE",
"293 -17 OFFCURVE",
"262 30 OFFCURVE",
"262 87 QCURVE",
"262 253 LINE",
"262 295 OFFCURVE",
"202 355 QCURVE",
"260 413 OFFCURVE",
"260 456 QCURVE",
"260 625 LINE",
"260 680 OFFCURVE",
"296 730 OFFCURVE",
"322 730 QCURVE",
"293 822 LINE",
"212 810 OFFCURVE",
"150 693 OFFCURVE",
"150 567 QCURVE",
"150 462 LINE",
"150 435 OFFCURVE",
"102 373 OFFCURVE",
"78 354 QCURVE",
"99 335 OFFCURVE",
"120 315 OFFCURVE",
"152 266 OFFCURVE",
"152 247 QCURVE",
"152 120 LINE",
"152 38 OFFCURVE",
"181 -55 OFFCURVE",
"238 -101 OFFCURVE",
"293 -116 QCURVE"
);
}
);
width = 363;
}
);
unicode = 007B;
},
{
glyphname = bar;
lastChange = "2018-08-09 15:11:51 +0000";
layers = (
{
layerId = "BADA37E3-C95E-4946-BA48-1F986F6D85A7";
paths = (
{
closed = 1;
nodes = (
"134 -114 LINE",
"134 817 LINE",
"78 817 LINE",
"78 -114 LINE"
);
}
);
width = 214;
},
{
layerId = "77B00D75-0619-4FB7-8D17-EB9FCD2DF18B";
paths = (
{
closed = 1;
nodes = (
"96 -114 LINE",
"96 817 LINE",
"78 817 LINE",
"78 -114 LINE"
);
}
);
width = 176;
},
{
layerId = "8A94633D-DA21-409C-A8B7-00A83612E8B2";
paths = (
{
closed = 1;
nodes = (
"188 -114 LINE",
"188 817 LINE",
"78 817 LINE",
"78 -114 LINE"
);
}
);
width = 268;
}
);
unicode = 007C;
},
{
glyphname = braceright;
lastChange = "2018-08-09 15:11:51 +0000";
layers = (
{
layerId = "BADA37E3-C95E-4946-BA48-1F986F6D85A7";
paths = (
{
closed = 1;
nodes = (
"162 -78 OFFCURVE",
"202 17 OFFCURVE",
"202 140 QCURVE",
"202 247 LINE",
"202 266 OFFCURVE",
"234 315 OFFCURVE",
"255 335 OFFCURVE",
"276 354 QCURVE",
"252 373 OFFCURVE",
"204 435 OFFCURVE",
"204 462 QCURVE",
"204 567 LINE",
"204 651 OFFCURVE",
"186 742 OFFCURVE",
"143 796 OFFCURVE",
"98 822 QCURVE",
"80 785 LINE",
"148 734 OFFCURVE",
"148 641 QCURVE",
"148 456 LINE",
"148 413 OFFCURVE",
"206 355 QCURVE",
"146 295 OFFCURVE",
"146 253 QCURVE",
"146 65 LINE",
"146 -28 OFFCURVE",
"78 -79 QCURVE",
"96 -116 LINE"
);
}
);
width = 309;
},
{
layerId = "77B00D75-0619-4FB7-8D17-EB9FCD2DF18B";
paths = (
{
closed = 1;
nodes = (
"151 -79 OFFCURVE",
"192 6 OFFCURVE",
"192 101 QCURVE",
"192 247 LINE",
"192 266 OFFCURVE",
"224 315 OFFCURVE",
"245 335 OFFCURVE",
"266 354 QCURVE",
"242 373 OFFCURVE",
"194 435 OFFCURVE",
"194 462 QCURVE",
"194 620 LINE",
"194 703 OFFCURVE",
"152 785 OFFCURVE",
"88 822 QCURVE",
"81 805 LINE",
"101 795 OFFCURVE",
"116 782 QCURVE",
"120 778 OFFCURVE",
"145 757 OFFCURVE",
"155 736 OFFCURVE",
"175 692 OFFCURVE",
"175 641 QCURVE",
"175 456 LINE",
"175 419 OFFCURVE",
"240 354 QCURVE",
"215 329 LINE",
"173 287 OFFCURVE",
"173 253 QCURVE",
"173 76 LINE",
"173 6 OFFCURVE",
"132 -70 OFFCURVE",
"78 -99 QCURVE",
"86 -116 LINE"
);
}
);
width = 305;
},
{
layerId = "8A94633D-DA21-409C-A8B7-00A83612E8B2";
paths = (
{
closed = 1;
nodes = (
"164 -101 OFFCURVE",
"221 -55 OFFCURVE",
"250 38 OFFCURVE",
"250 120 QCURVE",
"250 247 LINE",
"250 266 OFFCURVE",
"282 315 OFFCURVE",
"303 335 OFFCURVE",
"324 354 QCURVE",
"300 373 OFFCURVE",
"252 435 OFFCURVE",
"252 462 QCURVE",
"252 567 LINE",
"252 693 OFFCURVE",
"190 810 OFFCURVE",
"109 822 QCURVE",
"80 730 LINE",
"106 730 OFFCURVE",
"142 680 OFFCURVE",
"142 625 QCURVE",
"142 456 LINE",
"142 413 OFFCURVE",
"200 355 QCURVE",
"140 295 OFFCURVE",
"140 253 QCURVE",
"140 87 LINE",
"140 30 OFFCURVE",
"109 -17 OFFCURVE",
"78 -17 QCURVE",
"109 -116 LINE"
);
}
);
width = 363;
}
);
unicode = 007D;
},
{
glyphname = asciitilde;
lastChange = "2018-08-09 15:11:51 +0000";
layers = (
{
layerId = "BADA37E3-C95E-4946-BA48-1F986F6D85A7";
paths = (
{
closed = 1;
nodes = (
"139 320 OFFCURVE",
"196 320 QCURVE",
"223 320 OFFCURVE",
"251 312 QCURVE",
"341 284 OFFCURVE",
"369 284 QCURVE",
"439 284 OFFCURVE",
"483 341 QCURVE",
"456 379 LINE",
"425 342 OFFCURVE",
"371 342 QCURVE",
"343 342 OFFCURVE",
"222 376 OFFCURVE",
"195 376 QCURVE",
"124 376 OFFCURVE",
"78 319 QCURVE",
"104 281 LINE"
);
}
);
width = 516;
},
{
layerId = "77B00D75-0619-4FB7-8D17-EB9FCD2DF18B";
paths = (
{
closed = 1;
nodes = (
"131 354 OFFCURVE",
"190 354 QCURVE",
"215 354 OFFCURVE",
"277 334 OFFCURVE",
"347 310 OFFCURVE",
"380 310 QCURVE",
"432 310 OFFCURVE",
"469 344 QCURVE",
"459 362 LINE",
"429 330 OFFCURVE",
"349 330 OFFCURVE",
"278 355 OFFCURVE",
"214 375 OFFCURVE",
"189 375 QCURVE",
"123 375 OFFCURVE",
"78 325 QCURVE",
"90 308 LINE"
);
}
);
width = 508;
},
{
layerId = "8A94633D-DA21-409C-A8B7-00A83612E8B2";
paths = (
{
closed = 1;
nodes = (
"149 282 OFFCURVE",
"188 287 QCURVE",
"200 288 OFFCURVE",
"212 288 QCURVE",
"239 288 OFFCURVE",
"267 280 QCURVE",
"306 268 OFFCURVE",
"346 257 QCURVE",
"366 251 OFFCURVE",
"387 251 QCURVE",
"407 251 OFFCURVE",
"427 256 QCURVE",
"468 267 OFFCURVE",
"500 308 QCURVE",
"456 379 LINE",
"429 347 OFFCURVE",
"392 343 QCURVE",
"382 342 OFFCURVE",
"371 342 QCURVE",
"343 342 OFFCURVE",
"314 350 QCURVE",
"275 361 OFFCURVE",
"235 371 QCURVE",
"215 376 OFFCURVE",
"195 376 QCURVE",
"175 376 OFFCURVE",
"153 370 QCURVE",
"111 360 OFFCURVE",
"78 319 QCURVE",
"120 249 LINE"
);
}
);
width = 539;
}
);
unicode = 007E;
},
{
glyphname = exclamdown;
lastChange = "2018-08-09 15:11:51 +0000";
layers = (
{
layerId = "BADA37E3-C95E-4946-BA48-1F986F6D85A7";
paths = (
{
closed = 1;
nodes = (
"136 590 LINE",
"89 590 LINE",
"79 37 LINE",
"79 0 OFFCURVE",
"145 0 OFFCURVE",
"145 36 QCURVE"
);
},
{
closed = 1;
nodes = (
"144 664 OFFCURVE",
"144 690 OFFCURVE",
"124 710 OFFCURVE",
"98 710 OFFCURVE",
"78 690 OFFCURVE",
"78 664 OFFCURVE",
"98 644 OFFCURVE",
"124 644 OFFCURVE",
"134 654 QCURVE"
);
}
);
width = 225;
},
{
layerId = "77B00D75-0619-4FB7-8D17-EB9FCD2DF18B";
paths = (
{
closed = 1;
nodes = (
"110 0 OFFCURVE",
"110 18 QCURVE",
"102 590 LINE",
"87 590 LINE",
"78 18 LINE",
"78 9 OFFCURVE",
"89 0 OFFCURVE",
"95 0 QCURVE"
);
},
{
closed = 1;
nodes = (
"109 689 OFFCURVE",
"109 701 OFFCURVE",
"100 710 OFFCURVE",
"88 710 OFFCURVE",
"79 701 OFFCURVE",
"79 689 OFFCURVE",
"88 680 OFFCURVE",
"100 680 OFFCURVE",
"104 684 QCURVE"
);
}
);
width = 190;
},
{
layerId = "8A94633D-DA21-409C-A8B7-00A83612E8B2";
paths = (
{
closed = 1;
nodes = (
"194 0 OFFCURVE",
"194 68 QCURVE",
"173 590 LINE",
"97 590 LINE",
"78 69 LINE",
"78 0 OFFCURVE",
"134 0 QCURVE"
);
},
{
closed = 1;
nodes = (
"157 609 OFFCURVE",
"187 639 OFFCURVE",
"187 660 QCURVE",
"187 680 OFFCURVE",
"157 710 OFFCURVE",
"136 710 QCURVE",
"116 710 OFFCURVE",
"86 680 OFFCURVE",
"86 660 QCURVE",
"86 639 OFFCURVE",
"116 609 OFFCURVE",
"136 609 QCURVE"
);
}
);
width = 274;
}
);
unicode = 00A1;
},
{
glyphname = cent;
lastChange = "2018-08-09 15:11:51 +0000";
layers = (
{
layerId = "BADA37E3-C95E-4946-BA48-1F986F6D85A7";
paths = (
{
closed = 1;
nodes = (
"293 -114 LINE",
"293 -10 LINE",
"343 -9 OFFCURVE",
"400 6 QCURVE",
"388 51 LINE",
"336 38 OFFCURVE",
"293 38 QCURVE",
"293 459 LINE",
"333 455 OFFCURVE",
"382 437 QCURVE",
"398 478 LINE",
"346 502 OFFCURVE",
"293 508 QCURVE",
"293 623 LINE",
"238 623 LINE",
"238 508 LINE",
"166 500 OFFCURVE",
"78 399 OFFCURVE",
"78 308 QCURVE",
"78 180 LINE",
"78 105 OFFCURVE",
"131 22 OFFCURVE",
"190 2 QCURVE",
"219 -6 OFFCURVE",
"238 -8 QCURVE",
"238 -114 LINE"
);
},
{
closed = 1;
nodes = (
"134 61 OFFCURVE",
"134 169 QCURVE",
"134 314 LINE",
"134 377 OFFCURVE",
"190 448 OFFCURVE",
"238 457 QCURVE",
"238 42 LINE"
);
}
);
width = 433;
},
{
layerId = "77B00D75-0619-4FB7-8D17-EB9FCD2DF18B";
paths = (
{
closed = 1;
nodes = (
"273 -114 LINE",
"273 -10 LINE",
"276 -10 OFFCURVE",
"280 -10 QCURVE",
"337 -10 OFFCURVE",
"400 6 QCURVE",
"395 25 LINE",
"332 8 OFFCURVE",
"279 8 QCURVE",
"276 8 OFFCURVE",
"273 8 QCURVE",
"273 490 LINE",
"333 488 OFFCURVE",
"391 458 QCURVE",
"398 478 LINE",
"334 507 OFFCURVE",
"273 510 QCURVE",
"273 623 LINE",
"256 623 LINE",
"256 510 LINE",
"177 508 OFFCURVE",
"78 404 OFFCURVE",
"78 308 QCURVE",
"78 180 LINE",
"78 105 OFFCURVE",
"131 22 OFFCURVE",
"190 2 QCURVE",
"222 -8 OFFCURVE",
"256 -9 QCURVE",
"256 -114 LINE"
);
},
{
closed = 1;
nodes = (
"183 13 OFFCURVE",
"96 90 OFFCURVE",
"97 169 QCURVE",
"97 314 LINE",
"97 398 OFFCURVE",
"186 487 OFFCURVE",
"256 490 QCURVE",
"256 8 LINE"
);
}
);
width = 439;
},
{
layerId = "8A94633D-DA21-409C-A8B7-00A83612E8B2";
paths = (
{
closed = 1;
nodes = (
"328 -114 LINE",
"328 -7 LINE",
"358 -4 OFFCURVE",
"400 6 QCURVE",
"370 114 LINE",
"356 108 OFFCURVE",
"328 103 QCURVE",
"328 396 LINE",
"340 393 OFFCURVE",
"368 383 QCURVE",
"398 478 LINE",
"362 495 OFFCURVE",
"328 502 QCURVE",
"328 623 LINE",
"219 623 LINE",
"219 505 LINE",
"155 492 OFFCURVE",
"78 392 OFFCURVE",
"78 308 QCURVE",
"78 180 LINE",
"78 105 OFFCURVE",
"131 22 OFFCURVE",
"190 2 QCURVE",
"199 -1 OFFCURVE",
"219 -5 QCURVE",
"219 -114 LINE"
);
},
{
closed = 1;
nodes = (
"188 129 OFFCURVE",
"188 169 QCURVE",
"188 314 LINE",
"188 358 OFFCURVE",
"219 382 QCURVE",
"219 113 LINE"
);
}
);
width = 439;
}
);
unicode = 00A2;
},
{
glyphname = sterling;
lastChange = "2018-08-09 15:11:51 +0000";
layers = (
{
layerId = "BADA37E3-C95E-4946-BA48-1F986F6D85A7";
paths = (
{
closed = 1;
nodes = (
"438 0 LINE",
"438 55 LINE",
"163 55 LINE",
"202 79 OFFCURVE",
"249 174 OFFCURVE",
"249 257 OFFCURVE",
"237 303 QCURVE",
"421 303 LINE",
"421 358 LINE",
"220 358 LINE",
"180 480 OFFCURVE",
"180 513 QCURVE",
"180 579 OFFCURVE",
"258 658 OFFCURVE",
"368 658 OFFCURVE",
"409 635 QCURVE",
"427 684 LINE",
"387 709 OFFCURVE",
"234 709 OFFCURVE",
"125 602 OFFCURVE",
"125 515 QCURVE",
"125 465 OFFCURVE",
"160 358 QCURVE",
"101 358 LINE",
"101 303 LINE",
"178 303 LINE",
"192 254 OFFCURVE",
"192 225 QCURVE",
"192 170 OFFCURVE",
"129 76 OFFCURVE",
"78 50 QCURVE",
"78 0 LINE"
);
}
);
width = 471;
},
{
layerId = "77B00D75-0619-4FB7-8D17-EB9FCD2DF18B";
paths = (
{
closed = 1;
nodes = (
"438 0 LINE",
"438 20 LINE",
"119 20 LINE",
"158 48 OFFCURVE",
"213 152 OFFCURVE",
"213 271 OFFCURVE",
"188 339 QCURVE",
"421 339 LINE",
"421 358 LINE",
"180 358 LINE",
"144 468 OFFCURVE",
"144 513 QCURVE",
"144 586 OFFCURVE",
"238 690 OFFCURVE",
"318 690 QCURVE",
"375 690 OFFCURVE",
"420 665 QCURVE",
"427 684 LINE",
"387 709 OFFCURVE",
"234 709 OFFCURVE",
"125 602 OFFCURVE",
"125 515 QCURVE",
"125 465 OFFCURVE",
"160 358 QCURVE",
"101 358 LINE",
"101 339 LINE",
"167 339 LINE",
"168 336 OFFCURVE",
"193 259 OFFCURVE",
"193 205 QCURVE",
"192 148 OFFCURVE",
"128 40 OFFCURVE",
"78 15 QCURVE",
"78 0 LINE"
);
}
);
width = 477;
},
{
layerId = "8A94633D-DA21-409C-A8B7-00A83612E8B2";
paths = (
{
closed = 1;
nodes = (
"438 0 LINE",
"438 101 LINE",
"267 101 LINE",
"286 138 OFFCURVE",
"299 183 OFFCURVE",
"302 221 QCURVE",
"302 224 OFFCURVE",
"302 228 QCURVE",
"302 256 OFFCURVE",
"290 303 QCURVE",
"421 303 LINE",
"421 412 LINE",
"254 412 LINE",
"234 465 OFFCURVE",
"234 513 QCURVE",
"234 523 OFFCURVE",
"239 546 OFFCURVE",
"254 581 OFFCURVE",
"291 604 OFFCURVE",
"318 604 QCURVE",
"359 604 OFFCURVE",
"393 585 QCURVE",
"427 684 LINE",
"387 709 OFFCURVE",
"318 709 QCURVE",
"234 709 OFFCURVE",
"125 602 OFFCURVE",
"125 515 QCURVE",
"125 464 OFFCURVE",
"143 412 QCURVE",
"101 412 LINE",
"101 303 LINE",
"178 303 LINE",
"192 254 OFFCURVE",
"192 225 QCURVE",
"192 167 OFFCURVE",
"134 101 OFFCURVE",
"78 101 QCURVE",
"78 0 LINE"
);
}
);
width = 477;
}
);
unicode = 00A3;
},
{
glyphname = currency;
lastChange = "2018-08-09 15:11:51 +0000";
layers = (
{
layerId = "BADA37E3-C95E-4946-BA48-1F986F6D85A7";
paths = (
{
closed = 1;
nodes = (
"146 184 LINE",
"191 148 OFFCURVE",
"312 148 OFFCURVE",
"360 183 QCURVE",
"393 150 LINE",
"425 182 LINE",
"392 215 LINE",
"429 263 OFFCURVE",
"429 381 OFFCURVE",
"394 429 QCURVE",
"425 460 LINE",
"391 495 LINE",
"359 464 LINE",
"313 499 OFFCURVE",
"193 499 OFFCURVE",
"145 462 QCURVE",
"114 494 LINE",
"81 461 LINE",
"112 428 LINE",
"78 381 OFFCURVE",
"78 264 OFFCURVE",
"113 216 QCURVE",
"81 182 LINE",
"113 149 LINE"
);
},
{
closed = 1;
nodes = (
"202 203 OFFCURVE",
"130 273 OFFCURVE",
"130 374 OFFCURVE",
"202 446 OFFCURVE",
"303 446 OFFCURVE",
"375 374 OFFCURVE",
"375 273 OFFCURVE",
"303 203 OFFCURVE",
"252 203 QCURVE"
);
}
);
width = 462;
},
{
layerId = "77B00D75-0619-4FB7-8D17-EB9FCD2DF18B";
paths = (
{
closed = 1;
nodes = (
"135 192 LINE",
"182 148 OFFCURVE",
"325 148 OFFCURVE",
"369 192 QCURVE",
"402 159 LINE",
"417 174 LINE",
"384 207 LINE",
"429 254 OFFCURVE",
"429 392 OFFCURVE",
"385 439 QCURVE",
"414 470 LINE",
"401 485 LINE",
"371 454 LINE",
"326 499 OFFCURVE",
"253 499 QCURVE",
"222 499 OFFCURVE",
"157 474 OFFCURVE",
"135 454 QCURVE",
"106 485 LINE",
"92 471 LINE",
"121 440 LINE",
"78 391 OFFCURVE",
"78 254 OFFCURVE",
"121 206 QCURVE",
"90 173 LINE",
"105 158 LINE"
);
},
{
closed = 1;
nodes = (
"188 169 OFFCURVE",
"97 258 OFFCURVE",
"97 386 OFFCURVE",
"188 478 OFFCURVE",
"317 478 OFFCURVE",
"408 387 OFFCURVE",
"408 258 OFFCURVE",
"318 169 OFFCURVE",
"253 169 QCURVE"
);
}
);
width = 468;
},
{
layerId = "8A94633D-DA21-409C-A8B7-00A83612E8B2";
paths = (
{
closed = 1;
nodes = (
"197 166 LINE",
"228 148 OFFCURVE",
"274 148 QCURVE",
"317 148 OFFCURVE",
"351 166 QCURVE",
"390 126 LINE",
"464 203 LINE",
"429 236 LINE",
"431 243 OFFCURVE",
"442 270 OFFCURVE",
"446 283 OFFCURVE",
"450 308 OFFCURVE",
"450 323 QCURVE",
"450 335 OFFCURVE",
"448 353 OFFCURVE",
"443 371 OFFCURVE",
"439 381 OFFCURVE",
"431 402 OFFCURVE",
"429 407 QCURVE",
"468 440 LINE",
"389 518 LINE",
"351 480 LINE",
"332 499 OFFCURVE",
"274 499 QCURVE",
"224 499 OFFCURVE",
"194 480 QCURVE",
"161 517 LINE",
"78 440 LINE",
"118 402 LINE",
"99 359 OFFCURVE",
"99 323 QCURVE",
"99 265 OFFCURVE",
"121 235 QCURVE",
"85 202 LINE",
"160 125 LINE"
);
},
{
closed = 1;
nodes = (
"243 251 OFFCURVE",
"200 293 OFFCURVE",
"200 323 QCURVE",
"200 354 OFFCURVE",
"243 397 OFFCURVE",
"274 397 QCURVE",
"304 397 OFFCURVE",
"347 354 OFFCURVE",
"347 323 QCURVE",
"347 293 OFFCURVE",
"304 251 OFFCURVE",
"274 251 QCURVE"
);
}
);
width = 507;
}
);
unicode = 00A4;
},
{
glyphname = yen;
lastChange = "2018-08-09 15:11:51 +0000";
layers = (
{
layerId = "BADA37E3-C95E-4946-BA48-1F986F6D85A7";
paths = (
{
closed = 1;
nodes = (
"342 0 LINE",
"342 253 LINE",
"475 253 LINE",
"475 308 LINE",
"342 308 LINE",
"342 342 LINE",
"351 358 LINE",
"475 358 LINE",
"475 413 LINE",
"383 413 LINE",
"550 700 LINE",
"487 700 LINE",
"317 413 LINE",
"309 413 LINE",
"141 700 LINE",
"78 700 LINE",
"243 413 LINE",
"155 413 LINE",
"155 358 LINE",
"275 358 LINE",
"286 340 LINE",
"286 308 LINE",
"155 308 LINE",
"155 253 LINE",
"286 253 LINE",
"286 0 LINE"
);
}
);
width = 583;
},
{
layerId = "77B00D75-0619-4FB7-8D17-EB9FCD2DF18B";
paths = (
{
closed = 1;
nodes = (
"292 0 LINE",
"292 276 LINE",
"445 276 LINE",
"445 295 LINE",
"292 295 LINE",
"292 340 LINE",
"445 340 LINE",
"445 359 LINE",
"303 359 LINE",
"520 700 LINE",
"497 700 LINE",
"283 362 LINE",
"71 700 LINE",
"48 700 LINE",
"263 359 LINE",
"125 359 LINE",
"125 340 LINE",
"274 340 LINE",
"274 295 LINE",
"125 295 LINE",
"125 276 LINE",
"274 276 LINE",
"274 0 LINE"
);
}
);
width = 559;
},
{
layerId = "8A94633D-DA21-409C-A8B7-00A83612E8B2";
paths = (
{
closed = 1;
nodes = (
"369 0 LINE",
"369 204 LINE",
"476 204 LINE",
"476 309 LINE",
"369 309 LINE",
"369 315 LINE",
"388 357 LINE",
"476 357 LINE",
"476 462 LINE",
"438 462 LINE",
"550 700 LINE",
"433 700 LINE",
"326 462 LINE",
"300 462 LINE",
"194 700 LINE",
"78 700 LINE",
"189 462 LINE",
"156 462 LINE",
"156 357 LINE",
"238 357 LINE",
"258 315 LINE",
"258 309 LINE",
"156 309 LINE",
"156 204 LINE",
"258 204 LINE",
"258 0 LINE"
);
}
);
width = 589;
}
);
unicode = 00A5;
},
{
glyphname = section;
lastChange = "2018-08-09 15:11:51 +0000";
layers = (
{
layerId = "BADA37E3-C95E-4946-BA48-1F986F6D85A7";
paths = (
{
closed = 1;
nodes = (
"80 -82 OFFCURVE",
"205 -197 OFFCURVE",
"436 -197 OFFCURVE",
"553 -86 OFFCURVE",
"553 6 QCURVE",
"553 57 OFFCURVE",
"530 92 QCURVE",
"553 135 OFFCURVE",
"553 242 OFFCURVE",
"509 316 OFFCURVE",
"439 359 OFFCURVE",
"353 393 OFFCURVE",
"268 421 OFFCURVE",
"233 437 QCURVE",
"154 473 OFFCURVE",
"154 537 QCURVE",
"154 594 OFFCURVE",
"246 658 OFFCURVE",
"393 658 OFFCURVE",
"450 629 QCURVE",
"467 680 OFFCURVE",
"467 682 QCURVE",
"404 712 OFFCURVE",
"321 712 QCURVE",
"212 712 OFFCURVE",
"96 610 OFFCURVE",
"96 540 QCURVE",
"96 485 OFFCURVE",
"128 445 QCURVE",
"96 404 OFFCURVE",
"96 299 OFFCURVE",
"155 223 OFFCURVE",
"243 185 OFFCURVE",
"346 146 OFFCURVE",
"434 112 OFFCURVE",
"493 47 OFFCURVE",
"493 1 QCURVE",
"493 -74 OFFCURVE",
"389 -143 OFFCURVE",
"237 -143 OFFCURVE",
"140 -61 OFFCURVE",
"135 -8 QCURVE",
"78 -8 LINE"
);
},
{
closed = 1;
nodes = (
"426 185 OFFCURVE",
"276 230 QCURVE",
"228 245 OFFCURVE",
"154 306 OFFCURVE",
"154 382 OFFCURVE",
"171 408 QCURVE",
"220 376 OFFCURVE",
"376 322 QCURVE",
"422 307 OFFCURVE",
"493 238 OFFCURVE",
"493 189 QCURVE",
"493 166 OFFCURVE",
"486 140 QCURVE"
);
}
);
width = 586;
},
{
layerId = "77B00D75-0619-4FB7-8D17-EB9FCD2DF18B";
paths = (
{
closed = 1;
nodes = (
"80 -82 OFFCURVE",
"205 -197 OFFCURVE",
"431 -197 OFFCURVE",
"553 -85 OFFCURVE",
"553 6 QCURVE",
"553 51 OFFCURVE",
"527 91 QCURVE",
"551 136 OFFCURVE",
"551 171 QCURVE",
"550 227 OFFCURVE",
"460 306 OFFCURVE",
"331 355 OFFCURVE",
"203 403 OFFCURVE",
"114 482 OFFCURVE",
"114 536 QCURVE",
"114 618 OFFCURVE",
"237 695 OFFCURVE",
"402 695 OFFCURVE",
"460 665 QCURVE",
"467 682 LINE",
"404 712 OFFCURVE",
"321 712 QCURVE",
"212 712 OFFCURVE",
"96 610 OFFCURVE",
"96 485 OFFCURVE",
"128 445 QCURVE",
"98 408 OFFCURVE",
"98 366 QCURVE",
"98 308 OFFCURVE",
"150 270 QCURVE",
"197 235 OFFCURVE",
"323 193 OFFCURVE",
"449 147 OFFCURVE",
"535 62 OFFCURVE",
"535 0 QCURVE",
"535 -82 OFFCURVE",
"417 -178 OFFCURVE",
"219 -178 OFFCURVE",
"101 -81 OFFCURVE",
"97 -8 QCURVE",
"78 -8 LINE"
);
},
{
closed = 1;
nodes = (
"465 167 OFFCURVE",
"333 210 QCURVE",
"282 226 OFFCURVE",
"185 262 OFFCURVE",
"121 319 OFFCURVE",
"114 404 OFFCURVE",
"142 432 QCURVE",
"196 383 OFFCURVE",
"328 336 QCURVE",
"377 319 OFFCURVE",
"471 277 OFFCURVE",
"500 245 QCURVE",
"553 188 OFFCURVE",
"522 120 QCURVE",
"516 108 OFFCURVE",
"515 104 QCURVE"
);
}
);
width = 592;
},
{
layerId = "8A94633D-DA21-409C-A8B7-00A83612E8B2";
paths = (
{
closed = 1;
nodes = (
"436 -197 OFFCURVE",
"553 -86 OFFCURVE",
"553 6 QCURVE",
"553 57 OFFCURVE",
"530 92 QCURVE",
"542 115 OFFCURVE",
"550 158 QCURVE",
"554 185 OFFCURVE",
"554 210 QCURVE",
"554 223 OFFCURVE",
"553 236 QCURVE",
"547 292 OFFCURVE",
"491 375 OFFCURVE",
"415 417 OFFCURVE",
"329 453 OFFCURVE",
"257 475 OFFCURVE",
"209 512 OFFCURVE",
"209 537 QCURVE",
"209 568 OFFCURVE",
"256 607 OFFCURVE",
"323 607 QCURVE",
"375 607 OFFCURVE",
"430 579 QCURVE",
"435 595 OFFCURVE",
"454 646 OFFCURVE",
"460 664 QCURVE",
"467 682 LINE",
"404 712 OFFCURVE",
"321 712 QCURVE",
"212 712 OFFCURVE",
"96 610 OFFCURVE",
"96 540 QCURVE",
"96 485 OFFCURVE",
"128 445 QCURVE",
"95 404 OFFCURVE",
"92 349 QCURVE",
"92 341 OFFCURVE",
"92 333 QCURVE",
"92 286 OFFCURVE",
"106 250 QCURVE",
"124 208 OFFCURVE",
"185 159 OFFCURVE",
"260 124 OFFCURVE",
"336 99 OFFCURVE",
"400 71 OFFCURVE",
"440 26 OFFCURVE",
"440 -6 QCURVE",
"440 -42 OFFCURVE",
"392 -86 OFFCURVE",
"341 -97 OFFCURVE",
"313 -97 QCURVE",
"253 -97 OFFCURVE",
"192 -40 OFFCURVE",
"192 -8 QCURVE",
"78 -8 LINE",
"80 -82 OFFCURVE",
"205 -197 OFFCURVE",
"314 -197 QCURVE"
);
},
{
closed = 1;
nodes = (
"413 186 OFFCURVE",
"277 227 OFFCURVE",
"203 279 OFFCURVE",
"203 326 QCURVE",
"203 364 OFFCURVE",
"216 384 QCURVE",
"224 378 OFFCURVE",
"305 349 OFFCURVE",
"382 319 OFFCURVE",
"446 258 OFFCURVE",
"446 220 QCURVE",
"446 197 OFFCURVE",
"439 171 QCURVE"
);
}
);
width = 594;
}
);
unicode = 00A7;
},
{
glyphname = dieresis;
lastChange = "2018-08-09 15:11:51 +0000";
layers = (
{
layerId = "BADA37E3-C95E-4946-BA48-1F986F6D85A7";
paths = (
{
closed = 1;
nodes = (
"222 684 OFFCURVE",
"222 710 OFFCURVE",
"202 730 OFFCURVE",
"176 730 OFFCURVE",
"156 710 OFFCURVE",
"156 684 OFFCURVE",
"176 664 OFFCURVE",
"202 664 OFFCURVE",
"212 674 QCURVE"
);
},
{
closed = 1;
nodes = (
"66 684 OFFCURVE",
"66 710 OFFCURVE",
"46 730 OFFCURVE",
"20 730 OFFCURVE",
"0 710 OFFCURVE",
"0 684 OFFCURVE",
"20 664 OFFCURVE",
"46 664 OFFCURVE",
"56 674 QCURVE"
);
}
);
width = 222;
},
{
layerId = "77B00D75-0619-4FB7-8D17-EB9FCD2DF18B";
paths = (
{
closed = 1;
nodes = (
"206 709 OFFCURVE",
"206 721 OFFCURVE",
"197 730 OFFCURVE",
"185 730 OFFCURVE",
"176 721 OFFCURVE",
"176 709 OFFCURVE",
"185 700 OFFCURVE",
"197 700 OFFCURVE",
"201 704 QCURVE"
);
},
{
closed = 1;
nodes = (
"47 708 OFFCURVE",
"47 720 OFFCURVE",
"38 729 OFFCURVE",
"26 729 OFFCURVE",
"17 720 OFFCURVE",
"17 708 OFFCURVE",
"26 699 OFFCURVE",
"38 699 OFFCURVE",
"42 703 QCURVE"
);
}
);
width = 222;
},
{
layerId = "8A94633D-DA21-409C-A8B7-00A83612E8B2";
paths = (
{
closed = 1;
nodes = (
"222 690 OFFCURVE",
"222 728 OFFCURVE",
"196 754 OFFCURVE",
"158 754 OFFCURVE",
"132 728 OFFCURVE",
"132 690 OFFCURVE",
"158 664 OFFCURVE",
"196 664 OFFCURVE",
"209 677 QCURVE"
);
},
{
closed = 1;
nodes = (
"63 664 OFFCURVE",
"89 690 OFFCURVE",
"89 708 QCURVE",
"89 727 OFFCURVE",
"63 753 OFFCURVE",
"44 753 QCURVE",
"26 753 OFFCURVE",
"0 727 OFFCURVE",
"0 708 QCURVE",
"0 690 OFFCURVE",
"26 664 OFFCURVE",
"44 664 QCURVE"
);
}
);
width = 222;
}
);
unicode = 00A8;
},
{
glyphname = copyright;
lastChange = "2018-08-09 15:11:51 +0000";
layers = (
{
layerId = "BADA37E3-C95E-4946-BA48-1F986F6D85A7";
paths = (
{
closed = 1;
nodes = (
"774 407 OFFCURVE",
"558 621 OFFCURVE",
"243 621 OFFCURVE",
"25 407 OFFCURVE",
"25 89 OFFCURVE",
"245 -127 OFFCURVE",
"556 -127 OFFCURVE",
"774 89 OFFCURVE",
"774 248 QCURVE"
);
},
{
closed = 1;
nodes = (
"475 16 OFFCURVE",
"583 103 OFFCURVE",
"599 175 QCURVE",
"535 175 LINE",
"528 131 OFFCURVE",
"455 74 OFFCURVE",
"405 74 QCURVE",
"331 74 OFFCURVE",
"253 174 OFFCURVE",
"253 321 OFFCURVE",
"328 419 OFFCURVE",
"404 419 QCURVE",
"453 419 OFFCURVE",
"527 363 OFFCURVE",
"535 323 QCURVE",
"598 323 LINE",
"586 392 OFFCURVE",
"476 478 OFFCURVE",
"403 478 QCURVE",
"305 478 OFFCURVE",
"191 343 OFFCURVE",
"191 146 OFFCURVE",
"306 16 OFFCURVE",
"405 16 QCURVE"
);
},
{
closed = 1;
nodes = (
"84 387 OFFCURVE",
"268 566 OFFCURVE",
"531 566 OFFCURVE",
"716 381 OFFCURVE",
"716 109 OFFCURVE",
"533 -72 OFFCURVE",
"267 -72 OFFCURVE",
"84 108 OFFCURVE",
"84 247 QCURVE"
);
}
);
width = 800;
},
{
layerId = "77B00D75-0619-4FB7-8D17-EB9FCD2DF18B";
paths = (
{
closed = 1;
nodes = (
"774 407 OFFCURVE",
"558 621 OFFCURVE",
"243 621 OFFCURVE",
"25 407 OFFCURVE",
"25 89 OFFCURVE",
"245 -127 OFFCURVE",
"556 -127 OFFCURVE",
"774 89 OFFCURVE",
"774 248 QCURVE"
);
},
{
closed = 1;
nodes = (
"475 16 OFFCURVE",
"583 103 OFFCURVE",
"599 175 QCURVE",
"580 175 LINE",
"572 124 OFFCURVE",
"477 35 OFFCURVE",
"336 35 OFFCURVE",
"244 105 OFFCURVE",
"210 197 OFFCURVE",
"210 249 QCURVE",
"210 331 OFFCURVE",
"311 459 OFFCURVE",
"404 459 QCURVE",
"481 459 OFFCURVE",
"570 373 OFFCURVE",
"580 323 QCURVE",
"598 323 LINE",
"586 392 OFFCURVE",
"476 478 OFFCURVE",
"403 478 QCURVE",
"305 478 OFFCURVE",
"191 343 OFFCURVE",
"191 146 OFFCURVE",
"306 16 OFFCURVE",
"405 16 QCURVE"
);
},
{
closed = 1;
nodes = (
"45 402 OFFCURVE",
"257 603 OFFCURVE",
"547 603 OFFCURVE",
"755 397 OFFCURVE",
"755 96 OFFCURVE",
"540 -108 OFFCURVE",
"259 -108 OFFCURVE",
"45 94 OFFCURVE",
"45 248 QCURVE"
);
}
);
width = 800;
},
{
layerId = "8A94633D-DA21-409C-A8B7-00A83612E8B2";
paths = (
{
closed = 1;
nodes = (
"556 -127 OFFCURVE",
"774 89 OFFCURVE",
"774 249 QCURVE",
"774 407 OFFCURVE",
"558 621 OFFCURVE",
"401 621 QCURVE",
"243 621 OFFCURVE",
"25 407 OFFCURVE",
"25 249 QCURVE",
"25 89 OFFCURVE",
"245 -127 OFFCURVE",
"401 -127 QCURVE"
);
},
{
closed = 1;
nodes = (
"475 16 OFFCURVE",
"583 103 OFFCURVE",
"599 175 QCURVE",
"492 175 LINE",
"492 154 OFFCURVE",
"437 126 OFFCURVE",
"402 126 QCURVE",
"351 126 OFFCURVE",
"296 196 OFFCURVE",
"296 248 QCURVE",
"296 299 OFFCURVE",
"348 367 OFFCURVE",
"401 367 QCURVE",
"434 367 OFFCURVE",
"487 340 OFFCURVE",
"492 323 QCURVE",
"598 323 LINE",
"586 392 OFFCURVE",
"476 478 OFFCURVE",
"403 478 QCURVE",
"305 478 OFFCURVE",
"191 343 OFFCURVE",
"191 247 QCURVE",
"191 146 OFFCURVE",
"306 16 OFFCURVE",
"405 16 QCURVE"
);
},
{
closed = 1;
nodes = (
"289 -20 OFFCURVE",
"136 131 OFFCURVE",
"136 249 QCURVE",
"136 364 OFFCURVE",
"289 514 OFFCURVE",
"401 514 QCURVE",
"510 514 OFFCURVE",
"664 360 OFFCURVE",
"664 249 QCURVE",
"664 132 OFFCURVE",
"512 -20 OFFCURVE",
"401 -20 QCURVE"
);
}
);
width = 800;
}
);
unicode = 00A9;
},
{
glyphname = ordfeminine;
lastChange = "2018-08-09 15:11:51 +0000";
layers = (
{
layerId = "BADA37E3-C95E-4946-BA48-1F986F6D85A7";
paths = (
{
closed = 1;
nodes = (
"347 555 LINE",
"347 634 OFFCURVE",
"279 709 OFFCURVE",
"181 709 QCURVE",
"178 666 LINE",
"240 666 OFFCURVE",
"295 624 OFFCURVE",
"295 592 QCURVE",
"229 631 OFFCURVE",
"179 631 QCURVE",
"158 631 OFFCURVE",
"140 624 QCURVE",
"78 601 OFFCURVE",
"78 519 QCURVE",
"78 474 OFFCURVE",
"109 414 OFFCURVE",
"155 386 OFFCURVE",
"216 380 OFFCURVE",
"278 380 OFFCURVE",
"347 391 QCURVE"
);
},
{
closed = 1;
nodes = (
"125 453 OFFCURVE",
"125 513 QCURVE",
"125 584 OFFCURVE",
"180 584 QCURVE",
"222 584 OFFCURVE",
"295 543 QCURVE",
"295 435 LINE",
"258 424 OFFCURVE",
"198 424 OFFCURVE",
"174 434 QCURVE"
);
}
);
width = 380;
},
{
layerId = "77B00D75-0619-4FB7-8D17-EB9FCD2DF18B";
paths = (
{
closed = 1;
nodes = (
"347 555 LINE",
"347 634 OFFCURVE",
"279 709 OFFCURVE",
"181 709 QCURVE",
"179 693 LINE",
"258 691 OFFCURVE",
"328 638 OFFCURVE",
"328 569 QCURVE",
"244 630 OFFCURVE",
"176 630 QCURVE",
"124 630 OFFCURVE",
"96 587 QCURVE",
"78 559 OFFCURVE",
"78 474 OFFCURVE",
"109 414 OFFCURVE",
"155 386 OFFCURVE",
"216 380 OFFCURVE",
"278 380 OFFCURVE",
"347 391 QCURVE"
);
},
{
closed = 1;
nodes = (
"267 395 OFFCURVE",
"172 395 OFFCURVE",
"144 415 QCURVE",
"117 433 OFFCURVE",
"97 480 OFFCURVE",
"97 513 QCURVE",
"97 570 OFFCURVE",
"126 596 QCURVE",
"147 613 OFFCURVE",
"178 613 QCURVE",
"242 613 OFFCURVE",
"328 548 QCURVE",
"328 405 LINE"
);
}
);
width = 386;
},
{
layerId = "8A94633D-DA21-409C-A8B7-00A83612E8B2";
paths = (
{
closed = 1;
nodes = (
"252 380 OFFCURVE",
"265 380 QCURVE",
"299 383 OFFCURVE",
"347 391 QCURVE",
"347 555 LINE",
"347 647 OFFCURVE",
"314 680 QCURVE",
"286 710 OFFCURVE",
"206 710 QCURVE",
"194 710 OFFCURVE",
"181 709 QCURVE",
"171 648 LINE",
"204 649 OFFCURVE",
"240 652 OFFCURVE",
"256 636 OFFCURVE",
"259 626 OFFCURVE",
"259 613 QCURVE",
"259 611 OFFCURVE",
"259 610 QCURVE",
"220 633 OFFCURVE",
"183 633 QCURVE",
"159 633 OFFCURVE",
"136 622 QCURVE",
"78 596 OFFCURVE",
"78 519 QCURVE",
"78 474 OFFCURVE",
"109 414 OFFCURVE",
"155 386 OFFCURVE",
"193 382 QCURVE",
"216 380 OFFCURVE",
"238 380 QCURVE"
);
},
{
closed = 1;
nodes = (
"160 458 OFFCURVE",
"160 513 QCURVE",
"160 541 OFFCURVE",
"176 550 QCURVE",
"186 557 OFFCURVE",
"198 557 QCURVE",
"205 557 OFFCURVE",
"213 554 QCURVE",
"234 549 OFFCURVE",
"259 535 QCURVE",
"259 461 LINE",
"240 458 OFFCURVE",
"225 458 QCURVE"
);
}
);
width = 386;
}
);
unicode = 00AA;
},
{
glyphname = guillemotleft;
lastChange = "2018-08-09 15:11:51 +0000";
layers = (
{
layerId = "BADA37E3-C95E-4946-BA48-1F986F6D85A7";
paths = (
{
closed = 1;
nodes = (
"484 114 LINE",
"336 267 LINE",
"486 417 LINE",
"449 455 LINE",
"262 268 LINE",
"262 267 LINE",
"449 80 LINE"
);
},
{
closed = 1;
nodes = (
"264 114 LINE",
"116 267 LINE",
"266 417 LINE",
"229 455 LINE",
"42 268 LINE",
"42 267 LINE",
"229 80 LINE"
);
}
);
width = 488;
},
{
layerId = "77B00D75-0619-4FB7-8D17-EB9FCD2DF18B";
paths = (
{
closed = 1;
nodes = (
"463 96 LINE",
"288 268 LINE",
"462 441 LINE",
"449 455 LINE",
"262 268 LINE",
"262 267 LINE",
"449 80 LINE"
);
},
{
closed = 1;
nodes = (
"243 96 LINE",
"70 268 LINE",
"243 441 LINE",
"229 455 LINE",
"42 268 LINE",
"42 267 LINE",
"229 80 LINE"
);
}
);
width = 523;
},
{
layerId = "8A94633D-DA21-409C-A8B7-00A83612E8B2";
paths = (
{
closed = 1;
nodes = (
"521 148 LINE",
"402 267 LINE",
"522 383 LINE",
"449 455 LINE",
"262 268 LINE",
"262 267 LINE",
"449 80 LINE"
);
},
{
closed = 1;
nodes = (
"301 148 LINE",
"182 267 LINE",
"302 383 LINE",
"229 455 LINE",
"42 268 LINE",
"42 267 LINE",
"229 80 LINE"
);
}
);
width = 523;
}
);
unicode = 00AB;
},
{
glyphname = uni00AD;
lastChange = "2018-08-09 15:11:51 +0000";
layers = (
{
layerId = "BADA37E3-C95E-4946-BA48-1F986F6D85A7";
paths = (
{
closed = 1;
nodes = (
"365 358 LINE",
"365 413 LINE",
"45 413 LINE",
"45 358 LINE"
);
}
);
width = 410;
},
{
layerId = "77B00D75-0619-4FB7-8D17-EB9FCD2DF18B";
paths = (
{
closed = 1;
nodes = (
"365 394 LINE",
"365 413 LINE",
"45 413 LINE",
"45 394 LINE"
);
}
);
width = 410;
},
{
layerId = "8A94633D-DA21-409C-A8B7-00A83612E8B2";
paths = (
{
closed = 1;
nodes = (
"365 308 LINE",
"365 413 LINE",
"45 413 LINE",
"45 308 LINE"
);
}
);
width = 410;
}
);
unicode = 00AD;
},
{
glyphname = registered;
lastChange = "2018-08-09 15:11:51 +0000";
layers = (
{
layerId = "BADA37E3-C95E-4946-BA48-1F986F6D85A7";
paths = (
{
closed = 1;
nodes = (
"774 407 OFFCURVE",
"558 621 OFFCURVE",
"243 621 OFFCURVE",
"25 407 OFFCURVE",
"25 89 OFFCURVE",
"245 -127 OFFCURVE",
"556 -127 OFFCURVE",
"774 89 OFFCURVE",
"774 248 QCURVE"
);
},
{
closed = 1;
nodes = (
"84 387 OFFCURVE",
"268 566 OFFCURVE",
"531 566 OFFCURVE",
"716 381 OFFCURVE",
"716 109 OFFCURVE",
"533 -72 OFFCURVE",
"267 -72 OFFCURVE",
"84 108 OFFCURVE",
"84 247 QCURVE"
);
},
{
closed = 1;
nodes = (
"320 39 LINE",
"320 229 LINE",
"401 229 LINE",
"520 39 LINE",
"587 39 LINE",
"462 234 LINE",
"514 240 OFFCURVE",
"577 299 OFFCURVE",
"577 408 OFFCURVE",
"499 476 OFFCURVE",
"424 476 QCURVE",
"264 476 LINE",
"264 39 LINE"
);
},
{
closed = 1;
nodes = (
"320 425 LINE",
"413 425 LINE",
"456 425 OFFCURVE",
"520 393 OFFCURVE",
"520 354 QCURVE",
"520 329 OFFCURVE",
"510 314 QCURVE",
"488 282 OFFCURVE",
"394 282 QCURVE",
"320 282 LINE"
);
}
);
width = 800;
},
{
layerId = "77B00D75-0619-4FB7-8D17-EB9FCD2DF18B";
paths = (
{
closed = 1;
nodes = (
"774 407 OFFCURVE",
"558 621 OFFCURVE",
"243 621 OFFCURVE",
"25 407 OFFCURVE",
"25 89 OFFCURVE",
"245 -127 OFFCURVE",
"556 -127 OFFCURVE",
"774 89 OFFCURVE",
"774 248 QCURVE"
);
},
{
closed = 1;
nodes = (
"44 402 OFFCURVE",
"253 602 OFFCURVE",
"548 602 OFFCURVE",
"755 402 OFFCURVE",
"755 95 OFFCURVE",
"548 -108 OFFCURVE",
"256 -108 OFFCURVE",
"44 94 OFFCURVE",
"44 248 QCURVE"
);
},
{
closed = 1;
nodes = (
"283 39 LINE",
"283 229 LINE",
"442 229 LINE",
"564 39 LINE",
"587 39 LINE",
"464 231 LINE",
"514 237 OFFCURVE",
"577 299 OFFCURVE",
"577 406 OFFCURVE",
"499 476 OFFCURVE",
"437 476 QCURVE",
"264 476 LINE",
"264 39 LINE"
);
},
{
closed = 1;
nodes = (
"283 457 LINE",
"435 457 LINE",
"483 457 OFFCURVE",
"559 408 OFFCURVE",
"559 287 OFFCURVE",
"506 262 QCURVE",
"477 248 OFFCURVE",
"441 248 QCURVE",
"283 248 LINE"
);
}
);
width = 800;
},
{
layerId = "8A94633D-DA21-409C-A8B7-00A83612E8B2";
paths = (
{
closed = 1;
nodes = (
"556 -127 OFFCURVE",
"774 89 OFFCURVE",
"774 249 QCURVE",
"774 407 OFFCURVE",
"558 621 OFFCURVE",
"401 621 QCURVE",
"243 621 OFFCURVE",
"25 407 OFFCURVE",
"25 249 QCURVE",
"25 89 OFFCURVE",
"245 -127 OFFCURVE",
"401 -127 QCURVE"
);
},
{
closed = 1;
nodes = (
"289 -20 OFFCURVE",
"136 131 OFFCURVE",
"136 249 QCURVE",
"136 364 OFFCURVE",
"289 514 OFFCURVE",
"401 514 QCURVE",
"510 514 OFFCURVE",
"664 360 OFFCURVE",
"664 249 QCURVE",
"664 132 OFFCURVE",
"512 -20 OFFCURVE",
"401 -20 QCURVE"
);
},
{
closed = 1;
nodes = (
"382 39 LINE",
"382 229 LINE",
"388 229 LINE",
"447 39 LINE",
"555 39 LINE",
"483 241 LINE",
"511 255 OFFCURVE",
"541 295 OFFCURVE",
"547 327 OFFCURVE",
"547 351 QCURVE",
"547 476 OFFCURVE",
"391 476 QCURVE",
"278 476 LINE",
"278 39 LINE"
);
},
{
closed = 1;
nodes = (
"382 389 LINE",
"413 389 LINE",
"426 389 OFFCURVE",
"440 365 OFFCURVE",
"440 349 QCURVE",
"440 313 OFFCURVE",
"404 313 QCURVE",
"382 313 LINE"
);
}
);
width = 800;
}
);
unicode = 00AE;
},
{
glyphname = overscore;
lastChange = "2018-08-09 15:11:51 +0000";
layers = (
{
layerId = "BADA37E3-C95E-4946-BA48-1F986F6D85A7";
paths = (
{
closed = 1;
nodes = (
"299 619 LINE",
"299 677 LINE",
"78 677 LINE",
"78 619 LINE"
);
}
);
width = 332;
},
{
layerId = "77B00D75-0619-4FB7-8D17-EB9FCD2DF18B";
paths = (
{
closed = 1;
nodes = (
"299 658 LINE",
"299 677 LINE",
"78 677 LINE",
"78 658 LINE"
);
}
);
width = 338;
},
{
layerId = "8A94633D-DA21-409C-A8B7-00A83612E8B2";
paths = (
{
closed = 1;
nodes = (
"299 619 LINE",
"299 710 LINE",
"78 710 LINE",
"78 619 LINE"
);
}
);
width = 338;
}
);
unicode = 00AF;
},
{
glyphname = degree;
lastChange = "2018-08-09 15:11:51 +0000";
layers = (
{
layerId = "BADA37E3-C95E-4946-BA48-1F986F6D85A7";
paths = (
{
closed = 1;
nodes = (
"366 505 OFFCURVE",
"366 625 OFFCURVE",
"282 709 OFFCURVE",
"162 709 OFFCURVE",
"78 625 OFFCURVE",
"78 505 OFFCURVE",
"162 421 OFFCURVE",
"282 421 OFFCURVE",
"324 463 QCURVE"
);
},
{
closed = 1;
nodes = (
"264 471 OFFCURVE",
"180 471 OFFCURVE",
"128 528 OFFCURVE",
"128 602 OFFCURVE",
"180 659 OFFCURVE",
"264 659 OFFCURVE",
"316 602 OFFCURVE",
"316 528 OFFCURVE",
"290 499 QCURVE"
);
}
);
width = 399;
},
{
layerId = "77B00D75-0619-4FB7-8D17-EB9FCD2DF18B";
paths = (
{
closed = 1;
nodes = (
"366 505 OFFCURVE",
"366 625 OFFCURVE",
"282 709 OFFCURVE",
"162 709 OFFCURVE",
"78 625 OFFCURVE",
"78 505 OFFCURVE",
"162 421 OFFCURVE",
"282 421 OFFCURVE",
"324 463 QCURVE"
);
},
{
closed = 1;
nodes = (
"278 440 OFFCURVE",
"166 440 OFFCURVE",
"97 516 OFFCURVE",
"97 614 OFFCURVE",
"166 690 OFFCURVE",
"278 690 OFFCURVE",
"347 614 OFFCURVE",
"347 516 OFFCURVE",
"312 478 QCURVE"
);
}
);
width = 405;
},
{
layerId = "8A94633D-DA21-409C-A8B7-00A83612E8B2";
paths = (
{
closed = 1;
nodes = (
"366 505 OFFCURVE",
"366 625 OFFCURVE",
"282 709 OFFCURVE",
"162 709 OFFCURVE",
"78 625 OFFCURVE",
"78 505 OFFCURVE",
"162 421 OFFCURVE",
"282 421 OFFCURVE",
"324 463 QCURVE"
);
},
{
closed = 1;
nodes = (
"171 585 OFFCURVE",
"199 616 OFFCURVE",
"245 616 OFFCURVE",
"273 585 OFFCURVE",
"273 565 QCURVE",
"273 544 OFFCURVE",
"245 514 OFFCURVE",
"199 514 OFFCURVE",
"171 544 OFFCURVE",
"171 565 QCURVE"
);
}
);
width = 405;
}
);
unicode = 00B0;
},
{
glyphname = plusminus;
lastChange = "2018-08-09 15:11:51 +0000";
layers = (
{
layerId = "BADA37E3-C95E-4946-BA48-1F986F6D85A7";
paths = (
{
closed = 1;
nodes = (
"398 237 LINE",
"398 292 LINE",
"266 292 LINE",
"266 358 LINE",
"398 358 LINE",
"398 413 LINE",
"266 413 LINE",
"266 545 LINE",
"211 545 LINE",
"211 413 LINE",
"78 413 LINE",
"78 358 LINE",
"211 358 LINE",
"211 292 LINE",
"78 292 LINE",
"78 237 LINE"
);
}
);
width = 431;
},
{
layerId = "77B00D75-0619-4FB7-8D17-EB9FCD2DF18B";
paths = (
{
closed = 1;
nodes = (
"398 237 LINE",
"398 257 LINE",
"253 257 LINE",
"253 394 LINE",
"402 394 LINE",
"402 413 LINE",
"253 413 LINE",
"253 545 LINE",
"234 545 LINE",
"234 413 LINE",
"82 413 LINE",
"82 394 LINE",
"234 394 LINE",
"234 257 LINE",
"78 257 LINE",
"78 237 LINE"
);
}
);
width = 441;
},
{
layerId = "8A94633D-DA21-409C-A8B7-00A83612E8B2";
paths = (
{
closed = 1;
nodes = (
"398 208 LINE",
"398 306 LINE",
"288 306 LINE",
"288 348 LINE",
"398 348 LINE",
"398 437 LINE",
"288 437 LINE",
"288 545 LINE",
"187 545 LINE",
"187 437 LINE",
"78 437 LINE",
"78 348 LINE",
"187 348 LINE",
"187 306 LINE",
"78 306 LINE",
"78 208 LINE"
);
}
);
width = 437;
}
);
unicode = 00B1;
},
{
glyphname = acute;
lastChange = "2018-08-09 15:11:51 +0000";
layers = (
{
layerId = "BADA37E3-C95E-4946-BA48-1F986F6D85A7";
paths = (
{
closed = 1;
nodes = (
"90 588 LINE",
"159 680 LINE",
"164 686 OFFCURVE",
"164 700 OFFCURVE",
"162 706 QCURVE",
"156 729 OFFCURVE",
"129 729 QCURVE",
"108 729 OFFCURVE",
"97 706 QCURVE",
"46 588 LINE"
);
}
);
width = 222;
},
{
layerId = "77B00D75-0619-4FB7-8D17-EB9FCD2DF18B";
paths = (
{
closed = 1;
nodes = (
"65 588 LINE",
"128 701 LINE",
"133 709 OFFCURVE",
"133 715 QCURVE",
"133 729 OFFCURVE",
"116 729 QCURVE",
"106 729 OFFCURVE",
"101 716 QCURVE",
"46 588 LINE"
);
}
);
width = 222;
},
{
layerId = "8A94633D-DA21-409C-A8B7-00A83612E8B2";
paths = (
{
closed = 1;
nodes = (
"119 588 LINE",
"168 651 LINE",
"184 672 OFFCURVE",
"184 690 QCURVE",
"184 693 OFFCURVE",
"183 696 QCURVE",
"179 716 OFFCURVE",
"159 726 QCURVE",
"153 730 OFFCURVE",
"144 730 QCURVE",
"136 730 OFFCURVE",
"125 726 QCURVE",
"102 719 OFFCURVE",
"92 696 QCURVE",
"46 588 LINE"
);
}
);
width = 222;
}
);
unicode = 00B4;
},
{
glyphname = mu;
lastChange = "2018-08-09 15:11:51 +0000";
layers = (
{
layerId = "BADA37E3-C95E-4946-BA48-1F986F6D85A7";
paths = (
{
closed = 1;
nodes = (
"94 38 LINE",
"96 37 OFFCURVE",
"110 29 QCURVE",
"185 -12 OFFCURVE",
"261 -12 QCURVE",
"336 -12 OFFCURVE",
"373 25 QCURVE",
"391 -6 OFFCURVE",
"417 -6 QCURVE",
"444 27 LINE",
"420 41 OFFCURVE",
"417 69 QCURVE",
"417 510 LINE",
"360 498 LINE",
"360 153 LINE",
"360 40 OFFCURVE",
"257 40 QCURVE",
"212 40 OFFCURVE",
"162 62 QCURVE",
"118 81 OFFCURVE",
"94 105 QCURVE",
"94 501 LINE",
"37 501 LINE",
"37 -201 LINE",
"94 -210 LINE"
);
}
);
width = 478;
},
{
layerId = "77B00D75-0619-4FB7-8D17-EB9FCD2DF18B";
paths = (
{
closed = 1;
nodes = (
"56 65 LINE",
"138 -11 OFFCURVE",
"350 -11 OFFCURVE",
"398 60 QCURVE",
"398 43 OFFCURVE",
"410 12 OFFCURVE",
"424 -2 OFFCURVE",
"429 -2 QCURVE",
"442 13 LINE",
"417 20 OFFCURVE",
"417 63 QCURVE",
"417 510 LINE",
"398 506 LINE",
"398 136 LINE",
"398 66 OFFCURVE",
"303 6 OFFCURVE",
"161 6 OFFCURVE",
"98 52 QCURVE",
"66 76 OFFCURVE",
"56 91 QCURVE",
"56 501 LINE",
"37 501 LINE",
"37 -201 LINE",
"56 -203 LINE"
);
}
);
width = 476;
},
{
layerId = "8A94633D-DA21-409C-A8B7-00A83612E8B2";
paths = (
{
closed = 1;
nodes = (
"147 12 LINE",
"185 -4 OFFCURVE",
"236 -11 QCURVE",
"248 -12 OFFCURVE",
"258 -12 QCURVE",
"306 -12 OFFCURVE",
"331 7 QCURVE",
"334 4 OFFCURVE",
"341 -3 OFFCURVE",
"342 -4 QCURVE",
"344 -6 LINE",
"444 27 LINE",
"420 41 OFFCURVE",
"417 69 QCURVE",
"417 510 LINE",
"306 497 LINE",
"306 195 LINE",
"306 96 OFFCURVE",
"243 92 QCURVE",
"240 92 OFFCURVE",
"237 92 QCURVE",
"214 92 OFFCURVE",
"185 98 QCURVE",
"152 106 OFFCURVE",
"147 111 QCURVE",
"147 501 LINE",
"37 501 LINE",
"37 -201 LINE",
"147 -210 LINE"
);
}
);
width = 478;
}
);
unicode = 00B5;
},
{
glyphname = paragraph;
lastChange = "2018-08-09 15:11:51 +0000";
layers = (
{
layerId = "BADA37E3-C95E-4946-BA48-1F986F6D85A7";
paths = (
{
closed = 1;
nodes = (
"636 -199 LINE",
"636 750 LINE",
"264 750 LINE",
"170 750 OFFCURVE",
"78 624 OFFCURVE",
"78 524 QCURVE",
"78 474 OFFCURVE",
"81 429 QCURVE",
"83 399 OFFCURVE",
"93 363 OFFCURVE",
"108 315 OFFCURVE",
"135 286 OFFCURVE",
"153 272 QCURVE",
"188 246 OFFCURVE",
"255 246 QCURVE",
"456 246 LINE",
"456 -198 LINE",
"512 -198 LINE",
"512 699 LINE",
"580 698 LINE",
"580 -199 LINE"
);
}
);
width = 669;
},
{
layerId = "77B00D75-0619-4FB7-8D17-EB9FCD2DF18B";
paths = (
{
closed = 1;
nodes = (
"636 -199 LINE",
"636 750 LINE",
"264 750 LINE",
"170 750 OFFCURVE",
"78 624 OFFCURVE",
"78 524 QCURVE",
"78 474 OFFCURVE",
"81 429 QCURVE",
"83 399 OFFCURVE",
"93 363 OFFCURVE",
"108 315 OFFCURVE",
"135 286 OFFCURVE",
"153 272 QCURVE",
"188 246 OFFCURVE",
"255 246 QCURVE",
"494 246 LINE",
"494 -198 LINE",
"512 -198 LINE",
"512 729 LINE",
"618 729 LINE",
"618 -199 LINE"
);
}
);
width = 675;
},
{
layerId = "8A94633D-DA21-409C-A8B7-00A83612E8B2";
paths = (
{
closed = 1;
nodes = (
"512 -198 LINE",
"512 637 LINE",
"580 636 LINE",
"580 -199 LINE",
"683 -199 LINE",
"683 750 LINE",
"264 750 LINE",
"170 750 OFFCURVE",
"78 624 OFFCURVE",
"78 524 QCURVE",
"78 493 OFFCURVE",
"79 459 OFFCURVE",
"83 399 OFFCURVE",
"93 363 OFFCURVE",
"108 315 OFFCURVE",
"135 286 OFFCURVE",
"171 259 OFFCURVE",
"223 246 OFFCURVE",
"255 246 QCURVE",
"407 246 LINE",
"407 -199 LINE"
);
}
);
width = 722;
}
);
unicode = 00B6;
},
{
glyphname = cedilla;
lastChange = "2018-08-09 15:11:51 +0000";
layers = (
{
layerId = "BADA37E3-C95E-4946-BA48-1F986F6D85A7";
paths = (
{
closed = 1;
nodes = (
"128 -210 OFFCURVE",
"218 -210 OFFCURVE",
"292 -169 OFFCURVE",
"292 -86 OFFCURVE",
"245 -47 OFFCURVE",
"184 -47 OFFCURVE",
"175 -53 QCURVE",
"215 0 LINE",
"173 0 LINE",
"112 -78 LINE",
"129 -106 LINE",
"163 -92 LINE",
"183 -85 OFFCURVE",
"211 -85 OFFCURVE",
"220 -89 QCURVE",
"240 -99 OFFCURVE",
"240 -121 QCURVE",
"240 -163 OFFCURVE",
"170 -163 QCURVE",
"137 -163 OFFCURVE",
"100 -138 QCURVE",
"76 -191 LINE"
);
}
);
width = 249;
},
{
layerId = "77B00D75-0619-4FB7-8D17-EB9FCD2DF18B";
paths = (
{
closed = 1;
nodes = (
"128 -210 OFFCURVE",
"218 -210 OFFCURVE",
"292 -169 OFFCURVE",
"292 -78 OFFCURVE",
"235 -46 OFFCURVE",
"170 -46 OFFCURVE",
"151 -56 QCURVE",
"193 0 LINE",
"173 0 LINE",
"112 -78 LINE",
"118 -88 LINE",
"159 -73 LINE",
"183 -64 OFFCURVE",
"222 -64 OFFCURVE",
"238 -70 QCURVE",
"273 -84 OFFCURVE",
"273 -156 OFFCURVE",
"212 -193 OFFCURVE",
"122 -193 OFFCURVE",
"86 -170 QCURVE",
"76 -191 LINE"
);
}
);
width = 410;
},
{
layerId = "8A94633D-DA21-409C-A8B7-00A83612E8B2";
paths = (
{
closed = 1;
nodes = (
"220 -232 OFFCURVE",
"309 -178 OFFCURVE",
"309 -123 QCURVE",
"309 -80 OFFCURVE",
"257 -31 OFFCURVE",
"223 -31 QCURVE",
"208 -31 OFFCURVE",
"189 -38 QCURVE",
"216 0 LINE",
"146 0 LINE",
"85 -78 LINE",
"120 -128 LINE",
"164 -106 LINE",
"189 -94 OFFCURVE",
"207 -94 QCURVE",
"214 -94 OFFCURVE",
"219 -96 QCURVE",
"239 -102 OFFCURVE",
"239 -144 OFFCURVE",
"203 -163 OFFCURVE",
"179 -163 QCURVE",
"138 -163 OFFCURVE",
"101 -138 QCURVE",
"67 -211 LINE",
"124 -232 OFFCURVE",
"169 -232 QCURVE"
);
}
);
width = 266;
}
);
unicode = 00B8;
},
{
glyphname = guillemotright;
lastChange = "2018-08-09 15:11:51 +0000";
layers = (
{
layerId = "BADA37E3-C95E-4946-BA48-1F986F6D85A7";
paths = (
{
closed = 1;
nodes = (
"447 267 LINE",
"447 268 LINE",
"260 455 LINE",
"223 417 LINE",
"373 267 LINE",
"225 114 LINE",
"260 80 LINE"
);
},
{
closed = 1;
nodes = (
"227 267 LINE",
"227 268 LINE",
"40 455 LINE",
"3 417 LINE",
"153 267 LINE",
"5 114 LINE",
"40 80 LINE"
);
}
);
width = 512;
},
{
layerId = "77B00D75-0619-4FB7-8D17-EB9FCD2DF18B";
paths = (
{
closed = 1;
nodes = (
"442 267 LINE",
"442 268 LINE",
"255 455 LINE",
"241 441 LINE",
"414 268 LINE",
"241 96 LINE",
"255 80 LINE"
);
},
{
closed = 1;
nodes = (
"222 267 LINE",
"222 268 LINE",
"35 455 LINE",
"22 441 LINE",
"196 268 LINE",
"21 96 LINE",
"35 80 LINE"
);
}
);
width = 519;
},
{
layerId = "8A94633D-DA21-409C-A8B7-00A83612E8B2";
paths = (
{
closed = 1;
nodes = (
"480 267 LINE",
"480 268 LINE",
"293 455 LINE",
"220 383 LINE",
"340 267 LINE",
"221 148 LINE",
"293 80 LINE"
);
},
{
closed = 1;
nodes = (
"260 267 LINE",
"260 268 LINE",
"73 455 LINE",
"0 383 LINE",
"120 267 LINE",
"1 148 LINE",
"73 80 LINE"
);
}
);
width = 519;
}
);
unicode = 00BB;
},
{
glyphname = questiondown;
lastChange = "2018-08-09 15:11:51 +0000";
layers = (
{
layerId = "BADA37E3-C95E-4946-BA48-1F986F6D85A7";
paths = (
{
closed = 1;
nodes = (
"340 0 OFFCURVE",
"433 102 OFFCURVE",
"433 177 QCURVE",
"377 177 LINE",
"377 116 OFFCURVE",
"306 53 OFFCURVE",
"209 53 OFFCURVE",
"138 121 OFFCURVE",
"138 174 QCURVE",
"138 218 OFFCURVE",
"171 269 QCURVE",
"183 286 OFFCURVE",
"234 339 OFFCURVE",
"266 378 OFFCURVE",
"293 451 OFFCURVE",
"293 497 QCURVE",
"293 590 LINE",
"242 590 LINE",
"242 527 LINE",
"241 473 OFFCURVE",
"218 402 OFFCURVE",
"189 370 OFFCURVE",
"135 315 OFFCURVE",
"116 288 QCURVE",
"79 234 OFFCURVE",
"79 172 QCURVE",
"79 78 OFFCURVE",
"161 26 QCURVE",
"203 0 OFFCURVE",
"255 0 QCURVE"
);
},
{
closed = 1;
nodes = (
"301 662 OFFCURVE",
"301 690 OFFCURVE",
"282 709 OFFCURVE",
"254 709 OFFCURVE",
"235 690 OFFCURVE",
"235 662 OFFCURVE",
"254 643 OFFCURVE",
"282 643 OFFCURVE",
"291 652 QCURVE"
);
}
);
width = 466;
},
{
layerId = "77B00D75-0619-4FB7-8D17-EB9FCD2DF18B";
paths = (
{
closed = 1;
nodes = (
"340 0 OFFCURVE",
"433 102 OFFCURVE",
"433 177 QCURVE",
"414 177 LINE",
"414 103 OFFCURVE",
"324 19 OFFCURVE",
"203 19 OFFCURVE",
"127 70 OFFCURVE",
"98 138 OFFCURVE",
"98 232 OFFCURVE",
"124 270 QCURVE",
"146 301 OFFCURVE",
"204 360 OFFCURVE",
"244 403 OFFCURVE",
"277 479 OFFCURVE",
"277 524 QCURVE",
"277 590 LINE",
"258 590 LINE",
"258 532 LINE",
"258 485 OFFCURVE",
"230 414 OFFCURVE",
"194 377 OFFCURVE",
"135 316 OFFCURVE",
"116 288 QCURVE",
"79 234 OFFCURVE",
"79 172 QCURVE",
"79 78 OFFCURVE",
"161 26 QCURVE",
"203 0 OFFCURVE",
"255 0 QCURVE"
);
},
{
closed = 1;
nodes = (
"282 688 OFFCURVE",
"282 700 OFFCURVE",
"273 709 OFFCURVE",
"261 709 OFFCURVE",
"252 700 OFFCURVE",
"252 688 OFFCURVE",
"261 679 OFFCURVE",
"273 679 OFFCURVE",
"277 683 QCURVE"
);
}
);
width = 472;
},
{
layerId = "8A94633D-DA21-409C-A8B7-00A83612E8B2";
paths = (
{
closed = 1;
nodes = (
"355 0 OFFCURVE",
"448 102 OFFCURVE",
"448 177 QCURVE",
"336 177 LINE",
"336 145 OFFCURVE",
"298 105 OFFCURVE",
"259 105 QCURVE",
"236 105 OFFCURVE",
"196 142 OFFCURVE",
"191 172 QCURVE",
"190 178 OFFCURVE",
"190 183 QCURVE",
"190 210 OFFCURVE",
"211 244 QCURVE",
"222 261 OFFCURVE",
"273 324 OFFCURVE",
"307 370 OFFCURVE",
"336 451 OFFCURVE",
"336 497 QCURVE",
"336 590 LINE",
"227 590 LINE",
"227 527 LINE",
"226 472 OFFCURVE",
"207 402 OFFCURVE",
"183 372 OFFCURVE",
"131 316 OFFCURVE",
"113 290 QCURVE",
"79 241 OFFCURVE",
"79 187 QCURVE",
"79 135 OFFCURVE",
"104 95 QCURVE",
"129 54 OFFCURVE",
"218 0 OFFCURVE",
"270 0 QCURVE"
);
},
{
closed = 1;
nodes = (
"303 608 OFFCURVE",
"333 638 OFFCURVE",
"333 659 QCURVE",
"333 679 OFFCURVE",
"303 709 OFFCURVE",
"283 709 QCURVE",
"262 709 OFFCURVE",
"232 679 OFFCURVE",
"232 659 QCURVE",
"232 638 OFFCURVE",
"262 608 OFFCURVE",
"283 608 QCURVE"
);
}
);
width = 487;
}
);
unicode = 00BF;
},
{
glyphname = Agrave;
lastChange = "2018-08-09 15:11:51 +0000";
layers = (
{
layerId = "BADA37E3-C95E-4946-BA48-1F986F6D85A7";
paths = (
{
closed = 1;
nodes = (
"71 0 LINE",
"149 245 LINE",
"377 245 LINE",
"457 0 LINE",
"517 0 LINE",
"289 700 LINE",
"236 700 LINE",
"12 0 LINE"
);
},
{
closed = 1;
nodes = (
"262 613 LINE",
"362 300 LINE",
"165 300 LINE"
);
},
{
closed = 1;
nodes = (
"274 733 LINE",
"223 851 LINE",
"212 874 OFFCURVE",
"191 874 QCURVE",
"185 874 OFFCURVE",
"178 872 QCURVE",
"156 865 OFFCURVE",
"156 838 QCURVE",
"156 831 OFFCURVE",
"161 825 QCURVE",
"230 733 LINE"
);
}
);
width = 527;
},
{
layerId = "77B00D75-0619-4FB7-8D17-EB9FCD2DF18B";
paths = (
{
closed = 1;
nodes = (
"31 0 LINE",
"130 281 LINE",
"398 281 LINE",
"496 0 LINE",
"517 0 LINE",
"271 700 LINE",
"257 700 LINE",
"12 0 LINE"
);
},
{
closed = 1;
nodes = (
"264 660 LINE",
"391 300 LINE",
"137 300 LINE"
);
},
{
closed = 1;
nodes = (
"276 731 LINE",
"221 859 LINE",
"216 872 OFFCURVE",
"206 872 QCURVE",
"202 872 OFFCURVE",
"198 870 QCURVE",
"182 863 OFFCURVE",
"194 844 QCURVE",
"257 731 LINE"
);
}
);
width = 527;
},
{
layerId = "8A94633D-DA21-409C-A8B7-00A83612E8B2";
paths = (
{
closed = 1;
nodes = (
"145 0 LINE",
"184 183 LINE",
"345 183 LINE",
"386 0 LINE",
"517 0 LINE",
"340 700 LINE",
"185 700 LINE",
"21 0 LINE"
);
},
{
closed = 1;
nodes = (
"262 516 LINE",
"319 300 LINE",
"210 300 LINE"
);
},
{
closed = 1;
nodes = (
"286 733 LINE",
"240 841 LINE",
"230 864 OFFCURVE",
"207 872 QCURVE",
"196 875 OFFCURVE",
"188 875 QCURVE",
"179 875 OFFCURVE",
"173 871 QCURVE",
"153 861 OFFCURVE",
"149 842 QCURVE",
"148 838 OFFCURVE",
"148 835 QCURVE",
"148 817 OFFCURVE",
"164 796 QCURVE",
"213 733 LINE"
);
}
);
width = 527;
}
);
unicode = 00C0;
},
{
glyphname = Aacute;
lastChange = "2018-08-09 15:11:51 +0000";
layers = (
{
layerId = "BADA37E3-C95E-4946-BA48-1F986F6D85A7";
paths = (
{
closed = 1;
nodes = (
"71 0 LINE",
"149 245 LINE",
"377 245 LINE",
"457 0 LINE",
"517 0 LINE",
"289 700 LINE",
"236 700 LINE",
"12 0 LINE"
);
},
{
closed = 1;
nodes = (
"262 613 LINE",
"362 300 LINE",
"165 300 LINE"
);
},
{
closed = 1;
nodes = (
"286 731 LINE",
"355 823 LINE",
"360 829 OFFCURVE",
"360 843 OFFCURVE",
"358 849 QCURVE",
"352 872 OFFCURVE",
"325 872 QCURVE",
"304 872 OFFCURVE",
"293 849 QCURVE",
"242 731 LINE"
);
}
);
width = 527;
},
{
layerId = "77B00D75-0619-4FB7-8D17-EB9FCD2DF18B";
paths = (
{
closed = 1;
nodes = (
"31 0 LINE",
"130 281 LINE",
"398 281 LINE",
"496 0 LINE",
"517 0 LINE",
"271 700 LINE",
"257 700 LINE",
"12 0 LINE"
);
},
{
closed = 1;
nodes = (
"264 660 LINE",
"391 300 LINE",
"137 300 LINE"
);
},
{
closed = 1;
nodes = (
"261 731 LINE",
"324 844 LINE",
"336 863 OFFCURVE",
"320 870 QCURVE",
"316 872 OFFCURVE",
"312 872 QCURVE",
"302 872 OFFCURVE",
"297 859 QCURVE",
"242 731 LINE"
);
}
);
width = 527;
},
{
layerId = "8A94633D-DA21-409C-A8B7-00A83612E8B2";
paths = (
{
closed = 1;
nodes = (
"145 0 LINE",
"184 183 LINE",
"345 183 LINE",
"386 0 LINE",
"517 0 LINE",
"340 700 LINE",
"185 700 LINE",
"21 0 LINE"
);
},
{
closed = 1;
nodes = (
"262 516 LINE",
"319 300 LINE",
"210 300 LINE"
);
},
{
closed = 1;
nodes = (
"302 731 LINE",
"351 794 LINE",
"367 815 OFFCURVE",
"367 833 QCURVE",
"367 836 OFFCURVE",
"366 840 QCURVE",
"362 859 OFFCURVE",
"342 869 QCURVE",
"336 873 OFFCURVE",
"327 873 QCURVE",
"319 873 OFFCURVE",
"308 870 QCURVE",
"285 862 OFFCURVE",
"275 839 QCURVE",
"229 731 LINE"
);
}
);
width = 527;
}
);
unicode = 00C1;
},
{
glyphname = Acircumflex;
lastChange = "2018-08-09 15:11:51 +0000";
layers = (
{
layerId = "BADA37E3-C95E-4946-BA48-1F986F6D85A7";
paths = (
{
closed = 1;
nodes = (
"71 0 LINE",
"149 245 LINE",
"377 245 LINE",
"457 0 LINE",
"517 0 LINE",
"289 700 LINE",
"236 700 LINE",
"12 0 LINE"
);
},
{
closed = 1;
nodes = (
"262 613 LINE",
"362 300 LINE",
"165 300 LINE"
);
},
{
closed = 1;
nodes = (
"265 837 LINE",
"370 733 LINE",
"408 772 LINE",
"266 913 LINE",
"118 772 LINE",
"156 733 LINE"
);
}
);
width = 527;
},
{
layerId = "77B00D75-0619-4FB7-8D17-EB9FCD2DF18B";
paths = (
{
closed = 1;
nodes = (
"31 0 LINE",
"130 281 LINE",
"398 281 LINE",
"496 0 LINE",
"517 0 LINE",
"271 700 LINE",
"257 700 LINE",
"12 0 LINE"
);
},
{
closed = 1;
nodes = (
"264 660 LINE",
"391 300 LINE",
"137 300 LINE"
);
},
{
closed = 1;
nodes = (
"265 883 LINE",
"391 756 LINE",
"408 772 LINE",
"266 913 LINE",
"118 772 LINE",
"134 756 LINE"
);
}
);
width = 527;
},
{
layerId = "8A94633D-DA21-409C-A8B7-00A83612E8B2";
paths = (
{
closed = 1;
nodes = (
"145 0 LINE",
"184 183 LINE",
"345 183 LINE",
"386 0 LINE",
"517 0 LINE",
"340 700 LINE",
"185 700 LINE",
"21 0 LINE"
);
},
{
closed = 1;
nodes = (
"262 516 LINE",
"319 300 LINE",
"210 300 LINE"
);
},
{
closed = 1;
nodes = (
"267 814 LINE",
"343 731 LINE",
"410 770 LINE",
"268 911 LINE",
"120 770 LINE",
"186 731 LINE"
);
}
);
width = 527;
}
);
unicode = 00C2;
},
{
glyphname = Atilde;
lastChange = "2018-08-09 15:11:51 +0000";
layers = (
{
layerId = "BADA37E3-C95E-4946-BA48-1F986F6D85A7";
paths = (
{
closed = 1;
nodes = (
"71 0 LINE",
"149 245 LINE",
"377 245 LINE",
"457 0 LINE",
"517 0 LINE",
"289 700 LINE",
"236 700 LINE",
"12 0 LINE"
);
},
{
closed = 1;
nodes = (
"262 613 LINE",
"362 300 LINE",
"165 300 LINE"
);
},
{
closed = 1;
nodes = (
"385 728 OFFCURVE",
"430 781 QCURVE",
"405 820 LINE",
"374 785 OFFCURVE",
"335 785 QCURVE",
"310 785 OFFCURVE",
"259 808 OFFCURVE",
"214 826 OFFCURVE",
"196 826 QCURVE",
"143 826 OFFCURVE",
"96 773 QCURVE",
"121 734 LINE",
"155 770 OFFCURVE",
"196 770 QCURVE",
"221 770 OFFCURVE",
"271 747 OFFCURVE",
"316 728 OFFCURVE",
"334 728 QCURVE"
);
}
);
width = 527;
},
{
layerId = "77B00D75-0619-4FB7-8D17-EB9FCD2DF18B";
paths = (
{
closed = 1;
nodes = (
"31 0 LINE",
"130 281 LINE",
"398 281 LINE",
"496 0 LINE",
"517 0 LINE",
"271 700 LINE",
"257 700 LINE",
"12 0 LINE"
);
},
{
closed = 1;
nodes = (
"264 660 LINE",
"391 300 LINE",
"137 300 LINE"
);
},
{
closed = 1;
nodes = (
"145 804 OFFCURVE",
"191 804 QCURVE",
"212 804 OFFCURVE",
"259 784 OFFCURVE",
"309 761 OFFCURVE",
"335 761 QCURVE",
"379 761 OFFCURVE",
"417 796 QCURVE",
"407 813 LINE",
"376 781 OFFCURVE",
"312 781 OFFCURVE",
"287 793 QCURVE",
"222 825 OFFCURVE",
"195 825 QCURVE",
"143 825 OFFCURVE",
"96 776 QCURVE",
"107 760 LINE"
);
}
);
width = 527;
},
{
layerId = "8A94633D-DA21-409C-A8B7-00A83612E8B2";
paths = (
{
closed = 1;
nodes = (
"145 0 LINE",
"184 183 LINE",
"345 183 LINE",
"386 0 LINE",
"517 0 LINE",
"340 700 LINE",
"185 700 LINE",
"21 0 LINE"
);
},
{
closed = 1;
nodes = (
"262 516 LINE",
"319 300 LINE",
"210 300 LINE"
);
},
{
closed = 1;
nodes = (
"364 728 OFFCURVE",
"379 732 QCURVE",
"413 741 OFFCURVE",
"447 781 QCURVE",
"405 846 LINE",
"377 815 OFFCURVE",
"346 812 QCURVE",
"341 811 OFFCURVE",
"335 811 QCURVE",
"310 811 OFFCURVE",
"288 822 QCURVE",
"259 834 OFFCURVE",
"230 846 QCURVE",
"214 852 OFFCURVE",
"196 852 QCURVE",
"182 852 OFFCURVE",
"166 848 QCURVE",
"131 838 OFFCURVE",
"96 799 QCURVE",
"135 734 LINE",
"165 766 OFFCURVE",
"198 770 QCURVE",
"204 770 OFFCURVE",
"211 770 QCURVE",
"236 770 OFFCURVE",
"258 760 QCURVE",
"287 747 OFFCURVE",
"316 735 QCURVE",
"333 728 OFFCURVE",
"351 728 QCURVE"
);
}
);
width = 527;
}
);
unicode = 00C3;
},
{
glyphname = Adieresis;
lastChange = "2018-08-09 15:11:51 +0000";
layers = (
{
layerId = "BADA37E3-C95E-4946-BA48-1F986F6D85A7";
paths = (
{
closed = 1;
nodes = (
"71 0 LINE",
"149 245 LINE",
"377 245 LINE",
"457 0 LINE",
"517 0 LINE",
"289 700 LINE",
"236 700 LINE",
"12 0 LINE"
);
},
{
closed = 1;
nodes = (
"262 613 LINE",
"362 300 LINE",
"165 300 LINE"
);
},
{
closed = 1;
nodes = (
"217 750 OFFCURVE",
"217 778 OFFCURVE",
"198 797 OFFCURVE",
"170 797 OFFCURVE",
"151 778 OFFCURVE",
"151 750 OFFCURVE",
"170 731 OFFCURVE",
"198 731 OFFCURVE",
"207 740 QCURVE"
);
},
{
closed = 1;
nodes = (
"373 750 OFFCURVE",
"373 778 OFFCURVE",
"354 797 OFFCURVE",
"326 797 OFFCURVE",
"307 778 OFFCURVE",
"307 750 OFFCURVE",
"326 731 OFFCURVE",
"354 731 OFFCURVE",
"363 740 QCURVE"
);
}
);
width = 527;
},
{
layerId = "77B00D75-0619-4FB7-8D17-EB9FCD2DF18B";
paths = (
{
closed = 1;
nodes = (
"31 0 LINE",
"130 281 LINE",
"398 281 LINE",
"496 0 LINE",
"517 0 LINE",
"271 700 LINE",
"257 700 LINE",
"12 0 LINE"
);
},
{
closed = 1;
nodes = (
"264 660 LINE",
"391 300 LINE",
"137 300 LINE"
);
},
{
closed = 1;
nodes = (
"196 807 OFFCURVE",
"196 819 OFFCURVE",
"187 828 OFFCURVE",
"175 828 OFFCURVE",
"166 819 OFFCURVE",
"166 807 OFFCURVE",
"175 798 OFFCURVE",
"187 798 OFFCURVE",
"191 802 QCURVE"
);
},
{
closed = 1;
nodes = (
"355 808 OFFCURVE",
"355 820 OFFCURVE",
"346 829 OFFCURVE",
"334 829 OFFCURVE",
"325 820 OFFCURVE",
"325 808 OFFCURVE",
"334 799 OFFCURVE",
"346 799 OFFCURVE",
"350 803 QCURVE"
);
}
);
width = 527;
},
{
layerId = "8A94633D-DA21-409C-A8B7-00A83612E8B2";
paths = (
{
closed = 1;
nodes = (
"145 0 LINE",
"184 183 LINE",
"345 183 LINE",
"386 0 LINE",
"517 0 LINE",
"340 700 LINE",
"185 700 LINE",
"21 0 LINE"
);
},
{
closed = 1;
nodes = (
"262 516 LINE",
"319 300 LINE",
"210 300 LINE"
);
},
{
closed = 1;
nodes = (
"214 731 OFFCURVE",
"240 757 OFFCURVE",
"240 775 QCURVE",
"240 794 OFFCURVE",
"214 820 OFFCURVE",
"195 820 QCURVE",
"177 820 OFFCURVE",
"151 794 OFFCURVE",
"151 775 QCURVE",
"151 757 OFFCURVE",
"177 731 OFFCURVE",
"195 731 QCURVE"
);
},
{
closed = 1;
nodes = (
"373 757 OFFCURVE",
"373 795 OFFCURVE",
"347 821 OFFCURVE",
"309 821 OFFCURVE",
"283 795 OFFCURVE",
"283 757 OFFCURVE",
"309 731 OFFCURVE",
"347 731 OFFCURVE",
"360 744 QCURVE"
);
}
);
width = 527;
}
);
unicode = 00C4;
},
